<?xml version="1.0" encoding="UTF-8" standalone="no"?>
<!DOCTYPE svg PUBLIC "-//W3C//DTD SVG 1.1//EN"
 "http://www.w3.org/Graphics/SVG/1.1/DTD/svg11.dtd">
<!-- Generated by graphviz version 2.38.0 (20140413.2041)
 -->
<!-- Title: %3 Pages: 1 -->
<svg width="455pt" height="598pt"
 viewBox="0.00 0.00 454.60 598.40" xmlns="http://www.w3.org/2000/svg" xmlns:xlink="http://www.w3.org/1999/xlink">
<g id="graph0" class="graph" transform="scale(1 1) rotate(0) translate(4 594.4)">
<title>%3</title>
<polygon fill="white" stroke="none" points="-4,4 -4,-594.4 450.6,-594.4 450.6,4 -4,4"/>
<!-- 2 -->
<g id="node1" class="node"><title>2</title>
<ellipse fill="black" stroke="black" cx="23.8" cy="-477" rx="1.8" ry="1.8"/>
</g>
<!-- 0 -->
<g id="node2" class="node"><title>0</title>
<ellipse fill="black" stroke="black" cx="1.8" cy="-437.4" rx="1.8" ry="1.8"/>
</g>
<!-- 2&#45;&#45;0 -->
<g id="edge1" class="edge"><title>2&#45;&#45;0</title>
<path fill="none" stroke="black" d="M23.2562,-475.071C20.186,-469.823 5.05879,-443.97 2.24943,-439.168"/>
</g>
<!-- 1 -->
<g id="node3" class="node"><title>1</title>
<ellipse fill="black" stroke="black" cx="23.8" cy="-437.4" rx="1.8" ry="1.8"/>
</g>
<!-- 2&#45;&#45;1 -->
<g id="edge2" class="edge"><title>2&#45;&#45;1</title>
<path fill="none" stroke="black" d="M23.8,-475.071C23.8,-470.004 23.8,-445.728 23.8,-439.738"/>
</g>
<!-- 4 -->
<g id="node4" class="node"><title>4</title>
<ellipse fill="black" stroke="black" cx="100.8" cy="-572.4" rx="1.8" ry="1.8"/>
</g>
<!-- 24 -->
<g id="node5" class="node"><title>24</title>
<ellipse fill="black" stroke="black" cx="56.8" cy="-516.6" rx="1.8" ry="1.8"/>
</g>
<!-- 4&#45;&#45;24 -->
<g id="edge3" class="edge"><title>4&#45;&#45;24</title>
<path fill="none" stroke="black" d="M100.036,-570.466C94.65,-563.88 62.4502,-524.509 57.4518,-518.397"/>
</g>
<!-- 8 -->
<g id="node6" class="node"><title>8</title>
<ellipse fill="black" stroke="black" cx="144.8" cy="-516.6" rx="1.8" ry="1.8"/>
</g>
<!-- 4&#45;&#45;8 -->
<g id="edge4" class="edge"><title>4&#45;&#45;8</title>
<path fill="none" stroke="black" d="M101.347,-570.444C102.873,-567.801 107.359,-560.209 111.8,-554.4 123.474,-539.128 139.984,-522.407 143.929,-518.465"/>
</g>
<!-- 24&#45;&#45;2 -->
<g id="edge23" class="edge"><title>24&#45;&#45;2</title>
<path fill="none" stroke="black" d="M55.9843,-514.671C51.379,-509.423 28.6882,-483.57 24.4741,-478.768"/>
</g>
<!-- 28 -->
<g id="node29" class="node"><title>28</title>
<ellipse fill="black" stroke="black" cx="56.8" cy="-477" rx="1.8" ry="1.8"/>
</g>
<!-- 24&#45;&#45;28 -->
<g id="edge24" class="edge"><title>24&#45;&#45;28</title>
<path fill="none" stroke="black" d="M56.8,-514.671C56.8,-509.604 56.8,-485.328 56.8,-479.338"/>
</g>
<!-- 48 -->
<g id="node10" class="node"><title>48</title>
<ellipse fill="black" stroke="black" cx="144.8" cy="-477" rx="1.8" ry="1.8"/>
</g>
<!-- 8&#45;&#45;48 -->
<g id="edge7" class="edge"><title>8&#45;&#45;48</title>
<path fill="none" stroke="black" d="M144.8,-514.671C144.8,-509.604 144.8,-485.328 144.8,-479.338"/>
</g>
<!-- 12 -->
<g id="node11" class="node"><title>12</title>
<ellipse fill="black" stroke="black" cx="253.8" cy="-477" rx="1.8" ry="1.8"/>
</g>
<!-- 8&#45;&#45;12 -->
<g id="edge8" class="edge"><title>8&#45;&#45;12</title>
<path fill="none" stroke="black" d="M146.024,-515.178C157.157,-511.337 240.742,-482.504 252.442,-478.469"/>
</g>
<!-- 6 -->
<g id="node7" class="node"><title>6</title>
<ellipse fill="black" stroke="black" cx="133.8" cy="-437.4" rx="1.8" ry="1.8"/>
</g>
<!-- 3 -->
<g id="node8" class="node"><title>3</title>
<ellipse fill="black" stroke="black" cx="111.8" cy="-397.8" rx="1.8" ry="1.8"/>
</g>
<!-- 6&#45;&#45;3 -->
<g id="edge5" class="edge"><title>6&#45;&#45;3</title>
<path fill="none" stroke="black" d="M133.256,-435.471C130.186,-430.223 115.059,-404.37 112.249,-399.568"/>
</g>
<!-- 5 -->
<g id="node9" class="node"><title>5</title>
<ellipse fill="black" stroke="black" cx="133.8" cy="-397.8" rx="1.8" ry="1.8"/>
</g>
<!-- 6&#45;&#45;5 -->
<g id="edge6" class="edge"><title>6&#45;&#45;5</title>
<path fill="none" stroke="black" d="M133.8,-435.471C133.8,-430.404 133.8,-406.128 133.8,-400.138"/>
</g>
<!-- 48&#45;&#45;6 -->
<g id="edge47" class="edge"><title>48&#45;&#45;6</title>
<path fill="none" stroke="black" d="M144.528,-475.071C143.046,-470.004 135.944,-445.728 134.191,-439.738"/>
</g>
<!-- 52 -->
<g id="node52" class="node"><title>52</title>
<ellipse fill="black" stroke="black" cx="155.8" cy="-437.4" rx="1.8" ry="1.8"/>
</g>
<!-- 48&#45;&#45;52 -->
<g id="edge48" class="edge"><title>48&#45;&#45;52</title>
<path fill="none" stroke="black" d="M145.072,-475.071C146.554,-470.004 153.656,-445.728 155.409,-439.738"/>
</g>
<!-- 32 -->
<g id="node15" class="node"><title>32</title>
<ellipse fill="black" stroke="black" cx="253.8" cy="-437.4" rx="1.8" ry="1.8"/>
</g>
<!-- 12&#45;&#45;32 -->
<g id="edge11" class="edge"><title>12&#45;&#45;32</title>
<path fill="none" stroke="black" d="M253.8,-475.071C253.8,-470.004 253.8,-445.728 253.8,-439.738"/>
</g>
<!-- 16 -->
<g id="node16" class="node"><title>16</title>
<ellipse fill="black" stroke="black" cx="319.8" cy="-437.4" rx="1.8" ry="1.8"/>
</g>
<!-- 12&#45;&#45;16 -->
<g id="edge12" class="edge"><title>12&#45;&#45;16</title>
<path fill="none" stroke="black" d="M254.946,-475.347C263.025,-470.745 311.325,-443.228 318.822,-438.957"/>
</g>
<!-- 10 -->
<g id="node12" class="node"><title>10</title>
<ellipse fill="black" stroke="black" cx="220.8" cy="-358.2" rx="1.8" ry="1.8"/>
</g>
<!-- 7 -->
<g id="node13" class="node"><title>7</title>
<ellipse fill="black" stroke="black" cx="198.8" cy="-318.6" rx="1.8" ry="1.8"/>
</g>
<!-- 10&#45;&#45;7 -->
<g id="edge9" class="edge"><title>10&#45;&#45;7</title>
<path fill="none" stroke="black" d="M220.256,-356.271C217.186,-351.023 202.059,-325.17 199.249,-320.368"/>
</g>
<!-- 9 -->
<g id="node14" class="node"><title>9</title>
<ellipse fill="black" stroke="black" cx="220.8" cy="-318.6" rx="1.8" ry="1.8"/>
</g>
<!-- 10&#45;&#45;9 -->
<g id="edge10" class="edge"><title>10&#45;&#45;9</title>
<path fill="none" stroke="black" d="M220.8,-356.271C220.8,-351.204 220.8,-326.928 220.8,-320.938"/>
</g>
<!-- 54 -->
<g id="node36" class="node"><title>54</title>
<ellipse fill="black" stroke="black" cx="242.8" cy="-397.8" rx="1.8" ry="1.8"/>
</g>
<!-- 32&#45;&#45;54 -->
<g id="edge31" class="edge"><title>32&#45;&#45;54</title>
<path fill="none" stroke="black" d="M253.528,-435.471C252.046,-430.404 244.944,-406.128 243.191,-400.138"/>
</g>
<!-- 34 -->
<g id="node37" class="node"><title>34</title>
<ellipse fill="black" stroke="black" cx="264.8" cy="-397.8" rx="1.8" ry="1.8"/>
</g>
<!-- 32&#45;&#45;34 -->
<g id="edge32" class="edge"><title>32&#45;&#45;34</title>
<path fill="none" stroke="black" d="M254.072,-435.471C255.554,-430.404 262.656,-406.128 264.409,-400.138"/>
</g>
<!-- 36 -->
<g id="node20" class="node"><title>36</title>
<ellipse fill="black" stroke="black" cx="319.8" cy="-397.8" rx="1.8" ry="1.8"/>
</g>
<!-- 16&#45;&#45;36 -->
<g id="edge15" class="edge"><title>16&#45;&#45;36</title>
<path fill="none" stroke="black" d="M319.8,-435.471C319.8,-430.404 319.8,-406.128 319.8,-400.138"/>
</g>
<!-- 20 -->
<g id="node21" class="node"><title>20</title>
<ellipse fill="black" stroke="black" cx="378.8" cy="-397.8" rx="1.8" ry="1.8"/>
</g>
<!-- 16&#45;&#45;20 -->
<g id="edge16" class="edge"><title>16&#45;&#45;20</title>
<path fill="none" stroke="black" d="M320.824,-435.747C327.924,-431.223 369.77,-404.555 377.554,-399.594"/>
</g>
<!-- 14 -->
<g id="node17" class="node"><title>14</title>
<ellipse fill="black" stroke="black" cx="268.8" cy="-279" rx="1.8" ry="1.8"/>
</g>
<!-- 11 -->
<g id="node18" class="node"><title>11</title>
<ellipse fill="black" stroke="black" cx="246.8" cy="-239.4" rx="1.8" ry="1.8"/>
</g>
<!-- 14&#45;&#45;11 -->
<g id="edge13" class="edge"><title>14&#45;&#45;11</title>
<path fill="none" stroke="black" d="M268.256,-277.071C265.186,-271.823 250.059,-245.97 247.249,-241.168"/>
</g>
<!-- 13 -->
<g id="node19" class="node"><title>13</title>
<ellipse fill="black" stroke="black" cx="268.8" cy="-239.4" rx="1.8" ry="1.8"/>
</g>
<!-- 14&#45;&#45;13 -->
<g id="edge14" class="edge"><title>14&#45;&#45;13</title>
<path fill="none" stroke="black" d="M268.8,-277.071C268.8,-272.004 268.8,-247.728 268.8,-241.738"/>
</g>
<!-- 38 -->
<g id="node40" class="node"><title>38</title>
<ellipse fill="black" stroke="black" cx="308.8" cy="-358.2" rx="1.8" ry="1.8"/>
</g>
<!-- 36&#45;&#45;38 -->
<g id="edge35" class="edge"><title>36&#45;&#45;38</title>
<path fill="none" stroke="black" d="M319.528,-395.871C318.046,-390.804 310.944,-366.528 309.191,-360.538"/>
</g>
<!-- 35 -->
<g id="node41" class="node"><title>35</title>
<ellipse fill="black" stroke="black" cx="330.8" cy="-358.2" rx="1.8" ry="1.8"/>
</g>
<!-- 36&#45;&#45;35 -->
<g id="edge36" class="edge"><title>36&#45;&#45;35</title>
<path fill="none" stroke="black" d="M320.072,-395.871C321.554,-390.804 328.656,-366.528 330.409,-360.538"/>
</g>
<!-- 40 -->
<g id="node25" class="node"><title>40</title>
<ellipse fill="black" stroke="black" cx="378.8" cy="-358.2" rx="1.8" ry="1.8"/>
</g>
<!-- 20&#45;&#45;40 -->
<g id="edge19" class="edge"><title>20&#45;&#45;40</title>
<path fill="none" stroke="black" d="M378.8,-395.871C378.8,-390.804 378.8,-366.528 378.8,-360.538"/>
</g>
<!-- 22 -->
<g id="node26" class="node"><title>22</title>
<ellipse fill="black" stroke="black" cx="411.8" cy="-358.2" rx="1.8" ry="1.8"/>
</g>
<!-- 20&#45;&#45;22 -->
<g id="edge20" class="edge"><title>20&#45;&#45;22</title>
<path fill="none" stroke="black" d="M379.616,-395.871C384.221,-390.623 406.912,-364.77 411.126,-359.968"/>
</g>
<!-- 18 -->
<g id="node22" class="node"><title>18</title>
<ellipse fill="black" stroke="black" cx="345.8" cy="-279" rx="1.8" ry="1.8"/>
</g>
<!-- 15 -->
<g id="node23" class="node"><title>15</title>
<ellipse fill="black" stroke="black" cx="334.8" cy="-239.4" rx="1.8" ry="1.8"/>
</g>
<!-- 18&#45;&#45;15 -->
<g id="edge17" class="edge"><title>18&#45;&#45;15</title>
<path fill="none" stroke="black" d="M345.528,-277.071C344.046,-272.004 336.944,-247.728 335.191,-241.738"/>
</g>
<!-- 17 -->
<g id="node24" class="node"><title>17</title>
<ellipse fill="black" stroke="black" cx="356.8" cy="-239.4" rx="1.8" ry="1.8"/>
</g>
<!-- 18&#45;&#45;17 -->
<g id="edge18" class="edge"><title>18&#45;&#45;17</title>
<path fill="none" stroke="black" d="M346.072,-277.071C347.554,-272.004 354.656,-247.728 356.409,-241.738"/>
</g>
<!-- 62 -->
<g id="node44" class="node"><title>62</title>
<ellipse fill="black" stroke="black" cx="367.8" cy="-318.6" rx="1.8" ry="1.8"/>
</g>
<!-- 40&#45;&#45;62 -->
<g id="edge39" class="edge"><title>40&#45;&#45;62</title>
<path fill="none" stroke="black" d="M378.528,-356.271C377.046,-351.204 369.944,-326.928 368.191,-320.938"/>
</g>
<!-- 44 -->
<g id="node45" class="node"><title>44</title>
<ellipse fill="black" stroke="black" cx="389.8" cy="-318.6" rx="1.8" ry="1.8"/>
</g>
<!-- 40&#45;&#45;44 -->
<g id="edge40" class="edge"><title>40&#45;&#45;44</title>
<path fill="none" stroke="black" d="M379.072,-356.271C380.554,-351.204 387.656,-326.928 389.409,-320.938"/>
</g>
<!-- 19 -->
<g id="node27" class="node"><title>19</title>
<ellipse fill="black" stroke="black" cx="411.8" cy="-318.6" rx="1.8" ry="1.8"/>
</g>
<!-- 22&#45;&#45;19 -->
<g id="edge21" class="edge"><title>22&#45;&#45;19</title>
<path fill="none" stroke="black" d="M411.8,-356.271C411.8,-351.204 411.8,-326.928 411.8,-320.938"/>
</g>
<!-- 21 -->
<g id="node28" class="node"><title>21</title>
<ellipse fill="black" stroke="black" cx="433.8" cy="-318.6" rx="1.8" ry="1.8"/>
</g>
<!-- 22&#45;&#45;21 -->
<g id="edge22" class="edge"><title>22&#45;&#45;21</title>
<path fill="none" stroke="black" d="M412.344,-356.271C415.414,-351.023 430.541,-325.17 433.351,-320.368"/>
</g>
<!-- 26 -->
<g id="node30" class="node"><title>26</title>
<ellipse fill="black" stroke="black" cx="45.8" cy="-437.4" rx="1.8" ry="1.8"/>
</g>
<!-- 28&#45;&#45;26 -->
<g id="edge27" class="edge"><title>28&#45;&#45;26</title>
<path fill="none" stroke="black" d="M56.5281,-475.071C55.0459,-470.004 47.9439,-445.728 46.1915,-439.738"/>
</g>
<!-- 30 -->
<g id="node33" class="node"><title>30</title>
<ellipse fill="black" stroke="black" cx="67.8" cy="-437.4" rx="1.8" ry="1.8"/>
</g>
<!-- 28&#45;&#45;30 -->
<g id="edge28" class="edge"><title>28&#45;&#45;30</title>
<path fill="none" stroke="black" d="M57.0719,-475.071C58.5541,-470.004 65.6561,-445.728 67.4085,-439.738"/>
</g>
<!-- 23 -->
<g id="node31" class="node"><title>23</title>
<ellipse fill="black" stroke="black" cx="23.8" cy="-397.8" rx="1.8" ry="1.8"/>
</g>
<!-- 26&#45;&#45;23 -->
<g id="edge25" class="edge"><title>26&#45;&#45;23</title>
<path fill="none" stroke="black" d="M45.2562,-435.471C42.186,-430.223 27.0588,-404.37 24.2494,-399.568"/>
</g>
<!-- 25 -->
<g id="node32" class="node"><title>25</title>
<ellipse fill="black" stroke="black" cx="45.8" cy="-397.8" rx="1.8" ry="1.8"/>
</g>
<!-- 26&#45;&#45;25 -->
<g id="edge26" class="edge"><title>26&#45;&#45;25</title>
<path fill="none" stroke="black" d="M45.8,-435.471C45.8,-430.404 45.8,-406.128 45.8,-400.138"/>
</g>
<!-- 27 -->
<g id="node34" class="node"><title>27</title>
<ellipse fill="black" stroke="black" cx="67.8" cy="-397.8" rx="1.8" ry="1.8"/>
</g>
<!-- 30&#45;&#45;27 -->
<g id="edge29" class="edge"><title>30&#45;&#45;27</title>
<path fill="none" stroke="black" d="M67.8,-435.471C67.8,-430.404 67.8,-406.128 67.8,-400.138"/>
</g>
<!-- 29 -->
<g id="node35" class="node"><title>29</title>
<ellipse fill="black" stroke="black" cx="89.8" cy="-397.8" rx="1.8" ry="1.8"/>
</g>
<!-- 30&#45;&#45;29 -->
<g id="edge30" class="edge"><title>30&#45;&#45;29</title>
<path fill="none" stroke="black" d="M68.3438,-435.471C71.414,-430.223 86.5412,-404.37 89.3506,-399.568"/>
</g>
<!-- 54&#45;&#45;10 -->
<g id="edge53" class="edge"><title>54&#45;&#45;10</title>
<path fill="none" stroke="black" d="M242.256,-395.871C239.186,-390.623 224.059,-364.77 221.249,-359.968"/>
</g>
<!-- 56 -->
<g id="node58" class="node"><title>56</title>
<ellipse fill="black" stroke="black" cx="242.8" cy="-358.2" rx="1.8" ry="1.8"/>
</g>
<!-- 54&#45;&#45;56 -->
<g id="edge54" class="edge"><title>54&#45;&#45;56</title>
<path fill="none" stroke="black" d="M242.8,-395.871C242.8,-390.804 242.8,-366.528 242.8,-360.538"/>
</g>
<!-- 31 -->
<g id="node38" class="node"><title>31</title>
<ellipse fill="black" stroke="black" cx="264.8" cy="-358.2" rx="1.8" ry="1.8"/>
</g>
<!-- 34&#45;&#45;31 -->
<g id="edge33" class="edge"><title>34&#45;&#45;31</title>
<path fill="none" stroke="black" d="M264.8,-395.871C264.8,-390.804 264.8,-366.528 264.8,-360.538"/>
</g>
<!-- 33 -->
<g id="node39" class="node"><title>33</title>
<ellipse fill="black" stroke="black" cx="286.8" cy="-358.2" rx="1.8" ry="1.8"/>
</g>
<!-- 34&#45;&#45;33 -->
<g id="edge34" class="edge"><title>34&#45;&#45;33</title>
<path fill="none" stroke="black" d="M265.344,-395.871C268.414,-390.623 283.541,-364.77 286.351,-359.968"/>
</g>
<!-- 58 -->
<g id="node42" class="node"><title>58</title>
<ellipse fill="black" stroke="black" cx="287.8" cy="-318.6" rx="1.8" ry="1.8"/>
</g>
<!-- 38&#45;&#45;58 -->
<g id="edge37" class="edge"><title>38&#45;&#45;58</title>
<path fill="none" stroke="black" d="M308.281,-356.271C305.35,-351.023 290.911,-325.17 288.229,-320.368"/>
</g>
<!-- 37 -->
<g id="node43" class="node"><title>37</title>
<ellipse fill="black" stroke="black" cx="309.8" cy="-318.6" rx="1.8" ry="1.8"/>
</g>
<!-- 38&#45;&#45;37 -->
<g id="edge38" class="edge"><title>38&#45;&#45;37</title>
<path fill="none" stroke="black" d="M308.825,-356.271C308.959,-351.204 309.605,-326.928 309.764,-320.938"/>
</g>
<!-- 58&#45;&#45;14 -->
<g id="edge57" class="edge"><title>58&#45;&#45;14</title>
<path fill="none" stroke="black" d="M287.33,-316.671C284.679,-311.423 271.614,-285.57 269.188,-280.768"/>
</g>
<!-- 72 -->
<g id="node61" class="node"><title>72</title>
<ellipse fill="black" stroke="black" cx="290.8" cy="-279" rx="1.8" ry="1.8"/>
</g>
<!-- 58&#45;&#45;72 -->
<g id="edge58" class="edge"><title>58&#45;&#45;72</title>
<path fill="none" stroke="black" d="M287.874,-316.671C288.278,-311.604 290.215,-287.328 290.693,-281.338"/>
</g>
<!-- 62&#45;&#45;18 -->
<g id="edge61" class="edge"><title>62&#45;&#45;18</title>
<path fill="none" stroke="black" d="M367.256,-316.671C364.186,-311.423 349.059,-285.57 346.249,-280.768"/>
</g>
<!-- 61 -->
<g id="node65" class="node"><title>61</title>
<ellipse fill="black" stroke="black" cx="367.8" cy="-279" rx="1.8" ry="1.8"/>
</g>
<!-- 62&#45;&#45;61 -->
<g id="edge62" class="edge"><title>62&#45;&#45;61</title>
<path fill="none" stroke="black" d="M367.8,-316.671C367.8,-311.604 367.8,-287.328 367.8,-281.338"/>
</g>
<!-- 42 -->
<g id="node46" class="node"><title>42</title>
<ellipse fill="black" stroke="black" cx="389.8" cy="-279" rx="1.8" ry="1.8"/>
</g>
<!-- 44&#45;&#45;42 -->
<g id="edge43" class="edge"><title>44&#45;&#45;42</title>
<path fill="none" stroke="black" d="M389.8,-316.671C389.8,-311.604 389.8,-287.328 389.8,-281.338"/>
</g>
<!-- 46 -->
<g id="node49" class="node"><title>46</title>
<ellipse fill="black" stroke="black" cx="422.8" cy="-279" rx="1.8" ry="1.8"/>
</g>
<!-- 44&#45;&#45;46 -->
<g id="edge44" class="edge"><title>44&#45;&#45;46</title>
<path fill="none" stroke="black" d="M390.616,-316.671C395.221,-311.423 417.912,-285.57 422.126,-280.768"/>
</g>
<!-- 39 -->
<g id="node47" class="node"><title>39</title>
<ellipse fill="black" stroke="black" cx="378.8" cy="-239.4" rx="1.8" ry="1.8"/>
</g>
<!-- 42&#45;&#45;39 -->
<g id="edge41" class="edge"><title>42&#45;&#45;39</title>
<path fill="none" stroke="black" d="M389.528,-277.071C388.046,-272.004 380.944,-247.728 379.191,-241.738"/>
</g>
<!-- 41 -->
<g id="node48" class="node"><title>41</title>
<ellipse fill="black" stroke="black" cx="400.8" cy="-239.4" rx="1.8" ry="1.8"/>
</g>
<!-- 42&#45;&#45;41 -->
<g id="edge42" class="edge"><title>42&#45;&#45;41</title>
<path fill="none" stroke="black" d="M390.072,-277.071C391.554,-272.004 398.656,-247.728 400.409,-241.738"/>
</g>
<!-- 43 -->
<g id="node50" class="node"><title>43</title>
<ellipse fill="black" stroke="black" cx="422.8" cy="-239.4" rx="1.8" ry="1.8"/>
</g>
<!-- 46&#45;&#45;43 -->
<g id="edge45" class="edge"><title>46&#45;&#45;43</title>
<path fill="none" stroke="black" d="M422.8,-277.071C422.8,-272.004 422.8,-247.728 422.8,-241.738"/>
</g>
<!-- 45 -->
<g id="node51" class="node"><title>45</title>
<ellipse fill="black" stroke="black" cx="444.8" cy="-239.4" rx="1.8" ry="1.8"/>
</g>
<!-- 46&#45;&#45;45 -->
<g id="edge46" class="edge"><title>46&#45;&#45;45</title>
<path fill="none" stroke="black" d="M423.344,-277.071C426.414,-271.823 441.541,-245.97 444.351,-241.168"/>
</g>
<!-- 64 -->
<g id="node56" class="node"><title>64</title>
<ellipse fill="black" stroke="black" cx="155.8" cy="-397.8" rx="1.8" ry="1.8"/>
</g>
<!-- 52&#45;&#45;64 -->
<g id="edge51" class="edge"><title>52&#45;&#45;64</title>
<path fill="none" stroke="black" d="M155.8,-435.471C155.8,-430.404 155.8,-406.128 155.8,-400.138"/>
</g>
<!-- 51 -->
<g id="node57" class="node"><title>51</title>
<ellipse fill="black" stroke="black" cx="177.8" cy="-397.8" rx="1.8" ry="1.8"/>
</g>
<!-- 52&#45;&#45;51 -->
<g id="edge52" class="edge"><title>52&#45;&#45;51</title>
<path fill="none" stroke="black" d="M156.344,-435.471C159.414,-430.223 174.541,-404.37 177.351,-399.568"/>
</g>
<!-- 50 -->
<g id="node53" class="node"><title>50</title>
<ellipse fill="black" stroke="black" cx="116.8" cy="-358.2" rx="1.8" ry="1.8"/>
</g>
<!-- 47 -->
<g id="node54" class="node"><title>47</title>
<ellipse fill="black" stroke="black" cx="94.8" cy="-318.6" rx="1.8" ry="1.8"/>
</g>
<!-- 50&#45;&#45;47 -->
<g id="edge49" class="edge"><title>50&#45;&#45;47</title>
<path fill="none" stroke="black" d="M116.256,-356.271C113.186,-351.023 98.0588,-325.17 95.2494,-320.368"/>
</g>
<!-- 49 -->
<g id="node55" class="node"><title>49</title>
<ellipse fill="black" stroke="black" cx="116.8" cy="-318.6" rx="1.8" ry="1.8"/>
</g>
<!-- 50&#45;&#45;49 -->
<g id="edge50" class="edge"><title>50&#45;&#45;49</title>
<path fill="none" stroke="black" d="M116.8,-356.271C116.8,-351.204 116.8,-326.928 116.8,-320.938"/>
</g>
<!-- 64&#45;&#45;50 -->
<g id="edge63" class="edge"><title>64&#45;&#45;50</title>
<path fill="none" stroke="black" d="M154.836,-395.871C149.393,-390.623 122.577,-364.77 117.597,-359.968"/>
</g>
<!-- 68 -->
<g id="node66" class="node"><title>68</title>
<ellipse fill="black" stroke="black" cx="155.8" cy="-358.2" rx="1.8" ry="1.8"/>
</g>
<!-- 64&#45;&#45;68 -->
<g id="edge64" class="edge"><title>64&#45;&#45;68</title>
<path fill="none" stroke="black" d="M155.8,-395.871C155.8,-390.804 155.8,-366.528 155.8,-360.538"/>
</g>
<!-- 53 -->
<g id="node59" class="node"><title>53</title>
<ellipse fill="black" stroke="black" cx="242.8" cy="-318.6" rx="1.8" ry="1.8"/>
</g>
<!-- 56&#45;&#45;53 -->
<g id="edge55" class="edge"><title>56&#45;&#45;53</title>
<path fill="none" stroke="black" d="M242.8,-356.271C242.8,-351.204 242.8,-326.928 242.8,-320.938"/>
</g>
<!-- 55 -->
<g id="node60" class="node"><title>55</title>
<ellipse fill="black" stroke="black" cx="264.8" cy="-318.6" rx="1.8" ry="1.8"/>
</g>
<!-- 56&#45;&#45;55 -->
<g id="edge56" class="edge"><title>56&#45;&#45;55</title>
<path fill="none" stroke="black" d="M243.344,-356.271C246.414,-351.023 261.541,-325.17 264.351,-320.368"/>
</g>
<!-- 60 -->
<g id="node62" class="node"><title>60</title>
<ellipse fill="black" stroke="black" cx="290.8" cy="-239.4" rx="1.8" ry="1.8"/>
</g>
<!-- 72&#45;&#45;60 -->
<g id="edge71" class="edge"><title>72&#45;&#45;60</title>
<path fill="none" stroke="black" d="M290.8,-277.071C290.8,-272.004 290.8,-247.728 290.8,-241.738"/>
</g>
<!-- 76 -->
<g id="node75" class="node"><title>76</title>
<ellipse fill="black" stroke="black" cx="312.8" cy="-239.4" rx="1.8" ry="1.8"/>
</g>
<!-- 72&#45;&#45;76 -->
<g id="edge72" class="edge"><title>72&#45;&#45;76</title>
<path fill="none" stroke="black" d="M291.344,-277.071C294.414,-271.823 309.541,-245.97 312.351,-241.168"/>
</g>
<!-- 57 -->
<g id="node63" class="node"><title>57</title>
<ellipse fill="black" stroke="black" cx="268.8" cy="-199.8" rx="1.8" ry="1.8"/>
</g>
<!-- 60&#45;&#45;57 -->
<g id="edge59" class="edge"><title>60&#45;&#45;57</title>
<path fill="none" stroke="black" d="M290.256,-237.471C287.186,-232.223 272.059,-206.37 269.249,-201.568"/>
</g>
<!-- 59 -->
<g id="node64" class="node"><title>59</title>
<ellipse fill="black" stroke="black" cx="290.8" cy="-199.8" rx="1.8" ry="1.8"/>
</g>
<!-- 60&#45;&#45;59 -->
<g id="edge60" class="edge"><title>60&#45;&#45;59</title>
<path fill="none" stroke="black" d="M290.8,-237.471C290.8,-232.404 290.8,-208.128 290.8,-202.138"/>
</g>
<!-- 78 -->
<g id="node70" class="node"><title>78</title>
<ellipse fill="black" stroke="black" cx="138.8" cy="-318.6" rx="1.8" ry="1.8"/>
</g>
<!-- 68&#45;&#45;78 -->
<g id="edge67" class="edge"><title>68&#45;&#45;78</title>
<path fill="none" stroke="black" d="M155.38,-356.271C153.007,-351.023 141.318,-325.17 139.147,-320.368"/>
</g>
<!-- 82 -->
<g id="node71" class="node"><title>82</title>
<ellipse fill="black" stroke="black" cx="171.8" cy="-318.6" rx="1.8" ry="1.8"/>
</g>
<!-- 68&#45;&#45;82 -->
<g id="edge68" class="edge"><title>68&#45;&#45;82</title>
<path fill="none" stroke="black" d="M156.196,-356.271C158.351,-351.204 168.682,-326.928 171.231,-320.938"/>
</g>
<!-- 66 -->
<g id="node67" class="node"><title>66</title>
<ellipse fill="black" stroke="black" cx="92.8" cy="-279" rx="1.8" ry="1.8"/>
</g>
<!-- 63 -->
<g id="node68" class="node"><title>63</title>
<ellipse fill="black" stroke="black" cx="70.8" cy="-239.4" rx="1.8" ry="1.8"/>
</g>
<!-- 66&#45;&#45;63 -->
<g id="edge65" class="edge"><title>66&#45;&#45;63</title>
<path fill="none" stroke="black" d="M92.2562,-277.071C89.186,-271.823 74.0588,-245.97 71.2494,-241.168"/>
</g>
<!-- 65 -->
<g id="node69" class="node"><title>65</title>
<ellipse fill="black" stroke="black" cx="92.8" cy="-239.4" rx="1.8" ry="1.8"/>
</g>
<!-- 66&#45;&#45;65 -->
<g id="edge66" class="edge"><title>66&#45;&#45;65</title>
<path fill="none" stroke="black" d="M92.8,-277.071C92.8,-272.004 92.8,-247.728 92.8,-241.738"/>
</g>
<!-- 78&#45;&#45;66 -->
<g id="edge77" class="edge"><title>78&#45;&#45;66</title>
<path fill="none" stroke="black" d="M138.002,-316.947C132.466,-312.423 99.8401,-285.755 93.7714,-280.794"/>
</g>
<!-- 90 -->
<g id="node81" class="node"><title>90</title>
<ellipse fill="black" stroke="black" cx="136.8" cy="-279" rx="1.8" ry="1.8"/>
</g>
<!-- 78&#45;&#45;90 -->
<g id="edge78" class="edge"><title>78&#45;&#45;90</title>
<path fill="none" stroke="black" d="M138.751,-316.671C138.481,-311.604 137.19,-287.328 136.871,-281.338"/>
</g>
<!-- 70 -->
<g id="node72" class="node"><title>70</title>
<ellipse fill="black" stroke="black" cx="171.8" cy="-279" rx="1.8" ry="1.8"/>
</g>
<!-- 82&#45;&#45;70 -->
<g id="edge81" class="edge"><title>82&#45;&#45;70</title>
<path fill="none" stroke="black" d="M171.8,-316.671C171.8,-311.604 171.8,-287.328 171.8,-281.338"/>
</g>
<!-- 94 -->
<g id="node85" class="node"><title>94</title>
<ellipse fill="black" stroke="black" cx="202.8" cy="-279" rx="1.8" ry="1.8"/>
</g>
<!-- 82&#45;&#45;94 -->
<g id="edge82" class="edge"><title>82&#45;&#45;94</title>
<path fill="none" stroke="black" d="M172.566,-316.671C176.893,-311.423 198.208,-285.57 202.167,-280.768"/>
</g>
<!-- 67 -->
<g id="node73" class="node"><title>67</title>
<ellipse fill="black" stroke="black" cx="158.8" cy="-239.4" rx="1.8" ry="1.8"/>
</g>
<!-- 70&#45;&#45;67 -->
<g id="edge69" class="edge"><title>70&#45;&#45;67</title>
<path fill="none" stroke="black" d="M171.479,-277.071C169.727,-272.004 161.334,-247.728 159.263,-241.738"/>
</g>
<!-- 69 -->
<g id="node74" class="node"><title>69</title>
<ellipse fill="black" stroke="black" cx="180.8" cy="-239.4" rx="1.8" ry="1.8"/>
</g>
<!-- 70&#45;&#45;69 -->
<g id="edge70" class="edge"><title>70&#45;&#45;69</title>
<path fill="none" stroke="black" d="M172.022,-277.071C173.235,-272.004 179.046,-247.728 180.48,-241.738"/>
</g>
<!-- 86 -->
<g id="node79" class="node"><title>86</title>
<ellipse fill="black" stroke="black" cx="312.8" cy="-199.8" rx="1.8" ry="1.8"/>
</g>
<!-- 76&#45;&#45;86 -->
<g id="edge75" class="edge"><title>76&#45;&#45;86</title>
<path fill="none" stroke="black" d="M312.8,-237.471C312.8,-232.404 312.8,-208.128 312.8,-202.138"/>
</g>
<!-- 75 -->
<g id="node80" class="node"><title>75</title>
<ellipse fill="black" stroke="black" cx="334.8" cy="-199.8" rx="1.8" ry="1.8"/>
</g>
<!-- 76&#45;&#45;75 -->
<g id="edge76" class="edge"><title>76&#45;&#45;75</title>
<path fill="none" stroke="black" d="M313.344,-237.471C316.414,-232.223 331.541,-206.37 334.351,-201.568"/>
</g>
<!-- 74 -->
<g id="node76" class="node"><title>74</title>
<ellipse fill="black" stroke="black" cx="312.8" cy="-160.2" rx="1.8" ry="1.8"/>
</g>
<!-- 71 -->
<g id="node77" class="node"><title>71</title>
<ellipse fill="black" stroke="black" cx="290.8" cy="-120.6" rx="1.8" ry="1.8"/>
</g>
<!-- 74&#45;&#45;71 -->
<g id="edge73" class="edge"><title>74&#45;&#45;71</title>
<path fill="none" stroke="black" d="M312.256,-158.271C309.186,-153.023 294.059,-127.17 291.249,-122.368"/>
</g>
<!-- 73 -->
<g id="node78" class="node"><title>73</title>
<ellipse fill="black" stroke="black" cx="312.8" cy="-120.6" rx="1.8" ry="1.8"/>
</g>
<!-- 74&#45;&#45;73 -->
<g id="edge74" class="edge"><title>74&#45;&#45;73</title>
<path fill="none" stroke="black" d="M312.8,-158.271C312.8,-153.204 312.8,-128.928 312.8,-122.938"/>
</g>
<!-- 86&#45;&#45;74 -->
<g id="edge85" class="edge"><title>86&#45;&#45;74</title>
<path fill="none" stroke="black" d="M312.8,-197.871C312.8,-192.804 312.8,-168.528 312.8,-162.538"/>
</g>
<!-- 88 -->
<g id="node89" class="node"><title>88</title>
<ellipse fill="black" stroke="black" cx="334.8" cy="-160.2" rx="1.8" ry="1.8"/>
</g>
<!-- 86&#45;&#45;88 -->
<g id="edge86" class="edge"><title>86&#45;&#45;88</title>
<path fill="none" stroke="black" d="M313.344,-197.871C316.414,-192.623 331.541,-166.77 334.351,-161.968"/>
</g>
<!-- 80 -->
<g id="node82" class="node"><title>80</title>
<ellipse fill="black" stroke="black" cx="114.8" cy="-239.4" rx="1.8" ry="1.8"/>
</g>
<!-- 90&#45;&#45;80 -->
<g id="edge89" class="edge"><title>90&#45;&#45;80</title>
<path fill="none" stroke="black" d="M136.256,-277.071C133.186,-271.823 118.059,-245.97 115.249,-241.168"/>
</g>
<!-- 100 -->
<g id="node92" class="node"><title>100</title>
<ellipse fill="black" stroke="black" cx="136.8" cy="-239.4" rx="1.8" ry="1.8"/>
</g>
<!-- 90&#45;&#45;100 -->
<g id="edge90" class="edge"><title>90&#45;&#45;100</title>
<path fill="none" stroke="black" d="M136.8,-277.071C136.8,-272.004 136.8,-247.728 136.8,-241.738"/>
</g>
<!-- 77 -->
<g id="node83" class="node"><title>77</title>
<ellipse fill="black" stroke="black" cx="92.8" cy="-199.8" rx="1.8" ry="1.8"/>
</g>
<!-- 80&#45;&#45;77 -->
<g id="edge79" class="edge"><title>80&#45;&#45;77</title>
<path fill="none" stroke="black" d="M114.256,-237.471C111.186,-232.223 96.0588,-206.37 93.2494,-201.568"/>
</g>
<!-- 79 -->
<g id="node84" class="node"><title>79</title>
<ellipse fill="black" stroke="black" cx="114.8" cy="-199.8" rx="1.8" ry="1.8"/>
</g>
<!-- 80&#45;&#45;79 -->
<g id="edge80" class="edge"><title>80&#45;&#45;79</title>
<path fill="none" stroke="black" d="M114.8,-237.471C114.8,-232.404 114.8,-208.128 114.8,-202.138"/>
</g>
<!-- 84 -->
<g id="node86" class="node"><title>84</title>
<ellipse fill="black" stroke="black" cx="202.8" cy="-239.4" rx="1.8" ry="1.8"/>
</g>
<!-- 94&#45;&#45;84 -->
<g id="edge93" class="edge"><title>94&#45;&#45;84</title>
<path fill="none" stroke="black" d="M202.8,-277.071C202.8,-272.004 202.8,-247.728 202.8,-241.738"/>
</g>
<!-- 98 -->
<g id="node96" class="node"><title>98</title>
<ellipse fill="black" stroke="black" cx="224.8" cy="-239.4" rx="1.8" ry="1.8"/>
</g>
<!-- 94&#45;&#45;98 -->
<g id="edge94" class="edge"><title>94&#45;&#45;98</title>
<path fill="none" stroke="black" d="M203.344,-277.071C206.414,-271.823 221.541,-245.97 224.351,-241.168"/>
</g>
<!-- 81 -->
<g id="node87" class="node"><title>81</title>
<ellipse fill="black" stroke="black" cx="180.8" cy="-199.8" rx="1.8" ry="1.8"/>
</g>
<!-- 84&#45;&#45;81 -->
<g id="edge83" class="edge"><title>84&#45;&#45;81</title>
<path fill="none" stroke="black" d="M202.256,-237.471C199.186,-232.223 184.059,-206.37 181.249,-201.568"/>
</g>
<!-- 83 -->
<g id="node88" class="node"><title>83</title>
<ellipse fill="black" stroke="black" cx="202.8" cy="-199.8" rx="1.8" ry="1.8"/>
</g>
<!-- 84&#45;&#45;83 -->
<g id="edge84" class="edge"><title>84&#45;&#45;83</title>
<path fill="none" stroke="black" d="M202.8,-237.471C202.8,-232.404 202.8,-208.128 202.8,-202.138"/>
</g>
<!-- 85 -->
<g id="node90" class="node"><title>85</title>
<ellipse fill="black" stroke="black" cx="334.8" cy="-120.6" rx="1.8" ry="1.8"/>
</g>
<!-- 88&#45;&#45;85 -->
<g id="edge87" class="edge"><title>88&#45;&#45;85</title>
<path fill="none" stroke="black" d="M334.8,-158.271C334.8,-153.204 334.8,-128.928 334.8,-122.938"/>
</g>
<!-- 87 -->
<g id="node91" class="node"><title>87</title>
<ellipse fill="black" stroke="black" cx="356.8" cy="-120.6" rx="1.8" ry="1.8"/>
</g>
<!-- 88&#45;&#45;87 -->
<g id="edge88" class="edge"><title>88&#45;&#45;87</title>
<path fill="none" stroke="black" d="M335.344,-158.271C338.414,-153.023 353.541,-127.17 356.351,-122.368"/>
</g>
<!-- 92 -->
<g id="node93" class="node"><title>92</title>
<ellipse fill="black" stroke="black" cx="136.8" cy="-199.8" rx="1.8" ry="1.8"/>
</g>
<!-- 100&#45;&#45;92 -->
<g id="edge99" class="edge"><title>100&#45;&#45;92</title>
<path fill="none" stroke="black" d="M136.8,-237.471C136.8,-232.404 136.8,-208.128 136.8,-202.138"/>
</g>
<!-- 102 -->
<g id="node102" class="node"><title>102</title>
<ellipse fill="black" stroke="black" cx="158.8" cy="-199.8" rx="1.8" ry="1.8"/>
</g>
<!-- 100&#45;&#45;102 -->
<g id="edge100" class="edge"><title>100&#45;&#45;102</title>
<path fill="none" stroke="black" d="M137.344,-237.471C140.414,-232.223 155.541,-206.37 158.351,-201.568"/>
</g>
<!-- 89 -->
<g id="node94" class="node"><title>89</title>
<ellipse fill="black" stroke="black" cx="114.8" cy="-160.2" rx="1.8" ry="1.8"/>
</g>
<!-- 92&#45;&#45;89 -->
<g id="edge91" class="edge"><title>92&#45;&#45;89</title>
<path fill="none" stroke="black" d="M136.256,-197.871C133.186,-192.623 118.059,-166.77 115.249,-161.968"/>
</g>
<!-- 91 -->
<g id="node95" class="node"><title>91</title>
<ellipse fill="black" stroke="black" cx="136.8" cy="-160.2" rx="1.8" ry="1.8"/>
</g>
<!-- 92&#45;&#45;91 -->
<g id="edge92" class="edge"><title>92&#45;&#45;91</title>
<path fill="none" stroke="black" d="M136.8,-197.871C136.8,-192.804 136.8,-168.528 136.8,-162.538"/>
</g>
<!-- 108 -->
<g id="node100" class="node"><title>108</title>
<ellipse fill="black" stroke="black" cx="224.8" cy="-199.8" rx="1.8" ry="1.8"/>
</g>
<!-- 98&#45;&#45;108 -->
<g id="edge97" class="edge"><title>98&#45;&#45;108</title>
<path fill="none" stroke="black" d="M224.8,-237.471C224.8,-232.404 224.8,-208.128 224.8,-202.138"/>
</g>
<!-- 97 -->
<g id="node101" class="node"><title>97</title>
<ellipse fill="black" stroke="black" cx="246.8" cy="-199.8" rx="1.8" ry="1.8"/>
</g>
<!-- 98&#45;&#45;97 -->
<g id="edge98" class="edge"><title>98&#45;&#45;97</title>
<path fill="none" stroke="black" d="M225.344,-237.471C228.414,-232.223 243.541,-206.37 246.351,-201.568"/>
</g>
<!-- 96 -->
<g id="node97" class="node"><title>96</title>
<ellipse fill="black" stroke="black" cx="180.8" cy="-120.6" rx="1.8" ry="1.8"/>
</g>
<!-- 93 -->
<g id="node98" class="node"><title>93</title>
<ellipse fill="black" stroke="black" cx="158.8" cy="-81" rx="1.8" ry="1.8"/>
</g>
<!-- 96&#45;&#45;93 -->
<g id="edge95" class="edge"><title>96&#45;&#45;93</title>
<path fill="none" stroke="black" d="M180.256,-118.671C177.186,-113.423 162.059,-87.5696 159.249,-82.7681"/>
</g>
<!-- 95 -->
<g id="node99" class="node"><title>95</title>
<ellipse fill="black" stroke="black" cx="180.8" cy="-81" rx="1.8" ry="1.8"/>
</g>
<!-- 96&#45;&#45;95 -->
<g id="edge96" class="edge"><title>96&#45;&#45;95</title>
<path fill="none" stroke="black" d="M180.8,-118.671C180.8,-113.604 180.8,-89.3281 180.8,-83.3382"/>
</g>
<!-- 104 -->
<g id="node105" class="node"><title>104</title>
<ellipse fill="black" stroke="black" cx="202.8" cy="-160.2" rx="1.8" ry="1.8"/>
</g>
<!-- 108&#45;&#45;104 -->
<g id="edge107" class="edge"><title>108&#45;&#45;104</title>
<path fill="none" stroke="black" d="M224.256,-197.871C221.186,-192.623 206.059,-166.77 203.249,-161.968"/>
</g>
<!-- 112 -->
<g id="node109" class="node"><title>112</title>
<ellipse fill="black" stroke="black" cx="246.8" cy="-160.2" rx="1.8" ry="1.8"/>
</g>
<!-- 108&#45;&#45;112 -->
<g id="edge108" class="edge"><title>108&#45;&#45;112</title>
<path fill="none" stroke="black" d="M225.344,-197.871C228.414,-192.623 243.541,-166.77 246.351,-161.968"/>
</g>
<!-- 99 -->
<g id="node103" class="node"><title>99</title>
<ellipse fill="black" stroke="black" cx="158.8" cy="-160.2" rx="1.8" ry="1.8"/>
</g>
<!-- 102&#45;&#45;99 -->
<g id="edge101" class="edge"><title>102&#45;&#45;99</title>
<path fill="none" stroke="black" d="M158.8,-197.871C158.8,-192.804 158.8,-168.528 158.8,-162.538"/>
</g>
<!-- 101 -->
<g id="node104" class="node"><title>101</title>
<ellipse fill="black" stroke="black" cx="180.8" cy="-160.2" rx="1.8" ry="1.8"/>
</g>
<!-- 102&#45;&#45;101 -->
<g id="edge102" class="edge"><title>102&#45;&#45;101</title>
<path fill="none" stroke="black" d="M159.344,-197.871C162.414,-192.623 177.541,-166.77 180.351,-161.968"/>
</g>
<!-- 104&#45;&#45;96 -->
<g id="edge103" class="edge"><title>104&#45;&#45;96</title>
<path fill="none" stroke="black" d="M202.256,-158.271C199.186,-153.023 184.059,-127.17 181.249,-122.368"/>
</g>
<!-- 106 -->
<g id="node106" class="node"><title>106</title>
<ellipse fill="black" stroke="black" cx="202.8" cy="-120.6" rx="1.8" ry="1.8"/>
</g>
<!-- 104&#45;&#45;106 -->
<g id="edge104" class="edge"><title>104&#45;&#45;106</title>
<path fill="none" stroke="black" d="M202.8,-158.271C202.8,-153.204 202.8,-128.928 202.8,-122.938"/>
</g>
<!-- 103 -->
<g id="node107" class="node"><title>103</title>
<ellipse fill="black" stroke="black" cx="202.8" cy="-81" rx="1.8" ry="1.8"/>
</g>
<!-- 106&#45;&#45;103 -->
<g id="edge105" class="edge"><title>106&#45;&#45;103</title>
<path fill="none" stroke="black" d="M202.8,-118.671C202.8,-113.604 202.8,-89.3281 202.8,-83.3382"/>
</g>
<!-- 105 -->
<g id="node108" class="node"><title>105</title>
<ellipse fill="black" stroke="black" cx="224.8" cy="-81" rx="1.8" ry="1.8"/>
</g>
<!-- 106&#45;&#45;105 -->
<g id="edge106" class="edge"><title>106&#45;&#45;105</title>
<path fill="none" stroke="black" d="M203.344,-118.671C206.414,-113.423 221.541,-87.5696 224.351,-82.7681"/>
</g>
<!-- 114 -->
<g id="node113" class="node"><title>114</title>
<ellipse fill="black" stroke="black" cx="246.8" cy="-120.6" rx="1.8" ry="1.8"/>
</g>
<!-- 112&#45;&#45;114 -->
<g id="edge111" class="edge"><title>112&#45;&#45;114</title>
<path fill="none" stroke="black" d="M246.8,-158.271C246.8,-153.204 246.8,-128.928 246.8,-122.938"/>
</g>
<!-- 111 -->
<g id="node114" class="node"><title>111</title>
<ellipse fill="black" stroke="black" cx="268.8" cy="-120.6" rx="1.8" ry="1.8"/>
</g>
<!-- 112&#45;&#45;111 -->
<g id="edge112" class="edge"><title>112&#45;&#45;111</title>
<path fill="none" stroke="black" d="M247.344,-158.271C250.414,-153.023 265.541,-127.17 268.351,-122.368"/>
</g>
<!-- 110 -->
<g id="node110" class="node"><title>110</title>
<ellipse fill="black" stroke="black" cx="246.8" cy="-81" rx="1.8" ry="1.8"/>
</g>
<!-- 107 -->
<g id="node111" class="node"><title>107</title>
<ellipse fill="black" stroke="black" cx="224.8" cy="-41.4" rx="1.8" ry="1.8"/>
</g>
<!-- 110&#45;&#45;107 -->
<g id="edge109" class="edge"><title>110&#45;&#45;107</title>
<path fill="none" stroke="black" d="M246.256,-79.0706C243.186,-73.8233 228.059,-47.9696 225.249,-43.1681"/>
</g>
<!-- 109 -->
<g id="node112" class="node"><title>109</title>
<ellipse fill="black" stroke="black" cx="246.8" cy="-41.4" rx="1.8" ry="1.8"/>
</g>
<!-- 110&#45;&#45;109 -->
<g id="edge110" class="edge"><title>110&#45;&#45;109</title>
<path fill="none" stroke="black" d="M246.8,-79.0706C246.8,-74.0042 246.8,-49.7281 246.8,-43.7382"/>
</g>
<!-- 114&#45;&#45;110 -->
<g id="edge113" class="edge"><title>114&#45;&#45;110</title>
<path fill="none" stroke="black" d="M246.8,-118.671C246.8,-113.604 246.8,-89.3281 246.8,-83.3382"/>
</g>
<!-- 118 -->
<g id="node115" class="node"><title>118</title>
<ellipse fill="black" stroke="black" cx="268.8" cy="-81" rx="1.8" ry="1.8"/>
</g>
<!-- 114&#45;&#45;118 -->
<g id="edge114" class="edge"><title>114&#45;&#45;118</title>
<path fill="none" stroke="black" d="M247.344,-118.671C250.414,-113.423 265.541,-87.5696 268.351,-82.7681"/>
</g>
<!-- 116 -->
<g id="node116" class="node"><title>116</title>
<ellipse fill="black" stroke="black" cx="268.8" cy="-41.4" rx="1.8" ry="1.8"/>
</g>
<!-- 118&#45;&#45;116 -->
<g id="edge117" class="edge"><title>118&#45;&#45;116</title>
<path fill="none" stroke="black" d="M268.8,-79.0706C268.8,-74.0042 268.8,-49.7281 268.8,-43.7382"/>
</g>
<!-- 117 -->
<g id="node119" class="node"><title>117</title>
<ellipse fill="black" stroke="black" cx="290.8" cy="-41.4" rx="1.8" ry="1.8"/>
</g>
<!-- 118&#45;&#45;117 -->
<g id="edge118" class="edge"><title>118&#45;&#45;117</title>
<path fill="none" stroke="black" d="M269.344,-79.0706C272.414,-73.8233 287.541,-47.9696 290.351,-43.1681"/>
</g>
<!-- 113 -->
<g id="node117" class="node"><title>113</title>
<ellipse fill="black" stroke="black" cx="257.8" cy="-1.8" rx="1.8" ry="1.8"/>
</g>
<!-- 116&#45;&#45;113 -->
<g id="edge115" class="edge"><title>116&#45;&#45;113</title>
<path fill="none" stroke="black" d="M268.528,-39.4706C267.046,-34.4042 259.944,-10.1281 258.191,-4.1382"/>
</g>
<!-- 115 -->
<g id="node118" class="node"><title>115</title>
<ellipse fill="black" stroke="black" cx="279.8" cy="-1.8" rx="1.8" ry="1.8"/>
</g>
<!-- 116&#45;&#45;115 -->
<g id="edge116" class="edge"><title>116&#45;&#45;115</title>
<path fill="none" stroke="black" d="M269.072,-39.4706C270.554,-34.4042 277.656,-10.1281 279.409,-4.1382"/>
</g>
<!-- 128 -->
<g id="node120" class="node"><title>128</title>
<polygon fill="none" stroke="black" points="226.8,-590.4 120.8,-590.4 120.8,-554.4 226.8,-554.4 226.8,-590.4"/>
<text text-anchor="middle" x="173.8" y="-568.7" font-family="Times New Roman,serif" font-size="14.00">inner area = 136</text>
</g>
</g>
</svg>
