<?xml version="1.0" encoding="UTF-8" standalone="no"?>
<!DOCTYPE svg PUBLIC "-//W3C//DTD SVG 1.1//EN"
 "http://www.w3.org/Graphics/SVG/1.1/DTD/svg11.dtd">
<!-- Generated by graphviz version 7.1.0 (20230121.1956)
 -->
<!-- Pages: 1 -->
<svg width="148pt" height="162pt"
 viewBox="0.00 0.00 147.50 162.00" xmlns="http://www.w3.org/2000/svg" xmlns:xlink="http://www.w3.org/1999/xlink">
<g id="graph0" class="graph" transform="scale(1 1) rotate(0) translate(4 158)">
<polygon fill="white" stroke="none" points="-4,4 -4,-158 143.5,-158 143.5,4 -4,4"/>
<!-- 0 -->
<g id="node1" class="node">
<title>0</title>
<polygon fill="none" stroke="black" points="44,-23 18,-23 18,0 44,0 44,-23"/>
<text text-anchor="middle" x="31" y="-7.8" font-family="Times New Roman,serif" font-size="14.00">A</text>
</g>
<!-- 1 -->
<g id="node2" class="node">
<title>1</title>
<polygon fill="none" stroke="black" points="88,-23 62,-23 62,0 88,0 88,-23"/>
<text text-anchor="middle" x="75" y="-7.8" font-family="Times New Roman,serif" font-size="14.00">B</text>
</g>
<!-- 2 -->
<g id="node3" class="node">
<title>2</title>
<ellipse fill="none" stroke="black" cx="33" cy="-136" rx="9" ry="9"/>
</g>
<!-- 3 -->
<g id="node4" class="node">
<title>3</title>
<polygon fill="none" stroke="black" points="26,-82 0,-82 0,-59 26,-59 26,-82"/>
<text text-anchor="middle" x="13" y="-66.8" font-family="Times New Roman,serif" font-size="14.00">C</text>
</g>
<!-- 2&#45;&#45;3 -->
<g id="edge2" class="edge">
<title>2&#45;&#45;3</title>
<path fill="none" stroke="black" d="M30.47,-126.96C26.89,-115.61 20.36,-94.88 16.38,-82.23"/>
</g>
<!-- 4 -->
<g id="node5" class="node">
<title>4</title>
<ellipse fill="none" stroke="black" cx="53" cy="-70.5" rx="9" ry="9"/>
</g>
<!-- 2&#45;&#45;4 -->
<g id="edge1" class="edge">
<title>2&#45;&#45;4</title>
<path fill="none" stroke="black" d="M35.53,-126.96C39.4,-114.68 46.73,-91.4 50.55,-79.28"/>
</g>
<!-- 4&#45;&#45;0 -->
<g id="edge3" class="edge">
<title>4&#45;&#45;0</title>
<path fill="none" stroke="black" d="M49.94,-61.57C46.12,-51.66 39.55,-34.64 35.24,-23.48"/>
</g>
<!-- 4&#45;&#45;1 -->
<g id="edge4" class="edge">
<title>4&#45;&#45;1</title>
<path fill="none" stroke="black" d="M56.06,-61.57C59.88,-51.66 66.45,-34.64 70.76,-23.48"/>
</g>
<!-- 16 -->
<g id="node6" class="node">
<title>16</title>
<polygon fill="none" stroke="black" points="139.5,-154 60.5,-154 60.5,-118 139.5,-118 139.5,-154"/>
<text text-anchor="middle" x="100" y="-133.5" font-family="Times New Roman,serif" font-size="10.00">area ratio = 0.28</text>
</g>
</g>
</svg>
