<?xml version="1.0" encoding="UTF-8" standalone="no"?>
<!DOCTYPE svg PUBLIC "-//W3C//DTD SVG 1.1//EN"
 "http://www.w3.org/Graphics/SVG/1.1/DTD/svg11.dtd">
<!-- Generated by graphviz version 2.38.0 (20140413.2041)
 -->
<!-- Title: %3 Pages: 1 -->
<svg width="902pt" height="396pt"
 viewBox="0.00 0.00 902.00 395.68" xmlns="http://www.w3.org/2000/svg" xmlns:xlink="http://www.w3.org/1999/xlink">
<g id="graph0" class="graph" transform="scale(1 1) rotate(0) translate(4 391.682)">
<title>%3</title>
<polygon fill="white" stroke="none" points="-4,4 -4,-391.682 897.997,-391.682 897.997,4 -4,4"/>
<!-- 0 -->
<g id="node1" class="node"><title>0</title>
<ellipse fill="black" stroke="black" cx="12.4983" cy="-1.8" rx="1.8" ry="1.8"/>
</g>
<!-- 1 -->
<g id="node2" class="node"><title>1</title>
<ellipse fill="black" stroke="black" cx="34.4983" cy="-1.8" rx="1.8" ry="1.8"/>
</g>
<!-- 2 -->
<g id="node3" class="node"><title>2</title>
<ellipse fill="none" stroke="black" cx="446.498" cy="-363.634" rx="24.0958" ry="24.0958"/>
<text text-anchor="middle" x="446.498" y="-359.934" font-family="Times New Roman,serif" font-size="14.00">130</text>
</g>
<!-- 18 -->
<g id="node19" class="node"><title>18</title>
<ellipse fill="none" stroke="black" cx="332.498" cy="-284.088" rx="19.4965" ry="19.4965"/>
<text text-anchor="middle" x="332.498" y="-280.388" font-family="Times New Roman,serif" font-size="14.00">66</text>
</g>
<!-- 2&#45;&#45;18 -->
<g id="edge1" class="edge"><title>2&#45;&#45;18</title>
<path fill="none" stroke="black" d="M426.901,-349.303C404.62,-334.147 368.687,-309.704 348.178,-295.754"/>
</g>
<!-- 34 -->
<g id="node35" class="node"><title>34</title>
<ellipse fill="none" stroke="black" cx="560.498" cy="-284.088" rx="19.4965" ry="19.4965"/>
<text text-anchor="middle" x="560.498" y="-280.388" font-family="Times New Roman,serif" font-size="14.00">66</text>
</g>
<!-- 2&#45;&#45;34 -->
<g id="edge2" class="edge"><title>2&#45;&#45;34</title>
<path fill="none" stroke="black" d="M466.003,-348.928C470.43,-345.84 475.118,-342.589 479.498,-339.586 502.005,-324.157 528.24,-306.579 544.612,-295.658"/>
</g>
<!-- 3 -->
<g id="node4" class="node"><title>3</title>
<ellipse fill="black" stroke="black" cx="61.4983" cy="-1.8" rx="1.8" ry="1.8"/>
</g>
<!-- 4 -->
<g id="node5" class="node"><title>4</title>
<ellipse fill="none" stroke="black" cx="19.4983" cy="-59.0983" rx="19.4965" ry="19.4965"/>
<text text-anchor="middle" x="19.4983" y="-55.3983" font-family="Times New Roman,serif" font-size="14.00">10</text>
</g>
<!-- 4&#45;&#45;0 -->
<g id="edge4" class="edge"><title>4&#45;&#45;0</title>
<path fill="none" stroke="black" d="M17.1674,-39.6847C15.3856,-25.6092 13.1471,-7.92598 12.6154,-3.7251"/>
</g>
<!-- 4&#45;&#45;1 -->
<g id="edge3" class="edge"><title>4&#45;&#45;1</title>
<path fill="none" stroke="black" d="M24.4098,-39.9915C28.2376,-25.8802 33.0907,-7.98892 34.2442,-3.7366"/>
</g>
<!-- 5 -->
<g id="node6" class="node"><title>5</title>
<ellipse fill="black" stroke="black" cx="83.4983" cy="-1.8" rx="1.8" ry="1.8"/>
</g>
<!-- 6 -->
<g id="node7" class="node"><title>6</title>
<ellipse fill="none" stroke="black" cx="76.4983" cy="-134.095" rx="19.4965" ry="19.4965"/>
<text text-anchor="middle" x="76.4983" y="-130.395" font-family="Times New Roman,serif" font-size="14.00">18</text>
</g>
<!-- 6&#45;&#45;4 -->
<g id="edge5" class="edge"><title>6&#45;&#45;4</title>
<path fill="none" stroke="black" d="M64.9635,-118.323C55.0742,-105.658 40.9002,-87.5065 31.0159,-74.8482"/>
</g>
<!-- 8 -->
<g id="node9" class="node"><title>8</title>
<ellipse fill="none" stroke="black" cx="76.4983" cy="-59.0983" rx="19.4965" ry="19.4965"/>
<text text-anchor="middle" x="76.4983" y="-55.3983" font-family="Times New Roman,serif" font-size="14.00">10</text>
</g>
<!-- 6&#45;&#45;8 -->
<g id="edge6" class="edge"><title>6&#45;&#45;8</title>
<path fill="none" stroke="black" d="M76.4983,-114.296C76.4983,-103.398 76.4983,-89.7208 76.4983,-78.833"/>
</g>
<!-- 7 -->
<g id="node8" class="node"><title>7</title>
<ellipse fill="black" stroke="black" cx="124.498" cy="-1.8" rx="1.8" ry="1.8"/>
</g>
<!-- 8&#45;&#45;3 -->
<g id="edge8" class="edge"><title>8&#45;&#45;3</title>
<path fill="none" stroke="black" d="M71.5867,-39.9915C67.7589,-25.8802 62.9058,-7.98892 61.7523,-3.7366"/>
</g>
<!-- 8&#45;&#45;5 -->
<g id="edge7" class="edge"><title>8&#45;&#45;5</title>
<path fill="none" stroke="black" d="M78.8292,-39.6847C80.6109,-25.6092 82.8494,-7.92598 83.3812,-3.7251"/>
</g>
<!-- 9 -->
<g id="node10" class="node"><title>9</title>
<ellipse fill="black" stroke="black" cx="146.498" cy="-1.8" rx="1.8" ry="1.8"/>
</g>
<!-- 10 -->
<g id="node11" class="node"><title>10</title>
<ellipse fill="none" stroke="black" cx="162.498" cy="-209.091" rx="19.4965" ry="19.4965"/>
<text text-anchor="middle" x="162.498" y="-205.391" font-family="Times New Roman,serif" font-size="14.00">34</text>
</g>
<!-- 10&#45;&#45;6 -->
<g id="edge10" class="edge"><title>10&#45;&#45;6</title>
<path fill="none" stroke="black" d="M147.91,-195.708C131.999,-182.204 106.696,-160.727 90.8715,-147.295"/>
</g>
<!-- 14 -->
<g id="node15" class="node"><title>14</title>
<ellipse fill="none" stroke="black" cx="162.498" cy="-134.095" rx="19.4965" ry="19.4965"/>
<text text-anchor="middle" x="162.498" y="-130.395" font-family="Times New Roman,serif" font-size="14.00">18</text>
</g>
<!-- 10&#45;&#45;14 -->
<g id="edge9" class="edge"><title>10&#45;&#45;14</title>
<path fill="none" stroke="black" d="M162.498,-189.293C162.498,-178.394 162.498,-164.717 162.498,-153.83"/>
</g>
<!-- 11 -->
<g id="node12" class="node"><title>11</title>
<ellipse fill="black" stroke="black" cx="174.498" cy="-1.8" rx="1.8" ry="1.8"/>
</g>
<!-- 12 -->
<g id="node13" class="node"><title>12</title>
<ellipse fill="none" stroke="black" cx="133.498" cy="-59.0983" rx="19.4965" ry="19.4965"/>
<text text-anchor="middle" x="133.498" y="-55.3983" font-family="Times New Roman,serif" font-size="14.00">10</text>
</g>
<!-- 12&#45;&#45;7 -->
<g id="edge12" class="edge"><title>12&#45;&#45;7</title>
<path fill="none" stroke="black" d="M130.501,-39.6847C128.211,-25.6092 125.333,-7.92598 124.649,-3.7251"/>
</g>
<!-- 12&#45;&#45;9 -->
<g id="edge11" class="edge"><title>12&#45;&#45;9</title>
<path fill="none" stroke="black" d="M137.755,-39.9915C141.072,-25.8802 145.278,-7.98892 146.278,-3.7366"/>
</g>
<!-- 13 -->
<g id="node14" class="node"><title>13</title>
<ellipse fill="black" stroke="black" cx="196.498" cy="-1.8" rx="1.8" ry="1.8"/>
</g>
<!-- 14&#45;&#45;12 -->
<g id="edge13" class="edge"><title>14&#45;&#45;12</title>
<path fill="none" stroke="black" d="M155.626,-115.796C151.036,-104.244 145.022,-89.1047 140.422,-77.5262"/>
</g>
<!-- 16 -->
<g id="node17" class="node"><title>16</title>
<ellipse fill="none" stroke="black" cx="190.498" cy="-59.0983" rx="19.4965" ry="19.4965"/>
<text text-anchor="middle" x="190.498" y="-55.3983" font-family="Times New Roman,serif" font-size="14.00">10</text>
</g>
<!-- 14&#45;&#45;16 -->
<g id="edge14" class="edge"><title>14&#45;&#45;16</title>
<path fill="none" stroke="black" d="M169.276,-115.424C173.679,-103.948 179.393,-89.0503 183.783,-77.606"/>
</g>
<!-- 15 -->
<g id="node16" class="node"><title>15</title>
<ellipse fill="black" stroke="black" cx="236.498" cy="-1.8" rx="1.8" ry="1.8"/>
</g>
<!-- 16&#45;&#45;11 -->
<g id="edge16" class="edge"><title>16&#45;&#45;11</title>
<path fill="none" stroke="black" d="M185.259,-39.9915C181.176,-25.8802 176,-7.98892 174.769,-3.7366"/>
</g>
<!-- 16&#45;&#45;13 -->
<g id="edge15" class="edge"><title>16&#45;&#45;13</title>
<path fill="none" stroke="black" d="M192.496,-39.6847C194.023,-25.6092 195.942,-7.92598 196.398,-3.7251"/>
</g>
<!-- 17 -->
<g id="node18" class="node"><title>17</title>
<ellipse fill="black" stroke="black" cx="258.498" cy="-1.8" rx="1.8" ry="1.8"/>
</g>
<!-- 18&#45;&#45;10 -->
<g id="edge17" class="edge"><title>18&#45;&#45;10</title>
<path fill="none" stroke="black" d="M314.946,-275.551C282.37,-261.563 212.906,-231.736 180.21,-217.697"/>
</g>
<!-- 26 -->
<g id="node27" class="node"><title>26</title>
<ellipse fill="none" stroke="black" cx="332.498" cy="-209.091" rx="19.4965" ry="19.4965"/>
<text text-anchor="middle" x="332.498" y="-205.391" font-family="Times New Roman,serif" font-size="14.00">34</text>
</g>
<!-- 18&#45;&#45;26 -->
<g id="edge18" class="edge"><title>18&#45;&#45;26</title>
<path fill="none" stroke="black" d="M332.498,-264.289C332.498,-253.391 332.498,-239.714 332.498,-228.826"/>
</g>
<!-- 19 -->
<g id="node20" class="node"><title>19</title>
<ellipse fill="black" stroke="black" cx="299.498" cy="-1.8" rx="1.8" ry="1.8"/>
</g>
<!-- 20 -->
<g id="node21" class="node"><title>20</title>
<ellipse fill="none" stroke="black" cx="247.498" cy="-59.0983" rx="19.4965" ry="19.4965"/>
<text text-anchor="middle" x="247.498" y="-55.3983" font-family="Times New Roman,serif" font-size="14.00">10</text>
</g>
<!-- 20&#45;&#45;15 -->
<g id="edge20" class="edge"><title>20&#45;&#45;15</title>
<path fill="none" stroke="black" d="M243.835,-39.6847C241.036,-25.6092 237.518,-7.92598 236.682,-3.7251"/>
</g>
<!-- 20&#45;&#45;17 -->
<g id="edge19" class="edge"><title>20&#45;&#45;17</title>
<path fill="none" stroke="black" d="M251.161,-39.6847C253.961,-25.6092 257.479,-7.92598 258.314,-3.7251"/>
</g>
<!-- 21 -->
<g id="node22" class="node"><title>21</title>
<ellipse fill="black" stroke="black" cx="321.498" cy="-1.8" rx="1.8" ry="1.8"/>
</g>
<!-- 22 -->
<g id="node23" class="node"><title>22</title>
<ellipse fill="none" stroke="black" cx="304.498" cy="-134.095" rx="19.4965" ry="19.4965"/>
<text text-anchor="middle" x="304.498" y="-130.395" font-family="Times New Roman,serif" font-size="14.00">18</text>
</g>
<!-- 22&#45;&#45;20 -->
<g id="edge21" class="edge"><title>22&#45;&#45;20</title>
<path fill="none" stroke="black" d="M292.963,-118.323C283.074,-105.658 268.9,-87.5065 259.016,-74.8482"/>
</g>
<!-- 24 -->
<g id="node25" class="node"><title>24</title>
<ellipse fill="none" stroke="black" cx="304.498" cy="-59.0983" rx="19.4965" ry="19.4965"/>
<text text-anchor="middle" x="304.498" y="-55.3983" font-family="Times New Roman,serif" font-size="14.00">10</text>
</g>
<!-- 22&#45;&#45;24 -->
<g id="edge22" class="edge"><title>22&#45;&#45;24</title>
<path fill="none" stroke="black" d="M304.498,-114.296C304.498,-103.398 304.498,-89.7208 304.498,-78.833"/>
</g>
<!-- 23 -->
<g id="node24" class="node"><title>23</title>
<ellipse fill="black" stroke="black" cx="345.498" cy="-1.8" rx="1.8" ry="1.8"/>
</g>
<!-- 24&#45;&#45;19 -->
<g id="edge24" class="edge"><title>24&#45;&#45;19</title>
<path fill="none" stroke="black" d="M302.805,-39.3768C301.536,-25.3396 299.956,-7.8634 299.581,-3.71367"/>
</g>
<!-- 24&#45;&#45;21 -->
<g id="edge23" class="edge"><title>24&#45;&#45;21</title>
<path fill="none" stroke="black" d="M309.971,-40.2972C314.319,-26.1524 319.884,-8.05221 321.207,-3.74817"/>
</g>
<!-- 25 -->
<g id="node26" class="node"><title>25</title>
<ellipse fill="black" stroke="black" cx="367.498" cy="-1.8" rx="1.8" ry="1.8"/>
</g>
<!-- 26&#45;&#45;22 -->
<g id="edge26" class="edge"><title>26&#45;&#45;22</title>
<path fill="none" stroke="black" d="M325.72,-190.421C321.318,-178.944 315.604,-164.047 311.214,-152.603"/>
</g>
<!-- 30 -->
<g id="node31" class="node"><title>30</title>
<ellipse fill="none" stroke="black" cx="361.498" cy="-134.095" rx="19.4965" ry="19.4965"/>
<text text-anchor="middle" x="361.498" y="-130.395" font-family="Times New Roman,serif" font-size="14.00">18</text>
</g>
<!-- 26&#45;&#45;30 -->
<g id="edge25" class="edge"><title>26&#45;&#45;30</title>
<path fill="none" stroke="black" d="M339.371,-190.792C343.96,-179.24 349.975,-164.101 354.575,-152.523"/>
</g>
<!-- 27 -->
<g id="node28" class="node"><title>27</title>
<ellipse fill="black" stroke="black" cx="402.498" cy="-1.8" rx="1.8" ry="1.8"/>
</g>
<!-- 28 -->
<g id="node29" class="node"><title>28</title>
<ellipse fill="none" stroke="black" cx="361.498" cy="-59.0983" rx="19.4965" ry="19.4965"/>
<text text-anchor="middle" x="361.498" y="-55.3983" font-family="Times New Roman,serif" font-size="14.00">10</text>
</g>
<!-- 28&#45;&#45;23 -->
<g id="edge28" class="edge"><title>28&#45;&#45;23</title>
<path fill="none" stroke="black" d="M356.259,-39.9915C352.176,-25.8802 347,-7.98892 345.769,-3.7366"/>
</g>
<!-- 28&#45;&#45;25 -->
<g id="edge27" class="edge"><title>28&#45;&#45;25</title>
<path fill="none" stroke="black" d="M363.496,-39.6847C365.023,-25.6092 366.942,-7.92598 367.398,-3.7251"/>
</g>
<!-- 29 -->
<g id="node30" class="node"><title>29</title>
<ellipse fill="black" stroke="black" cx="424.498" cy="-1.8" rx="1.8" ry="1.8"/>
</g>
<!-- 30&#45;&#45;28 -->
<g id="edge29" class="edge"><title>30&#45;&#45;28</title>
<path fill="none" stroke="black" d="M361.498,-114.296C361.498,-103.398 361.498,-89.7208 361.498,-78.833"/>
</g>
<!-- 32 -->
<g id="node33" class="node"><title>32</title>
<ellipse fill="none" stroke="black" cx="418.498" cy="-59.0983" rx="19.4965" ry="19.4965"/>
<text text-anchor="middle" x="418.498" y="-55.3983" font-family="Times New Roman,serif" font-size="14.00">10</text>
</g>
<!-- 30&#45;&#45;32 -->
<g id="edge30" class="edge"><title>30&#45;&#45;32</title>
<path fill="none" stroke="black" d="M373.033,-118.323C382.922,-105.658 397.096,-87.5065 406.981,-74.8482"/>
</g>
<!-- 31 -->
<g id="node32" class="node"><title>31</title>
<ellipse fill="black" stroke="black" cx="459.498" cy="-1.8" rx="1.8" ry="1.8"/>
</g>
<!-- 32&#45;&#45;27 -->
<g id="edge32" class="edge"><title>32&#45;&#45;27</title>
<path fill="none" stroke="black" d="M413.259,-39.9915C409.176,-25.8802 404,-7.98892 402.769,-3.7366"/>
</g>
<!-- 32&#45;&#45;29 -->
<g id="edge31" class="edge"><title>32&#45;&#45;29</title>
<path fill="none" stroke="black" d="M420.496,-39.6847C422.023,-25.6092 423.942,-7.92598 424.398,-3.7251"/>
</g>
<!-- 33 -->
<g id="node34" class="node"><title>33</title>
<ellipse fill="black" stroke="black" cx="481.498" cy="-1.8" rx="1.8" ry="1.8"/>
</g>
<!-- 42 -->
<g id="node43" class="node"><title>42</title>
<ellipse fill="none" stroke="black" cx="560.498" cy="-209.091" rx="19.4965" ry="19.4965"/>
<text text-anchor="middle" x="560.498" y="-205.391" font-family="Times New Roman,serif" font-size="14.00">34</text>
</g>
<!-- 34&#45;&#45;42 -->
<g id="edge34" class="edge"><title>34&#45;&#45;42</title>
<path fill="none" stroke="black" d="M560.498,-264.289C560.498,-253.391 560.498,-239.714 560.498,-228.826"/>
</g>
<!-- 50 -->
<g id="node51" class="node"><title>50</title>
<ellipse fill="none" stroke="black" cx="731.498" cy="-209.091" rx="19.4965" ry="19.4965"/>
<text text-anchor="middle" x="731.498" y="-205.391" font-family="Times New Roman,serif" font-size="14.00">34</text>
</g>
<!-- 34&#45;&#45;50 -->
<g id="edge33" class="edge"><title>34&#45;&#45;50</title>
<path fill="none" stroke="black" d="M578.154,-275.551C611.007,-261.527 681.158,-231.581 713.938,-217.587"/>
</g>
<!-- 35 -->
<g id="node36" class="node"><title>35</title>
<ellipse fill="black" stroke="black" cx="521.498" cy="-1.8" rx="1.8" ry="1.8"/>
</g>
<!-- 36 -->
<g id="node37" class="node"><title>36</title>
<ellipse fill="none" stroke="black" cx="475.498" cy="-59.0983" rx="19.4965" ry="19.4965"/>
<text text-anchor="middle" x="475.498" y="-55.3983" font-family="Times New Roman,serif" font-size="14.00">10</text>
</g>
<!-- 36&#45;&#45;31 -->
<g id="edge36" class="edge"><title>36&#45;&#45;31</title>
<path fill="none" stroke="black" d="M470.259,-39.9915C466.176,-25.8802 461,-7.98892 459.769,-3.7366"/>
</g>
<!-- 36&#45;&#45;33 -->
<g id="edge35" class="edge"><title>36&#45;&#45;33</title>
<path fill="none" stroke="black" d="M477.496,-39.6847C479.023,-25.6092 480.942,-7.92598 481.398,-3.7251"/>
</g>
<!-- 37 -->
<g id="node38" class="node"><title>37</title>
<ellipse fill="black" stroke="black" cx="543.498" cy="-1.8" rx="1.8" ry="1.8"/>
</g>
<!-- 38 -->
<g id="node39" class="node"><title>38</title>
<ellipse fill="none" stroke="black" cx="532.498" cy="-134.095" rx="19.4965" ry="19.4965"/>
<text text-anchor="middle" x="532.498" y="-130.395" font-family="Times New Roman,serif" font-size="14.00">18</text>
</g>
<!-- 38&#45;&#45;36 -->
<g id="edge37" class="edge"><title>38&#45;&#45;36</title>
<path fill="none" stroke="black" d="M520.963,-118.323C511.074,-105.658 496.9,-87.5065 487.016,-74.8482"/>
</g>
<!-- 40 -->
<g id="node41" class="node"><title>40</title>
<ellipse fill="none" stroke="black" cx="532.498" cy="-59.0983" rx="19.4965" ry="19.4965"/>
<text text-anchor="middle" x="532.498" y="-55.3983" font-family="Times New Roman,serif" font-size="14.00">10</text>
</g>
<!-- 38&#45;&#45;40 -->
<g id="edge38" class="edge"><title>38&#45;&#45;40</title>
<path fill="none" stroke="black" d="M532.498,-114.296C532.498,-103.398 532.498,-89.7208 532.498,-78.833"/>
</g>
<!-- 39 -->
<g id="node40" class="node"><title>39</title>
<ellipse fill="black" stroke="black" cx="582.498" cy="-1.8" rx="1.8" ry="1.8"/>
</g>
<!-- 40&#45;&#45;35 -->
<g id="edge40" class="edge"><title>40&#45;&#45;35</title>
<path fill="none" stroke="black" d="M528.835,-39.6847C526.036,-25.6092 522.518,-7.92598 521.682,-3.7251"/>
</g>
<!-- 40&#45;&#45;37 -->
<g id="edge39" class="edge"><title>40&#45;&#45;37</title>
<path fill="none" stroke="black" d="M536.161,-39.6847C538.961,-25.6092 542.479,-7.92598 543.314,-3.7251"/>
</g>
<!-- 41 -->
<g id="node42" class="node"><title>41</title>
<ellipse fill="black" stroke="black" cx="604.498" cy="-1.8" rx="1.8" ry="1.8"/>
</g>
<!-- 42&#45;&#45;38 -->
<g id="edge42" class="edge"><title>42&#45;&#45;38</title>
<path fill="none" stroke="black" d="M553.72,-190.421C549.318,-178.944 543.604,-164.047 539.214,-152.603"/>
</g>
<!-- 46 -->
<g id="node47" class="node"><title>46</title>
<ellipse fill="none" stroke="black" cx="589.498" cy="-134.095" rx="19.4965" ry="19.4965"/>
<text text-anchor="middle" x="589.498" y="-130.395" font-family="Times New Roman,serif" font-size="14.00">18</text>
</g>
<!-- 42&#45;&#45;46 -->
<g id="edge41" class="edge"><title>42&#45;&#45;46</title>
<path fill="none" stroke="black" d="M567.371,-190.792C571.96,-179.24 577.975,-164.101 582.575,-152.523"/>
</g>
<!-- 43 -->
<g id="node44" class="node"><title>43</title>
<ellipse fill="black" stroke="black" cx="632.498" cy="-1.8" rx="1.8" ry="1.8"/>
</g>
<!-- 44 -->
<g id="node45" class="node"><title>44</title>
<ellipse fill="none" stroke="black" cx="589.498" cy="-59.0983" rx="19.4965" ry="19.4965"/>
<text text-anchor="middle" x="589.498" y="-55.3983" font-family="Times New Roman,serif" font-size="14.00">10</text>
</g>
<!-- 44&#45;&#45;39 -->
<g id="edge44" class="edge"><title>44&#45;&#45;39</title>
<path fill="none" stroke="black" d="M587.167,-39.6847C585.386,-25.6092 583.147,-7.92598 582.615,-3.7251"/>
</g>
<!-- 44&#45;&#45;41 -->
<g id="edge43" class="edge"><title>44&#45;&#45;41</title>
<path fill="none" stroke="black" d="M594.41,-39.9915C598.238,-25.8802 603.091,-7.98892 604.244,-3.7366"/>
</g>
<!-- 45 -->
<g id="node46" class="node"><title>45</title>
<ellipse fill="black" stroke="black" cx="654.498" cy="-1.8" rx="1.8" ry="1.8"/>
</g>
<!-- 46&#45;&#45;44 -->
<g id="edge45" class="edge"><title>46&#45;&#45;44</title>
<path fill="none" stroke="black" d="M589.498,-114.296C589.498,-103.398 589.498,-89.7208 589.498,-78.833"/>
</g>
<!-- 48 -->
<g id="node49" class="node"><title>48</title>
<ellipse fill="none" stroke="black" cx="646.498" cy="-59.0983" rx="19.4965" ry="19.4965"/>
<text text-anchor="middle" x="646.498" y="-55.3983" font-family="Times New Roman,serif" font-size="14.00">10</text>
</g>
<!-- 46&#45;&#45;48 -->
<g id="edge46" class="edge"><title>46&#45;&#45;48</title>
<path fill="none" stroke="black" d="M601.033,-118.323C610.922,-105.658 625.096,-87.5065 634.981,-74.8482"/>
</g>
<!-- 47 -->
<g id="node48" class="node"><title>47</title>
<ellipse fill="black" stroke="black" cx="696.498" cy="-1.8" rx="1.8" ry="1.8"/>
</g>
<!-- 48&#45;&#45;43 -->
<g id="edge48" class="edge"><title>48&#45;&#45;43</title>
<path fill="none" stroke="black" d="M641.914,-39.9915C638.342,-25.8802 633.812,-7.98892 632.735,-3.7366"/>
</g>
<!-- 48&#45;&#45;45 -->
<g id="edge47" class="edge"><title>48&#45;&#45;45</title>
<path fill="none" stroke="black" d="M649.162,-39.6847C651.198,-25.6092 653.757,-7.92598 654.364,-3.7251"/>
</g>
<!-- 49 -->
<g id="node50" class="node"><title>49</title>
<ellipse fill="black" stroke="black" cx="718.498" cy="-1.8" rx="1.8" ry="1.8"/>
</g>
<!-- 54 -->
<g id="node55" class="node"><title>54</title>
<ellipse fill="none" stroke="black" cx="731.498" cy="-134.095" rx="19.4965" ry="19.4965"/>
<text text-anchor="middle" x="731.498" y="-130.395" font-family="Times New Roman,serif" font-size="14.00">18</text>
</g>
<!-- 50&#45;&#45;54 -->
<g id="edge49" class="edge"><title>50&#45;&#45;54</title>
<path fill="none" stroke="black" d="M731.498,-189.293C731.498,-178.394 731.498,-164.717 731.498,-153.83"/>
</g>
<!-- 58 -->
<g id="node59" class="node"><title>58</title>
<ellipse fill="none" stroke="black" cx="817.498" cy="-134.095" rx="19.4965" ry="19.4965"/>
<text text-anchor="middle" x="817.498" y="-130.395" font-family="Times New Roman,serif" font-size="14.00">18</text>
</g>
<!-- 50&#45;&#45;58 -->
<g id="edge50" class="edge"><title>50&#45;&#45;58</title>
<path fill="none" stroke="black" d="M746.087,-195.708C761.997,-182.204 787.3,-160.727 803.125,-147.295"/>
</g>
<!-- 51 -->
<g id="node52" class="node"><title>51</title>
<ellipse fill="black" stroke="black" cx="746.498" cy="-1.8" rx="1.8" ry="1.8"/>
</g>
<!-- 52 -->
<g id="node53" class="node"><title>52</title>
<ellipse fill="none" stroke="black" cx="703.498" cy="-59.0983" rx="19.4965" ry="19.4965"/>
<text text-anchor="middle" x="703.498" y="-55.3983" font-family="Times New Roman,serif" font-size="14.00">10</text>
</g>
<!-- 52&#45;&#45;47 -->
<g id="edge52" class="edge"><title>52&#45;&#45;47</title>
<path fill="none" stroke="black" d="M701.167,-39.6847C699.386,-25.6092 697.147,-7.92598 696.615,-3.7251"/>
</g>
<!-- 52&#45;&#45;49 -->
<g id="edge51" class="edge"><title>52&#45;&#45;49</title>
<path fill="none" stroke="black" d="M708.41,-39.9915C712.238,-25.8802 717.091,-7.98892 718.244,-3.7366"/>
</g>
<!-- 53 -->
<g id="node54" class="node"><title>53</title>
<ellipse fill="black" stroke="black" cx="768.498" cy="-1.8" rx="1.8" ry="1.8"/>
</g>
<!-- 54&#45;&#45;52 -->
<g id="edge53" class="edge"><title>54&#45;&#45;52</title>
<path fill="none" stroke="black" d="M724.72,-115.424C720.318,-103.948 714.604,-89.0503 710.214,-77.606"/>
</g>
<!-- 56 -->
<g id="node57" class="node"><title>56</title>
<ellipse fill="none" stroke="black" cx="760.498" cy="-59.0983" rx="19.4965" ry="19.4965"/>
<text text-anchor="middle" x="760.498" y="-55.3983" font-family="Times New Roman,serif" font-size="14.00">10</text>
</g>
<!-- 54&#45;&#45;56 -->
<g id="edge54" class="edge"><title>54&#45;&#45;56</title>
<path fill="none" stroke="black" d="M738.371,-115.796C742.96,-104.244 748.975,-89.1047 753.575,-77.5262"/>
</g>
<!-- 55 -->
<g id="node56" class="node"><title>55</title>
<ellipse fill="black" stroke="black" cx="804.498" cy="-1.8" rx="1.8" ry="1.8"/>
</g>
<!-- 56&#45;&#45;51 -->
<g id="edge56" class="edge"><title>56&#45;&#45;51</title>
<path fill="none" stroke="black" d="M755.914,-39.9915C752.342,-25.8802 747.812,-7.98892 746.735,-3.7366"/>
</g>
<!-- 56&#45;&#45;53 -->
<g id="edge55" class="edge"><title>56&#45;&#45;53</title>
<path fill="none" stroke="black" d="M763.162,-39.6847C765.198,-25.6092 767.757,-7.92598 768.364,-3.7251"/>
</g>
<!-- 57 -->
<g id="node58" class="node"><title>57</title>
<ellipse fill="black" stroke="black" cx="826.498" cy="-1.8" rx="1.8" ry="1.8"/>
</g>
<!-- 60 -->
<g id="node61" class="node"><title>60</title>
<ellipse fill="none" stroke="black" cx="817.498" cy="-59.0983" rx="19.4965" ry="19.4965"/>
<text text-anchor="middle" x="817.498" y="-55.3983" font-family="Times New Roman,serif" font-size="14.00">10</text>
</g>
<!-- 58&#45;&#45;60 -->
<g id="edge58" class="edge"><title>58&#45;&#45;60</title>
<path fill="none" stroke="black" d="M817.498,-114.296C817.498,-103.398 817.498,-89.7208 817.498,-78.833"/>
</g>
<!-- 62 -->
<g id="node63" class="node"><title>62</title>
<ellipse fill="none" stroke="black" cx="874.498" cy="-59.0983" rx="19.4965" ry="19.4965"/>
<text text-anchor="middle" x="874.498" y="-55.3983" font-family="Times New Roman,serif" font-size="14.00">10</text>
</g>
<!-- 58&#45;&#45;62 -->
<g id="edge57" class="edge"><title>58&#45;&#45;62</title>
<path fill="none" stroke="black" d="M829.033,-118.323C838.922,-105.658 853.096,-87.5065 862.981,-74.8482"/>
</g>
<!-- 59 -->
<g id="node60" class="node"><title>59</title>
<ellipse fill="black" stroke="black" cx="856.498" cy="-1.8" rx="1.8" ry="1.8"/>
</g>
<!-- 60&#45;&#45;55 -->
<g id="edge60" class="edge"><title>60&#45;&#45;55</title>
<path fill="none" stroke="black" d="M813.242,-39.9915C809.924,-25.8802 805.718,-7.98892 804.718,-3.7366"/>
</g>
<!-- 60&#45;&#45;57 -->
<g id="edge59" class="edge"><title>60&#45;&#45;57</title>
<path fill="none" stroke="black" d="M820.495,-39.6847C822.786,-25.6092 825.664,-7.92598 826.348,-3.7251"/>
</g>
<!-- 61 -->
<g id="node62" class="node"><title>61</title>
<ellipse fill="black" stroke="black" cx="878.498" cy="-1.8" rx="1.8" ry="1.8"/>
</g>
<!-- 62&#45;&#45;59 -->
<g id="edge61" class="edge"><title>62&#45;&#45;59</title>
<path fill="none" stroke="black" d="M868.704,-40.2972C864.1,-26.1524 858.208,-8.05221 856.807,-3.74817"/>
</g>
<!-- 62&#45;&#45;61 -->
<g id="edge62" class="edge"><title>62&#45;&#45;61</title>
<path fill="none" stroke="black" d="M875.852,-39.3768C876.868,-25.3396 878.132,-7.8634 878.432,-3.71367"/>
</g>
<!-- 64 -->
<g id="node64" class="node"><title>64</title>
<polygon fill="none" stroke="black" points="556.498,-381.634 488.498,-381.634 488.498,-345.634 556.498,-345.634 556.498,-381.634"/>
<text text-anchor="middle" x="522.498" y="-361.134" font-family="Times New Roman,serif" font-size="10.00">area ratio = 4</text>
</g>
</g>
</svg>
