<?xml version="1.0" encoding="UTF-8" standalone="no"?>
<!DOCTYPE svg PUBLIC "-//W3C//DTD SVG 1.1//EN"
 "http://www.w3.org/Graphics/SVG/1.1/DTD/svg11.dtd">
<!-- Generated by graphviz version 2.38.0 (20140413.2041)
 -->
<!-- Title: %3 Pages: 1 -->
<svg width="342pt" height="211pt"
 viewBox="0.00 0.00 342.00 211.00" xmlns="http://www.w3.org/2000/svg" xmlns:xlink="http://www.w3.org/1999/xlink">
<g id="graph0" class="graph" transform="scale(1 1) rotate(0) translate(4 207)">
<title>%3</title>
<polygon fill="white" stroke="none" points="-4,4 -4,-207 338,-207 338,4 -4,4"/>
<!-- 0 -->
<g id="node1" class="node"><title>0</title>
<polygon fill="none" stroke="black" points="26,-23 0,-23 0,-0 26,-0 26,-23"/>
<text text-anchor="middle" x="13" y="-7.8" font-family="Times New Roman,serif" font-size="14.00">A</text>
</g>
<!-- 1 -->
<g id="node2" class="node"><title>1</title>
<polygon fill="none" stroke="black" points="70,-23 44,-23 44,-0 70,-0 70,-23"/>
<text text-anchor="middle" x="57" y="-7.8" font-family="Times New Roman,serif" font-size="14.00">B</text>
</g>
<!-- 2 -->
<g id="node3" class="node"><title>2</title>
<ellipse fill="none" stroke="black" cx="167" cy="-185" rx="9" ry="9"/>
</g>
<!-- 6 -->
<g id="node7" class="node"><title>6</title>
<ellipse fill="none" stroke="black" cx="123" cy="-122" rx="9" ry="9"/>
</g>
<!-- 2&#45;&#45;6 -->
<g id="edge1" class="edge"><title>2&#45;&#45;6</title>
<path fill="none" stroke="black" d="M161.953,-177.003C153.465,-165.236 136.436,-141.628 127.988,-129.916"/>
</g>
<!-- 10 -->
<g id="node11" class="node"><title>10</title>
<ellipse fill="none" stroke="black" cx="210" cy="-122" rx="9" ry="9"/>
</g>
<!-- 2&#45;&#45;10 -->
<g id="edge2" class="edge"><title>2&#45;&#45;10</title>
<path fill="none" stroke="black" d="M171.933,-177.003C180.227,-165.236 196.869,-141.628 205.125,-129.916"/>
</g>
<!-- 3 -->
<g id="node4" class="node"><title>3</title>
<polygon fill="none" stroke="black" points="114,-23 88,-23 88,-0 114,-0 114,-23"/>
<text text-anchor="middle" x="101" y="-7.8" font-family="Times New Roman,serif" font-size="14.00">C</text>
</g>
<!-- 4 -->
<g id="node5" class="node"><title>4</title>
<ellipse fill="none" stroke="black" cx="57" cy="-68" rx="9" ry="9"/>
</g>
<!-- 4&#45;&#45;0 -->
<g id="edge4" class="edge"><title>4&#45;&#45;0</title>
<path fill="none" stroke="black" d="M51.6047,-60.3172C44.1697,-51.1079 30.6853,-34.4056 21.7851,-23.3816"/>
</g>
<!-- 4&#45;&#45;1 -->
<g id="edge3" class="edge"><title>4&#45;&#45;1</title>
<path fill="none" stroke="black" d="M57,-58.9583C57,-49.4833 57,-33.7043 57,-23.2024"/>
</g>
<!-- 5 -->
<g id="node6" class="node"><title>5</title>
<polygon fill="none" stroke="black" points="158,-23 132,-23 132,-0 158,-0 158,-23"/>
<text text-anchor="middle" x="145" y="-7.8" font-family="Times New Roman,serif" font-size="14.00">D</text>
</g>
<!-- 6&#45;&#45;4 -->
<g id="edge5" class="edge"><title>6&#45;&#45;4</title>
<path fill="none" stroke="black" d="M116.43,-115.824C103.91,-105.959 76.7406,-84.5532 63.9384,-74.4666"/>
</g>
<!-- 8 -->
<g id="node9" class="node"><title>8</title>
<ellipse fill="none" stroke="black" cx="123" cy="-68" rx="9" ry="9"/>
</g>
<!-- 6&#45;&#45;8 -->
<g id="edge6" class="edge"><title>6&#45;&#45;8</title>
<path fill="none" stroke="black" d="M123,-112.875C123,-103.163 123,-87.0019 123,-77.2396"/>
</g>
<!-- 7 -->
<g id="node8" class="node"><title>7</title>
<polygon fill="none" stroke="black" points="201.5,-23 176.5,-23 176.5,-0 201.5,-0 201.5,-23"/>
<text text-anchor="middle" x="189" y="-7.8" font-family="Times New Roman,serif" font-size="14.00">E</text>
</g>
<!-- 8&#45;&#45;3 -->
<g id="edge8" class="edge"><title>8&#45;&#45;3</title>
<path fill="none" stroke="black" d="M119.941,-59.422C116.116,-49.9456 109.547,-33.6728 105.239,-23.0001"/>
</g>
<!-- 8&#45;&#45;5 -->
<g id="edge7" class="edge"><title>8&#45;&#45;5</title>
<path fill="none" stroke="black" d="M126.059,-59.422C129.884,-49.9456 136.453,-33.6728 140.761,-23.0001"/>
</g>
<!-- 9 -->
<g id="node10" class="node"><title>9</title>
<polygon fill="none" stroke="black" points="244.5,-23 219.5,-23 219.5,-0 244.5,-0 244.5,-23"/>
<text text-anchor="middle" x="232" y="-7.8" font-family="Times New Roman,serif" font-size="14.00">F</text>
</g>
<!-- 12 -->
<g id="node13" class="node"><title>12</title>
<ellipse fill="none" stroke="black" cx="210" cy="-68" rx="9" ry="9"/>
</g>
<!-- 10&#45;&#45;12 -->
<g id="edge10" class="edge"><title>10&#45;&#45;12</title>
<path fill="none" stroke="black" d="M210,-112.875C210,-103.163 210,-87.0019 210,-77.2396"/>
</g>
<!-- 14 -->
<g id="node15" class="node"><title>14</title>
<ellipse fill="none" stroke="black" cx="276" cy="-68" rx="9" ry="9"/>
</g>
<!-- 10&#45;&#45;14 -->
<g id="edge9" class="edge"><title>10&#45;&#45;14</title>
<path fill="none" stroke="black" d="M216.57,-115.824C229.09,-105.959 256.259,-84.5532 269.062,-74.4666"/>
</g>
<!-- 11 -->
<g id="node12" class="node"><title>11</title>
<polygon fill="none" stroke="black" points="289.5,-23 262.5,-23 262.5,-0 289.5,-0 289.5,-23"/>
<text text-anchor="middle" x="276" y="-7.8" font-family="Times New Roman,serif" font-size="14.00">G</text>
</g>
<!-- 12&#45;&#45;7 -->
<g id="edge12" class="edge"><title>12&#45;&#45;7</title>
<path fill="none" stroke="black" d="M207.08,-59.422C203.429,-49.9456 197.158,-33.6728 193.046,-23.0001"/>
</g>
<!-- 12&#45;&#45;9 -->
<g id="edge11" class="edge"><title>12&#45;&#45;9</title>
<path fill="none" stroke="black" d="M213.059,-59.422C216.884,-49.9456 223.453,-33.6728 227.761,-23.0001"/>
</g>
<!-- 13 -->
<g id="node14" class="node"><title>13</title>
<polygon fill="none" stroke="black" points="334,-23 308,-23 308,-0 334,-0 334,-23"/>
<text text-anchor="middle" x="321" y="-7.8" font-family="Times New Roman,serif" font-size="14.00">H</text>
</g>
<!-- 14&#45;&#45;11 -->
<g id="edge13" class="edge"><title>14&#45;&#45;11</title>
<path fill="none" stroke="black" d="M276,-58.9583C276,-49.4833 276,-33.7043 276,-23.2024"/>
</g>
<!-- 14&#45;&#45;13 -->
<g id="edge14" class="edge"><title>14&#45;&#45;13</title>
<path fill="none" stroke="black" d="M281.518,-60.3172C289.122,-51.1079 302.913,-34.4056 312.015,-23.3816"/>
</g>
<!-- 16 -->
<g id="node16" class="node"><title>16</title>
<polygon fill="none" stroke="black" points="273.5,-203 194.5,-203 194.5,-167 273.5,-167 273.5,-203"/>
<text text-anchor="middle" x="234" y="-182.5" font-family="Times New Roman,serif" font-size="10.00">area ratio = 2.24</text>
</g>
</g>
</svg>
