<?xml version="1.0" encoding="UTF-8" standalone="no"?>
<!DOCTYPE svg PUBLIC "-//W3C//DTD SVG 1.1//EN"
 "http://www.w3.org/Graphics/SVG/1.1/DTD/svg11.dtd">
<!-- Generated by graphviz version 2.38.0 (20140413.2041)
 -->
<!-- Title: %3 Pages: 1 -->
<svg width="197pt" height="457pt"
 viewBox="0.00 0.00 197.00 457.00" xmlns="http://www.w3.org/2000/svg" xmlns:xlink="http://www.w3.org/1999/xlink">
<g id="graph0" class="graph" transform="scale(1 1) rotate(0) translate(4 453)">
<title>%3</title>
<polygon fill="white" stroke="none" points="-4,4 -4,-453 193,-453 193,4 -4,4"/>
<!-- 0 -->
<g id="node1" class="node"><title>0</title>
<polygon fill="none" stroke="black" points="26,-377 0,-377 0,-354 26,-354 26,-377"/>
<text text-anchor="middle" x="13" y="-361.8" font-family="Times New Roman,serif" font-size="14.00">A</text>
</g>
<!-- 1 -->
<g id="node2" class="node"><title>1</title>
<polygon fill="none" stroke="black" points="46,-318 20,-318 20,-295 46,-295 46,-318"/>
<text text-anchor="middle" x="33" y="-302.8" font-family="Times New Roman,serif" font-size="14.00">B</text>
</g>
<!-- 2 -->
<g id="node3" class="node"><title>2</title>
<ellipse fill="none" stroke="black" cx="33" cy="-431" rx="9" ry="9"/>
</g>
<!-- 2&#45;&#45;0 -->
<g id="edge1" class="edge"><title>2&#45;&#45;0</title>
<path fill="none" stroke="black" d="M30.5476,-422.214C27.0011,-410.954 20.4267,-390.08 16.4097,-377.326"/>
</g>
<!-- 4 -->
<g id="node5" class="node"><title>4</title>
<ellipse fill="none" stroke="black" cx="53" cy="-365.5" rx="9" ry="9"/>
</g>
<!-- 2&#45;&#45;4 -->
<g id="edge2" class="edge"><title>2&#45;&#45;4</title>
<path fill="none" stroke="black" d="M35.4524,-422.214C39.2909,-410.026 46.6767,-386.577 50.5275,-374.35"/>
</g>
<!-- 3 -->
<g id="node4" class="node"><title>3</title>
<polygon fill="none" stroke="black" points="66,-259 40,-259 40,-236 66,-236 66,-259"/>
<text text-anchor="middle" x="53" y="-243.8" font-family="Times New Roman,serif" font-size="14.00">C</text>
</g>
<!-- 4&#45;&#45;1 -->
<g id="edge3" class="edge"><title>4&#45;&#45;1</title>
<path fill="none" stroke="black" d="M50.2191,-356.574C46.6986,-346.541 40.622,-329.223 36.7091,-318.071"/>
</g>
<!-- 6 -->
<g id="node7" class="node"><title>6</title>
<ellipse fill="none" stroke="black" cx="73" cy="-306.5" rx="9" ry="9"/>
</g>
<!-- 4&#45;&#45;6 -->
<g id="edge4" class="edge"><title>4&#45;&#45;6</title>
<path fill="none" stroke="black" d="M55.7809,-356.574C59.602,-345.684 66.4341,-326.213 70.2427,-315.358"/>
</g>
<!-- 5 -->
<g id="node6" class="node"><title>5</title>
<polygon fill="none" stroke="black" points="86,-200 60,-200 60,-177 86,-177 86,-200"/>
<text text-anchor="middle" x="73" y="-184.8" font-family="Times New Roman,serif" font-size="14.00">D</text>
</g>
<!-- 6&#45;&#45;3 -->
<g id="edge5" class="edge"><title>6&#45;&#45;3</title>
<path fill="none" stroke="black" d="M70.2191,-297.574C66.6986,-287.541 60.622,-270.223 56.7091,-259.071"/>
</g>
<!-- 8 -->
<g id="node9" class="node"><title>8</title>
<ellipse fill="none" stroke="black" cx="93" cy="-247.5" rx="9" ry="9"/>
</g>
<!-- 6&#45;&#45;8 -->
<g id="edge6" class="edge"><title>6&#45;&#45;8</title>
<path fill="none" stroke="black" d="M75.7809,-297.574C79.602,-286.684 86.4341,-267.213 90.2427,-256.358"/>
</g>
<!-- 7 -->
<g id="node8" class="node"><title>7</title>
<polygon fill="none" stroke="black" points="105.5,-141 80.5,-141 80.5,-118 105.5,-118 105.5,-141"/>
<text text-anchor="middle" x="93" y="-125.8" font-family="Times New Roman,serif" font-size="14.00">E</text>
</g>
<!-- 8&#45;&#45;5 -->
<g id="edge7" class="edge"><title>8&#45;&#45;5</title>
<path fill="none" stroke="black" d="M90.2191,-238.574C86.6986,-228.541 80.622,-211.223 76.7091,-200.071"/>
</g>
<!-- 10 -->
<g id="node11" class="node"><title>10</title>
<ellipse fill="none" stroke="black" cx="113" cy="-188.5" rx="9" ry="9"/>
</g>
<!-- 8&#45;&#45;10 -->
<g id="edge8" class="edge"><title>8&#45;&#45;10</title>
<path fill="none" stroke="black" d="M95.7809,-238.574C99.602,-227.684 106.434,-208.213 110.243,-197.358"/>
</g>
<!-- 9 -->
<g id="node10" class="node"><title>9</title>
<polygon fill="none" stroke="black" points="125.5,-82 100.5,-82 100.5,-59 125.5,-59 125.5,-82"/>
<text text-anchor="middle" x="113" y="-66.8" font-family="Times New Roman,serif" font-size="14.00">F</text>
</g>
<!-- 10&#45;&#45;7 -->
<g id="edge9" class="edge"><title>10&#45;&#45;7</title>
<path fill="none" stroke="black" d="M110.219,-179.574C106.699,-169.541 100.622,-152.223 96.7091,-141.071"/>
</g>
<!-- 12 -->
<g id="node13" class="node"><title>12</title>
<ellipse fill="none" stroke="black" cx="133" cy="-129.5" rx="9" ry="9"/>
</g>
<!-- 10&#45;&#45;12 -->
<g id="edge10" class="edge"><title>10&#45;&#45;12</title>
<path fill="none" stroke="black" d="M115.781,-179.574C119.602,-168.684 126.434,-149.213 130.243,-138.358"/>
</g>
<!-- 11 -->
<g id="node12" class="node"><title>11</title>
<polygon fill="none" stroke="black" points="144.5,-23 117.5,-23 117.5,-0 144.5,-0 144.5,-23"/>
<text text-anchor="middle" x="131" y="-7.8" font-family="Times New Roman,serif" font-size="14.00">G</text>
</g>
<!-- 12&#45;&#45;9 -->
<g id="edge11" class="edge"><title>12&#45;&#45;9</title>
<path fill="none" stroke="black" d="M130.219,-120.574C126.699,-110.541 120.622,-93.2227 116.709,-82.071"/>
</g>
<!-- 14 -->
<g id="node15" class="node"><title>14</title>
<ellipse fill="none" stroke="black" cx="153" cy="-70.5" rx="9" ry="9"/>
</g>
<!-- 12&#45;&#45;14 -->
<g id="edge12" class="edge"><title>12&#45;&#45;14</title>
<path fill="none" stroke="black" d="M135.781,-120.574C139.602,-109.684 146.434,-90.2128 150.243,-79.3583"/>
</g>
<!-- 13 -->
<g id="node14" class="node"><title>13</title>
<polygon fill="none" stroke="black" points="189,-23 163,-23 163,-0 189,-0 189,-23"/>
<text text-anchor="middle" x="176" y="-7.8" font-family="Times New Roman,serif" font-size="14.00">H</text>
</g>
<!-- 14&#45;&#45;11 -->
<g id="edge13" class="edge"><title>14&#45;&#45;11</title>
<path fill="none" stroke="black" d="M149.941,-61.5744C146.068,-51.5409 139.384,-34.2227 135.08,-23.071"/>
</g>
<!-- 14&#45;&#45;13 -->
<g id="edge14" class="edge"><title>14&#45;&#45;13</title>
<path fill="none" stroke="black" d="M156.198,-61.5744C160.247,-51.5409 167.235,-34.2227 171.735,-23.071"/>
</g>
<!-- 16 -->
<g id="node16" class="node"><title>16</title>
<polygon fill="none" stroke="black" points="139.5,-449 60.5,-449 60.5,-413 139.5,-413 139.5,-449"/>
<text text-anchor="middle" x="100" y="-428.5" font-family="Times New Roman,serif" font-size="10.00">area ratio = 3.53</text>
</g>
</g>
</svg>
