<?xml version="1.0" encoding="UTF-8" standalone="no"?>
<!DOCTYPE svg PUBLIC "-//W3C//DTD SVG 1.1//EN"
 "http://www.w3.org/Graphics/SVG/1.1/DTD/svg11.dtd">
<!-- Generated by graphviz version 2.38.0 (20140413.2041)
 -->
<!-- Title: %3 Pages: 1 -->
<svg width="831pt" height="361pt"
 viewBox="0.00 0.00 830.60 360.80" xmlns="http://www.w3.org/2000/svg" xmlns:xlink="http://www.w3.org/1999/xlink">
<g id="graph0" class="graph" transform="scale(1 1) rotate(0) translate(4 356.8)">
<title>%3</title>
<polygon fill="white" stroke="none" points="-4,4 -4,-356.8 826.6,-356.8 826.6,4 -4,4"/>
<!-- 2 -->
<g id="node1" class="node"><title>2</title>
<ellipse fill="black" stroke="black" cx="553.8" cy="-334.8" rx="1.8" ry="1.8"/>
</g>
<!-- 12 -->
<g id="node2" class="node"><title>12</title>
<ellipse fill="black" stroke="black" cx="474.8" cy="-279" rx="1.8" ry="1.8"/>
</g>
<!-- 2&#45;&#45;12 -->
<g id="edge1" class="edge"><title>2&#45;&#45;12</title>
<path fill="none" stroke="black" d="M552.913,-333.196C544.844,-327.701 484.264,-286.445 475.785,-280.67"/>
</g>
<!-- 84 -->
<g id="node3" class="node"><title>84</title>
<ellipse fill="black" stroke="black" cx="633.8" cy="-279" rx="1.8" ry="1.8"/>
</g>
<!-- 2&#45;&#45;84 -->
<g id="edge2" class="edge"><title>2&#45;&#45;84</title>
<path fill="none" stroke="black" d="M554.247,-332.753C555.519,-329.878 559.416,-321.748 564.8,-316.8 587.591,-295.854 624.517,-283.028 632.322,-280.473"/>
</g>
<!-- 64 -->
<g id="node16" class="node"><title>64</title>
<ellipse fill="black" stroke="black" cx="243.8" cy="-239.4" rx="1.8" ry="1.8"/>
</g>
<!-- 12&#45;&#45;64 -->
<g id="edge11" class="edge"><title>12&#45;&#45;64</title>
<path fill="none" stroke="black" d="M473.325,-277.76C454.574,-274.708 263.056,-243.534 245.142,-240.618"/>
</g>
<!-- 18 -->
<g id="node17" class="node"><title>18</title>
<ellipse fill="black" stroke="black" cx="474.8" cy="-239.4" rx="1.8" ry="1.8"/>
</g>
<!-- 12&#45;&#45;18 -->
<g id="edge12" class="edge"><title>12&#45;&#45;18</title>
<path fill="none" stroke="black" d="M474.8,-277.071C474.8,-272.004 474.8,-247.728 474.8,-241.738"/>
</g>
<!-- 106 -->
<g id="node86" class="node"><title>106</title>
<ellipse fill="black" stroke="black" cx="633.8" cy="-239.4" rx="1.8" ry="1.8"/>
</g>
<!-- 84&#45;&#45;106 -->
<g id="edge83" class="edge"><title>84&#45;&#45;106</title>
<path fill="none" stroke="black" d="M633.8,-277.071C633.8,-272.004 633.8,-247.728 633.8,-241.738"/>
</g>
<!-- 100 -->
<g id="node87" class="node"><title>100</title>
<ellipse fill="black" stroke="black" cx="710.8" cy="-239.4" rx="1.8" ry="1.8"/>
</g>
<!-- 84&#45;&#45;100 -->
<g id="edge84" class="edge"><title>84&#45;&#45;100</title>
<path fill="none" stroke="black" d="M634.888,-277.468C643.516,-273.255 700.75,-245.307 709.64,-240.966"/>
</g>
<!-- 4 -->
<g id="node4" class="node"><title>4</title>
<ellipse fill="black" stroke="black" cx="23.8" cy="-81" rx="1.8" ry="1.8"/>
</g>
<!-- 1 -->
<g id="node5" class="node"><title>1</title>
<ellipse fill="black" stroke="black" cx="1.8" cy="-41.4" rx="1.8" ry="1.8"/>
</g>
<!-- 4&#45;&#45;1 -->
<g id="edge3" class="edge"><title>4&#45;&#45;1</title>
<path fill="none" stroke="black" d="M23.2562,-79.0706C20.186,-73.8233 5.05879,-47.9696 2.24943,-43.1681"/>
</g>
<!-- 3 -->
<g id="node6" class="node"><title>3</title>
<ellipse fill="black" stroke="black" cx="23.8" cy="-41.4" rx="1.8" ry="1.8"/>
</g>
<!-- 4&#45;&#45;3 -->
<g id="edge4" class="edge"><title>4&#45;&#45;3</title>
<path fill="none" stroke="black" d="M23.8,-79.0706C23.8,-74.0042 23.8,-49.7281 23.8,-43.7382"/>
</g>
<!-- 6 -->
<g id="node7" class="node"><title>6</title>
<ellipse fill="black" stroke="black" cx="78.8" cy="-160.2" rx="1.8" ry="1.8"/>
</g>
<!-- 26 -->
<g id="node8" class="node"><title>26</title>
<ellipse fill="black" stroke="black" cx="45.8" cy="-120.6" rx="1.8" ry="1.8"/>
</g>
<!-- 6&#45;&#45;26 -->
<g id="edge5" class="edge"><title>6&#45;&#45;26</title>
<path fill="none" stroke="black" d="M77.9843,-158.271C73.379,-153.023 50.6882,-127.17 46.4741,-122.368"/>
</g>
<!-- 24 -->
<g id="node9" class="node"><title>24</title>
<ellipse fill="black" stroke="black" cx="78.8" cy="-120.6" rx="1.8" ry="1.8"/>
</g>
<!-- 6&#45;&#45;24 -->
<g id="edge6" class="edge"><title>6&#45;&#45;24</title>
<path fill="none" stroke="black" d="M78.8,-158.271C78.8,-153.204 78.8,-128.928 78.8,-122.938"/>
</g>
<!-- 26&#45;&#45;4 -->
<g id="edge25" class="edge"><title>26&#45;&#45;4</title>
<path fill="none" stroke="black" d="M45.2562,-118.671C42.186,-113.423 27.0588,-87.5696 24.2494,-82.7681"/>
</g>
<!-- 28 -->
<g id="node32" class="node"><title>28</title>
<ellipse fill="black" stroke="black" cx="45.8" cy="-81" rx="1.8" ry="1.8"/>
</g>
<!-- 26&#45;&#45;28 -->
<g id="edge26" class="edge"><title>26&#45;&#45;28</title>
<path fill="none" stroke="black" d="M45.8,-118.671C45.8,-113.604 45.8,-89.3281 45.8,-83.3382"/>
</g>
<!-- 0 -->
<g id="node30" class="node"><title>0</title>
<ellipse fill="black" stroke="black" cx="67.8" cy="-81" rx="1.8" ry="1.8"/>
</g>
<!-- 24&#45;&#45;0 -->
<g id="edge23" class="edge"><title>24&#45;&#45;0</title>
<path fill="none" stroke="black" d="M78.5281,-118.671C77.0459,-113.604 69.9439,-89.3281 68.1915,-83.3382"/>
</g>
<!-- 23 -->
<g id="node31" class="node"><title>23</title>
<ellipse fill="black" stroke="black" cx="89.8" cy="-81" rx="1.8" ry="1.8"/>
</g>
<!-- 24&#45;&#45;23 -->
<g id="edge24" class="edge"><title>24&#45;&#45;23</title>
<path fill="none" stroke="black" d="M79.0719,-118.671C80.5541,-113.604 87.6561,-89.3281 89.4085,-83.3382"/>
</g>
<!-- 8 -->
<g id="node10" class="node"><title>8</title>
<ellipse fill="black" stroke="black" cx="177.8" cy="-41.4" rx="1.8" ry="1.8"/>
</g>
<!-- 31 -->
<g id="node11" class="node"><title>31</title>
<ellipse fill="black" stroke="black" cx="155.8" cy="-1.8" rx="1.8" ry="1.8"/>
</g>
<!-- 8&#45;&#45;31 -->
<g id="edge7" class="edge"><title>8&#45;&#45;31</title>
<path fill="none" stroke="black" d="M177.256,-39.4706C174.186,-34.2233 159.059,-8.36957 156.249,-3.56811"/>
</g>
<!-- 7 -->
<g id="node12" class="node"><title>7</title>
<ellipse fill="black" stroke="black" cx="177.8" cy="-1.8" rx="1.8" ry="1.8"/>
</g>
<!-- 8&#45;&#45;7 -->
<g id="edge8" class="edge"><title>8&#45;&#45;7</title>
<path fill="none" stroke="black" d="M177.8,-39.4706C177.8,-34.4042 177.8,-10.1281 177.8,-4.1382"/>
</g>
<!-- 10 -->
<g id="node13" class="node"><title>10</title>
<ellipse fill="black" stroke="black" cx="144.8" cy="-160.2" rx="1.8" ry="1.8"/>
</g>
<!-- 54 -->
<g id="node14" class="node"><title>54</title>
<ellipse fill="black" stroke="black" cx="133.8" cy="-120.6" rx="1.8" ry="1.8"/>
</g>
<!-- 10&#45;&#45;54 -->
<g id="edge9" class="edge"><title>10&#45;&#45;54</title>
<path fill="none" stroke="black" d="M144.528,-158.271C143.046,-153.204 135.944,-128.928 134.191,-122.938"/>
</g>
<!-- 50 -->
<g id="node15" class="node"><title>50</title>
<ellipse fill="black" stroke="black" cx="155.8" cy="-120.6" rx="1.8" ry="1.8"/>
</g>
<!-- 10&#45;&#45;50 -->
<g id="edge10" class="edge"><title>10&#45;&#45;50</title>
<path fill="none" stroke="black" d="M145.072,-158.271C146.554,-153.204 153.656,-128.928 155.409,-122.938"/>
</g>
<!-- 52 -->
<g id="node56" class="node"><title>52</title>
<ellipse fill="black" stroke="black" cx="111.8" cy="-81" rx="1.8" ry="1.8"/>
</g>
<!-- 54&#45;&#45;52 -->
<g id="edge53" class="edge"><title>54&#45;&#45;52</title>
<path fill="none" stroke="black" d="M133.256,-118.671C130.186,-113.423 115.059,-87.5696 112.249,-82.7681"/>
</g>
<!-- 49 -->
<g id="node59" class="node"><title>49</title>
<ellipse fill="black" stroke="black" cx="133.8" cy="-81" rx="1.8" ry="1.8"/>
</g>
<!-- 54&#45;&#45;49 -->
<g id="edge54" class="edge"><title>54&#45;&#45;49</title>
<path fill="none" stroke="black" d="M133.8,-118.671C133.8,-113.604 133.8,-89.3281 133.8,-83.3382"/>
</g>
<!-- 30 -->
<g id="node35" class="node"><title>30</title>
<ellipse fill="black" stroke="black" cx="155.8" cy="-81" rx="1.8" ry="1.8"/>
</g>
<!-- 50&#45;&#45;30 -->
<g id="edge49" class="edge"><title>50&#45;&#45;30</title>
<path fill="none" stroke="black" d="M155.8,-118.671C155.8,-113.604 155.8,-89.3281 155.8,-83.3382"/>
</g>
<!-- 32 -->
<g id="node38" class="node"><title>32</title>
<ellipse fill="black" stroke="black" cx="177.8" cy="-81" rx="1.8" ry="1.8"/>
</g>
<!-- 50&#45;&#45;32 -->
<g id="edge50" class="edge"><title>50&#45;&#45;32</title>
<path fill="none" stroke="black" d="M156.344,-118.671C159.414,-113.423 174.541,-87.5696 177.351,-82.7681"/>
</g>
<!-- 48 -->
<g id="node55" class="node"><title>48</title>
<ellipse fill="black" stroke="black" cx="144.8" cy="-199.8" rx="1.8" ry="1.8"/>
</g>
<!-- 64&#45;&#45;48 -->
<g id="edge64" class="edge"><title>64&#45;&#45;48</title>
<path fill="none" stroke="black" d="M242.688,-237.978C232.576,-234.137 156.66,-205.304 146.034,-201.269"/>
</g>
<!-- 70 -->
<g id="node67" class="node"><title>70</title>
<ellipse fill="black" stroke="black" cx="243.8" cy="-199.8" rx="1.8" ry="1.8"/>
</g>
<!-- 64&#45;&#45;70 -->
<g id="edge63" class="edge"><title>64&#45;&#45;70</title>
<path fill="none" stroke="black" d="M243.8,-237.471C243.8,-232.404 243.8,-208.128 243.8,-202.138"/>
</g>
<!-- 16 -->
<g id="node21" class="node"><title>16</title>
<ellipse fill="black" stroke="black" cx="435.8" cy="-199.8" rx="1.8" ry="1.8"/>
</g>
<!-- 18&#45;&#45;16 -->
<g id="edge17" class="edge"><title>18&#45;&#45;16</title>
<path fill="none" stroke="black" d="M473.836,-237.471C468.393,-232.223 441.577,-206.37 436.597,-201.568"/>
</g>
<!-- 76 -->
<g id="node24" class="node"><title>76</title>
<ellipse fill="black" stroke="black" cx="501.8" cy="-199.8" rx="1.8" ry="1.8"/>
</g>
<!-- 18&#45;&#45;76 -->
<g id="edge18" class="edge"><title>18&#45;&#45;76</title>
<path fill="none" stroke="black" d="M475.467,-237.471C479.235,-232.223 497.801,-206.37 501.248,-201.568"/>
</g>
<!-- 14 -->
<g id="node18" class="node"><title>14</title>
<ellipse fill="black" stroke="black" cx="435.8" cy="-41.4" rx="1.8" ry="1.8"/>
</g>
<!-- 37 -->
<g id="node19" class="node"><title>37</title>
<ellipse fill="black" stroke="black" cx="413.8" cy="-1.8" rx="1.8" ry="1.8"/>
</g>
<!-- 14&#45;&#45;37 -->
<g id="edge13" class="edge"><title>14&#45;&#45;37</title>
<path fill="none" stroke="black" d="M435.256,-39.4706C432.186,-34.2233 417.059,-8.36957 414.249,-3.56811"/>
</g>
<!-- 13 -->
<g id="node20" class="node"><title>13</title>
<ellipse fill="black" stroke="black" cx="435.8" cy="-1.8" rx="1.8" ry="1.8"/>
</g>
<!-- 14&#45;&#45;13 -->
<g id="edge14" class="edge"><title>14&#45;&#45;13</title>
<path fill="none" stroke="black" d="M435.8,-39.4706C435.8,-34.4042 435.8,-10.1281 435.8,-4.1382"/>
</g>
<!-- 22 -->
<g id="node22" class="node"><title>22</title>
<ellipse fill="black" stroke="black" cx="369.8" cy="-160.2" rx="1.8" ry="1.8"/>
</g>
<!-- 16&#45;&#45;22 -->
<g id="edge15" class="edge"><title>16&#45;&#45;22</title>
<path fill="none" stroke="black" d="M434.654,-198.147C426.575,-193.545 378.275,-166.028 370.778,-161.757"/>
</g>
<!-- 72 -->
<g id="node23" class="node"><title>72</title>
<ellipse fill="black" stroke="black" cx="435.8" cy="-160.2" rx="1.8" ry="1.8"/>
</g>
<!-- 16&#45;&#45;72 -->
<g id="edge16" class="edge"><title>16&#45;&#45;72</title>
<path fill="none" stroke="black" d="M435.8,-197.871C435.8,-192.804 435.8,-168.528 435.8,-162.538"/>
</g>
<!-- 44 -->
<g id="node28" class="node"><title>44</title>
<ellipse fill="black" stroke="black" cx="320.8" cy="-120.6" rx="1.8" ry="1.8"/>
</g>
<!-- 22&#45;&#45;44 -->
<g id="edge21" class="edge"><title>22&#45;&#45;44</title>
<path fill="none" stroke="black" d="M368.95,-158.547C363.053,-154.023 328.299,-127.355 321.835,-122.394"/>
</g>
<!-- 62 -->
<g id="node29" class="node"><title>62</title>
<ellipse fill="black" stroke="black" cx="369.8" cy="-120.6" rx="1.8" ry="1.8"/>
</g>
<!-- 22&#45;&#45;62 -->
<g id="edge22" class="edge"><title>22&#45;&#45;62</title>
<path fill="none" stroke="black" d="M369.8,-158.271C369.8,-153.204 369.8,-128.928 369.8,-122.938"/>
</g>
<!-- 56 -->
<g id="node60" class="node"><title>56</title>
<ellipse fill="black" stroke="black" cx="424.8" cy="-120.6" rx="1.8" ry="1.8"/>
</g>
<!-- 72&#45;&#45;56 -->
<g id="edge71" class="edge"><title>72&#45;&#45;56</title>
<path fill="none" stroke="black" d="M435.528,-158.271C434.046,-153.204 426.944,-128.928 425.191,-122.938"/>
</g>
<!-- 58 -->
<g id="node62" class="node"><title>58</title>
<ellipse fill="black" stroke="black" cx="446.8" cy="-120.6" rx="1.8" ry="1.8"/>
</g>
<!-- 72&#45;&#45;58 -->
<g id="edge72" class="edge"><title>72&#45;&#45;58</title>
<path fill="none" stroke="black" d="M436.072,-158.271C437.554,-153.204 444.656,-128.928 446.409,-122.938"/>
</g>
<!-- 88 -->
<g id="node79" class="node"><title>88</title>
<ellipse fill="black" stroke="black" cx="501.8" cy="-160.2" rx="1.8" ry="1.8"/>
</g>
<!-- 76&#45;&#45;88 -->
<g id="edge75" class="edge"><title>76&#45;&#45;88</title>
<path fill="none" stroke="black" d="M501.8,-197.871C501.8,-192.804 501.8,-168.528 501.8,-162.538"/>
</g>
<!-- 86 -->
<g id="node80" class="node"><title>86</title>
<ellipse fill="black" stroke="black" cx="534.8" cy="-160.2" rx="1.8" ry="1.8"/>
</g>
<!-- 76&#45;&#45;86 -->
<g id="edge76" class="edge"><title>76&#45;&#45;86</title>
<path fill="none" stroke="black" d="M502.616,-197.871C507.221,-192.623 529.912,-166.77 534.126,-161.968"/>
</g>
<!-- 20 -->
<g id="node25" class="node"><title>20</title>
<ellipse fill="black" stroke="black" cx="287.8" cy="-81" rx="1.8" ry="1.8"/>
</g>
<!-- 43 -->
<g id="node26" class="node"><title>43</title>
<ellipse fill="black" stroke="black" cx="259.8" cy="-41.4" rx="1.8" ry="1.8"/>
</g>
<!-- 20&#45;&#45;43 -->
<g id="edge19" class="edge"><title>20&#45;&#45;43</title>
<path fill="none" stroke="black" d="M287.108,-79.0706C283.2,-73.8233 263.948,-47.9696 260.372,-43.1681"/>
</g>
<!-- 19 -->
<g id="node27" class="node"><title>19</title>
<ellipse fill="black" stroke="black" cx="281.8" cy="-41.4" rx="1.8" ry="1.8"/>
</g>
<!-- 20&#45;&#45;19 -->
<g id="edge20" class="edge"><title>20&#45;&#45;19</title>
<path fill="none" stroke="black" d="M287.652,-79.0706C286.843,-74.0042 282.969,-49.7281 282.014,-43.7382"/>
</g>
<!-- 44&#45;&#45;20 -->
<g id="edge43" class="edge"><title>44&#45;&#45;20</title>
<path fill="none" stroke="black" d="M319.984,-118.671C315.379,-113.423 292.688,-87.5696 288.474,-82.7681"/>
</g>
<!-- 46 -->
<g id="node52" class="node"><title>46</title>
<ellipse fill="black" stroke="black" cx="320.8" cy="-81" rx="1.8" ry="1.8"/>
</g>
<!-- 44&#45;&#45;46 -->
<g id="edge44" class="edge"><title>44&#45;&#45;46</title>
<path fill="none" stroke="black" d="M320.8,-118.671C320.8,-113.604 320.8,-89.3281 320.8,-83.3382"/>
</g>
<!-- 42 -->
<g id="node49" class="node"><title>42</title>
<ellipse fill="black" stroke="black" cx="358.8" cy="-81" rx="1.8" ry="1.8"/>
</g>
<!-- 62&#45;&#45;42 -->
<g id="edge61" class="edge"><title>62&#45;&#45;42</title>
<path fill="none" stroke="black" d="M369.528,-118.671C368.046,-113.604 360.944,-89.3281 359.191,-83.3382"/>
</g>
<!-- 61 -->
<g id="node66" class="node"><title>61</title>
<ellipse fill="black" stroke="black" cx="380.8" cy="-81" rx="1.8" ry="1.8"/>
</g>
<!-- 62&#45;&#45;61 -->
<g id="edge62" class="edge"><title>62&#45;&#45;61</title>
<path fill="none" stroke="black" d="M370.072,-118.671C371.554,-113.604 378.656,-89.3281 380.409,-83.3382"/>
</g>
<!-- 25 -->
<g id="node33" class="node"><title>25</title>
<ellipse fill="black" stroke="black" cx="45.8" cy="-41.4" rx="1.8" ry="1.8"/>
</g>
<!-- 28&#45;&#45;25 -->
<g id="edge27" class="edge"><title>28&#45;&#45;25</title>
<path fill="none" stroke="black" d="M45.8,-79.0706C45.8,-74.0042 45.8,-49.7281 45.8,-43.7382"/>
</g>
<!-- 27 -->
<g id="node34" class="node"><title>27</title>
<ellipse fill="black" stroke="black" cx="67.8" cy="-41.4" rx="1.8" ry="1.8"/>
</g>
<!-- 28&#45;&#45;27 -->
<g id="edge28" class="edge"><title>28&#45;&#45;27</title>
<path fill="none" stroke="black" d="M46.3438,-79.0706C49.414,-73.8233 64.5412,-47.9696 67.3506,-43.1681"/>
</g>
<!-- 5 -->
<g id="node36" class="node"><title>5</title>
<ellipse fill="black" stroke="black" cx="133.8" cy="-41.4" rx="1.8" ry="1.8"/>
</g>
<!-- 30&#45;&#45;5 -->
<g id="edge29" class="edge"><title>30&#45;&#45;5</title>
<path fill="none" stroke="black" d="M155.256,-79.0706C152.186,-73.8233 137.059,-47.9696 134.249,-43.1681"/>
</g>
<!-- 29 -->
<g id="node37" class="node"><title>29</title>
<ellipse fill="black" stroke="black" cx="155.8" cy="-41.4" rx="1.8" ry="1.8"/>
</g>
<!-- 30&#45;&#45;29 -->
<g id="edge30" class="edge"><title>30&#45;&#45;29</title>
<path fill="none" stroke="black" d="M155.8,-79.0706C155.8,-74.0042 155.8,-49.7281 155.8,-43.7382"/>
</g>
<!-- 32&#45;&#45;8 -->
<g id="edge31" class="edge"><title>32&#45;&#45;8</title>
<path fill="none" stroke="black" d="M177.8,-79.0706C177.8,-74.0042 177.8,-49.7281 177.8,-43.7382"/>
</g>
<!-- 34 -->
<g id="node39" class="node"><title>34</title>
<ellipse fill="black" stroke="black" cx="199.8" cy="-41.4" rx="1.8" ry="1.8"/>
</g>
<!-- 32&#45;&#45;34 -->
<g id="edge32" class="edge"><title>32&#45;&#45;34</title>
<path fill="none" stroke="black" d="M178.344,-79.0706C181.414,-73.8233 196.541,-47.9696 199.351,-43.1681"/>
</g>
<!-- 9 -->
<g id="node40" class="node"><title>9</title>
<ellipse fill="black" stroke="black" cx="199.8" cy="-1.8" rx="1.8" ry="1.8"/>
</g>
<!-- 34&#45;&#45;9 -->
<g id="edge33" class="edge"><title>34&#45;&#45;9</title>
<path fill="none" stroke="black" d="M199.8,-39.4706C199.8,-34.4042 199.8,-10.1281 199.8,-4.1382"/>
</g>
<!-- 33 -->
<g id="node41" class="node"><title>33</title>
<ellipse fill="black" stroke="black" cx="221.8" cy="-1.8" rx="1.8" ry="1.8"/>
</g>
<!-- 34&#45;&#45;33 -->
<g id="edge34" class="edge"><title>34&#45;&#45;33</title>
<path fill="none" stroke="black" d="M200.344,-39.4706C203.414,-34.2233 218.541,-8.36957 221.351,-3.56811"/>
</g>
<!-- 36 -->
<g id="node42" class="node"><title>36</title>
<ellipse fill="black" stroke="black" cx="402.8" cy="-81" rx="1.8" ry="1.8"/>
</g>
<!-- 11 -->
<g id="node43" class="node"><title>11</title>
<ellipse fill="black" stroke="black" cx="391.8" cy="-41.4" rx="1.8" ry="1.8"/>
</g>
<!-- 36&#45;&#45;11 -->
<g id="edge35" class="edge"><title>36&#45;&#45;11</title>
<path fill="none" stroke="black" d="M402.528,-79.0706C401.046,-74.0042 393.944,-49.7281 392.191,-43.7382"/>
</g>
<!-- 55 -->
<g id="node44" class="node"><title>55</title>
<ellipse fill="black" stroke="black" cx="413.8" cy="-41.4" rx="1.8" ry="1.8"/>
</g>
<!-- 36&#45;&#45;55 -->
<g id="edge36" class="edge"><title>36&#45;&#45;55</title>
<path fill="none" stroke="black" d="M403.072,-79.0706C404.554,-74.0042 411.656,-49.7281 413.409,-43.7382"/>
</g>
<!-- 38 -->
<g id="node45" class="node"><title>38</title>
<ellipse fill="black" stroke="black" cx="446.8" cy="-81" rx="1.8" ry="1.8"/>
</g>
<!-- 38&#45;&#45;14 -->
<g id="edge37" class="edge"><title>38&#45;&#45;14</title>
<path fill="none" stroke="black" d="M446.528,-79.0706C445.046,-74.0042 437.944,-49.7281 436.191,-43.7382"/>
</g>
<!-- 40 -->
<g id="node46" class="node"><title>40</title>
<ellipse fill="black" stroke="black" cx="457.8" cy="-41.4" rx="1.8" ry="1.8"/>
</g>
<!-- 38&#45;&#45;40 -->
<g id="edge38" class="edge"><title>38&#45;&#45;40</title>
<path fill="none" stroke="black" d="M447.072,-79.0706C448.554,-74.0042 455.656,-49.7281 457.409,-43.7382"/>
</g>
<!-- 15 -->
<g id="node47" class="node"><title>15</title>
<ellipse fill="black" stroke="black" cx="457.8" cy="-1.8" rx="1.8" ry="1.8"/>
</g>
<!-- 40&#45;&#45;15 -->
<g id="edge39" class="edge"><title>40&#45;&#45;15</title>
<path fill="none" stroke="black" d="M457.8,-39.4706C457.8,-34.4042 457.8,-10.1281 457.8,-4.1382"/>
</g>
<!-- 39 -->
<g id="node48" class="node"><title>39</title>
<ellipse fill="black" stroke="black" cx="479.8" cy="-1.8" rx="1.8" ry="1.8"/>
</g>
<!-- 40&#45;&#45;39 -->
<g id="edge40" class="edge"><title>40&#45;&#45;39</title>
<path fill="none" stroke="black" d="M458.344,-39.4706C461.414,-34.2233 476.541,-8.36957 479.351,-3.56811"/>
</g>
<!-- 17 -->
<g id="node50" class="node"><title>17</title>
<ellipse fill="black" stroke="black" cx="347.8" cy="-41.4" rx="1.8" ry="1.8"/>
</g>
<!-- 42&#45;&#45;17 -->
<g id="edge41" class="edge"><title>42&#45;&#45;17</title>
<path fill="none" stroke="black" d="M358.528,-79.0706C357.046,-74.0042 349.944,-49.7281 348.191,-43.7382"/>
</g>
<!-- 41 -->
<g id="node51" class="node"><title>41</title>
<ellipse fill="black" stroke="black" cx="369.8" cy="-41.4" rx="1.8" ry="1.8"/>
</g>
<!-- 42&#45;&#45;41 -->
<g id="edge42" class="edge"><title>42&#45;&#45;41</title>
<path fill="none" stroke="black" d="M359.072,-79.0706C360.554,-74.0042 367.656,-49.7281 369.409,-43.7382"/>
</g>
<!-- 21 -->
<g id="node53" class="node"><title>21</title>
<ellipse fill="black" stroke="black" cx="303.8" cy="-41.4" rx="1.8" ry="1.8"/>
</g>
<!-- 46&#45;&#45;21 -->
<g id="edge45" class="edge"><title>46&#45;&#45;21</title>
<path fill="none" stroke="black" d="M320.38,-79.0706C318.007,-73.8233 306.318,-47.9696 304.147,-43.1681"/>
</g>
<!-- 45 -->
<g id="node54" class="node"><title>45</title>
<ellipse fill="black" stroke="black" cx="325.8" cy="-41.4" rx="1.8" ry="1.8"/>
</g>
<!-- 46&#45;&#45;45 -->
<g id="edge46" class="edge"><title>46&#45;&#45;45</title>
<path fill="none" stroke="black" d="M320.924,-79.0706C321.597,-74.0042 324.826,-49.7281 325.622,-43.7382"/>
</g>
<!-- 48&#45;&#45;6 -->
<g id="edge48" class="edge"><title>48&#45;&#45;6</title>
<path fill="none" stroke="black" d="M143.654,-198.147C135.575,-193.545 87.2753,-166.028 79.7777,-161.757"/>
</g>
<!-- 48&#45;&#45;10 -->
<g id="edge47" class="edge"><title>48&#45;&#45;10</title>
<path fill="none" stroke="black" d="M144.8,-197.871C144.8,-192.804 144.8,-168.528 144.8,-162.538"/>
</g>
<!-- 53 -->
<g id="node57" class="node"><title>53</title>
<ellipse fill="black" stroke="black" cx="89.8" cy="-41.4" rx="1.8" ry="1.8"/>
</g>
<!-- 52&#45;&#45;53 -->
<g id="edge51" class="edge"><title>52&#45;&#45;53</title>
<path fill="none" stroke="black" d="M111.256,-79.0706C108.186,-73.8233 93.0588,-47.9696 90.2494,-43.1681"/>
</g>
<!-- 51 -->
<g id="node58" class="node"><title>51</title>
<ellipse fill="black" stroke="black" cx="111.8" cy="-41.4" rx="1.8" ry="1.8"/>
</g>
<!-- 52&#45;&#45;51 -->
<g id="edge52" class="edge"><title>52&#45;&#45;51</title>
<path fill="none" stroke="black" d="M111.8,-79.0706C111.8,-74.0042 111.8,-49.7281 111.8,-43.7382"/>
</g>
<!-- 56&#45;&#45;36 -->
<g id="edge55" class="edge"><title>56&#45;&#45;36</title>
<path fill="none" stroke="black" d="M424.256,-118.671C421.186,-113.423 406.059,-87.5696 403.249,-82.7681"/>
</g>
<!-- 35 -->
<g id="node61" class="node"><title>35</title>
<ellipse fill="black" stroke="black" cx="424.8" cy="-81" rx="1.8" ry="1.8"/>
</g>
<!-- 56&#45;&#45;35 -->
<g id="edge56" class="edge"><title>56&#45;&#45;35</title>
<path fill="none" stroke="black" d="M424.8,-118.671C424.8,-113.604 424.8,-89.3281 424.8,-83.3382"/>
</g>
<!-- 58&#45;&#45;38 -->
<g id="edge57" class="edge"><title>58&#45;&#45;38</title>
<path fill="none" stroke="black" d="M446.8,-118.671C446.8,-113.604 446.8,-89.3281 446.8,-83.3382"/>
</g>
<!-- 60 -->
<g id="node63" class="node"><title>60</title>
<ellipse fill="black" stroke="black" cx="468.8" cy="-81" rx="1.8" ry="1.8"/>
</g>
<!-- 58&#45;&#45;60 -->
<g id="edge58" class="edge"><title>58&#45;&#45;60</title>
<path fill="none" stroke="black" d="M447.344,-118.671C450.414,-113.423 465.541,-87.5696 468.351,-82.7681"/>
</g>
<!-- 57 -->
<g id="node64" class="node"><title>57</title>
<ellipse fill="black" stroke="black" cx="479.8" cy="-41.4" rx="1.8" ry="1.8"/>
</g>
<!-- 60&#45;&#45;57 -->
<g id="edge59" class="edge"><title>60&#45;&#45;57</title>
<path fill="none" stroke="black" d="M469.072,-79.0706C470.554,-74.0042 477.656,-49.7281 479.409,-43.7382"/>
</g>
<!-- 59 -->
<g id="node65" class="node"><title>59</title>
<ellipse fill="black" stroke="black" cx="501.8" cy="-41.4" rx="1.8" ry="1.8"/>
</g>
<!-- 60&#45;&#45;59 -->
<g id="edge60" class="edge"><title>60&#45;&#45;59</title>
<path fill="none" stroke="black" d="M469.616,-79.0706C474.221,-73.8233 496.912,-47.9696 501.126,-43.1681"/>
</g>
<!-- 78 -->
<g id="node74" class="node"><title>78</title>
<ellipse fill="black" stroke="black" cx="232.8" cy="-160.2" rx="1.8" ry="1.8"/>
</g>
<!-- 70&#45;&#45;78 -->
<g id="edge69" class="edge"><title>70&#45;&#45;78</title>
<path fill="none" stroke="black" d="M243.528,-197.871C242.046,-192.804 234.944,-168.528 233.191,-162.538"/>
</g>
<!-- 80 -->
<g id="node75" class="node"><title>80</title>
<ellipse fill="black" stroke="black" cx="254.8" cy="-160.2" rx="1.8" ry="1.8"/>
</g>
<!-- 70&#45;&#45;80 -->
<g id="edge70" class="edge"><title>70&#45;&#45;80</title>
<path fill="none" stroke="black" d="M244.072,-197.871C245.554,-192.804 252.656,-168.528 254.409,-162.538"/>
</g>
<!-- 66 -->
<g id="node68" class="node"><title>66</title>
<ellipse fill="black" stroke="black" cx="254.8" cy="-120.6" rx="1.8" ry="1.8"/>
</g>
<!-- 67 -->
<g id="node69" class="node"><title>67</title>
<ellipse fill="black" stroke="black" cx="243.8" cy="-81" rx="1.8" ry="1.8"/>
</g>
<!-- 66&#45;&#45;67 -->
<g id="edge65" class="edge"><title>66&#45;&#45;67</title>
<path fill="none" stroke="black" d="M254.528,-118.671C253.046,-113.604 245.944,-89.3281 244.191,-83.3382"/>
</g>
<!-- 69 -->
<g id="node70" class="node"><title>69</title>
<ellipse fill="black" stroke="black" cx="265.8" cy="-81" rx="1.8" ry="1.8"/>
</g>
<!-- 66&#45;&#45;69 -->
<g id="edge66" class="edge"><title>66&#45;&#45;69</title>
<path fill="none" stroke="black" d="M255.072,-118.671C256.554,-113.604 263.656,-89.3281 265.409,-83.3382"/>
</g>
<!-- 68 -->
<g id="node71" class="node"><title>68</title>
<ellipse fill="black" stroke="black" cx="210.8" cy="-120.6" rx="1.8" ry="1.8"/>
</g>
<!-- 77 -->
<g id="node72" class="node"><title>77</title>
<ellipse fill="black" stroke="black" cx="199.8" cy="-81" rx="1.8" ry="1.8"/>
</g>
<!-- 68&#45;&#45;77 -->
<g id="edge67" class="edge"><title>68&#45;&#45;77</title>
<path fill="none" stroke="black" d="M210.528,-118.671C209.046,-113.604 201.944,-89.3281 200.191,-83.3382"/>
</g>
<!-- 63 -->
<g id="node73" class="node"><title>63</title>
<ellipse fill="black" stroke="black" cx="221.8" cy="-81" rx="1.8" ry="1.8"/>
</g>
<!-- 68&#45;&#45;63 -->
<g id="edge68" class="edge"><title>68&#45;&#45;63</title>
<path fill="none" stroke="black" d="M211.072,-118.671C212.554,-113.604 219.656,-89.3281 221.409,-83.3382"/>
</g>
<!-- 78&#45;&#45;68 -->
<g id="edge77" class="edge"><title>78&#45;&#45;68</title>
<path fill="none" stroke="black" d="M232.256,-158.271C229.186,-153.023 214.059,-127.17 211.249,-122.368"/>
</g>
<!-- 47 -->
<g id="node81" class="node"><title>47</title>
<ellipse fill="black" stroke="black" cx="232.8" cy="-120.6" rx="1.8" ry="1.8"/>
</g>
<!-- 78&#45;&#45;47 -->
<g id="edge78" class="edge"><title>78&#45;&#45;47</title>
<path fill="none" stroke="black" d="M232.8,-158.271C232.8,-153.204 232.8,-128.928 232.8,-122.938"/>
</g>
<!-- 80&#45;&#45;66 -->
<g id="edge80" class="edge"><title>80&#45;&#45;66</title>
<path fill="none" stroke="black" d="M254.8,-158.271C254.8,-153.204 254.8,-128.928 254.8,-122.938"/>
</g>
<!-- 65 -->
<g id="node82" class="node"><title>65</title>
<ellipse fill="black" stroke="black" cx="276.8" cy="-120.6" rx="1.8" ry="1.8"/>
</g>
<!-- 80&#45;&#45;65 -->
<g id="edge79" class="edge"><title>80&#45;&#45;65</title>
<path fill="none" stroke="black" d="M255.344,-158.271C258.414,-153.023 273.541,-127.17 276.351,-122.368"/>
</g>
<!-- 74 -->
<g id="node76" class="node"><title>74</title>
<ellipse fill="black" stroke="black" cx="490.8" cy="-120.6" rx="1.8" ry="1.8"/>
</g>
<!-- 75 -->
<g id="node77" class="node"><title>75</title>
<ellipse fill="black" stroke="black" cx="490.8" cy="-81" rx="1.8" ry="1.8"/>
</g>
<!-- 74&#45;&#45;75 -->
<g id="edge73" class="edge"><title>74&#45;&#45;75</title>
<path fill="none" stroke="black" d="M490.8,-118.671C490.8,-113.604 490.8,-89.3281 490.8,-83.3382"/>
</g>
<!-- 73 -->
<g id="node78" class="node"><title>73</title>
<ellipse fill="black" stroke="black" cx="512.8" cy="-81" rx="1.8" ry="1.8"/>
</g>
<!-- 74&#45;&#45;73 -->
<g id="edge74" class="edge"><title>74&#45;&#45;73</title>
<path fill="none" stroke="black" d="M491.344,-118.671C494.414,-113.423 509.541,-87.5696 512.351,-82.7681"/>
</g>
<!-- 88&#45;&#45;74 -->
<g id="edge87" class="edge"><title>88&#45;&#45;74</title>
<path fill="none" stroke="black" d="M501.528,-158.271C500.046,-153.204 492.944,-128.928 491.191,-122.938"/>
</g>
<!-- 98 -->
<g id="node90" class="node"><title>98</title>
<ellipse fill="black" stroke="black" cx="512.8" cy="-120.6" rx="1.8" ry="1.8"/>
</g>
<!-- 88&#45;&#45;98 -->
<g id="edge88" class="edge"><title>88&#45;&#45;98</title>
<path fill="none" stroke="black" d="M502.072,-158.271C503.554,-153.204 510.656,-128.928 512.409,-122.938"/>
</g>
<!-- 71 -->
<g id="node88" class="node"><title>71</title>
<ellipse fill="black" stroke="black" cx="534.8" cy="-120.6" rx="1.8" ry="1.8"/>
</g>
<!-- 86&#45;&#45;71 -->
<g id="edge85" class="edge"><title>86&#45;&#45;71</title>
<path fill="none" stroke="black" d="M534.8,-158.271C534.8,-153.204 534.8,-128.928 534.8,-122.938"/>
</g>
<!-- 85 -->
<g id="node89" class="node"><title>85</title>
<ellipse fill="black" stroke="black" cx="556.8" cy="-120.6" rx="1.8" ry="1.8"/>
</g>
<!-- 86&#45;&#45;85 -->
<g id="edge86" class="edge"><title>86&#45;&#45;85</title>
<path fill="none" stroke="black" d="M535.344,-158.271C538.414,-153.023 553.541,-127.17 556.351,-122.368"/>
</g>
<!-- 82 -->
<g id="node83" class="node"><title>82</title>
<ellipse fill="black" stroke="black" cx="765.8" cy="-160.2" rx="1.8" ry="1.8"/>
</g>
<!-- 83 -->
<g id="node84" class="node"><title>83</title>
<ellipse fill="black" stroke="black" cx="754.8" cy="-120.6" rx="1.8" ry="1.8"/>
</g>
<!-- 82&#45;&#45;83 -->
<g id="edge81" class="edge"><title>82&#45;&#45;83</title>
<path fill="none" stroke="black" d="M765.528,-158.271C764.046,-153.204 756.944,-128.928 755.191,-122.938"/>
</g>
<!-- 81 -->
<g id="node85" class="node"><title>81</title>
<ellipse fill="black" stroke="black" cx="776.8" cy="-120.6" rx="1.8" ry="1.8"/>
</g>
<!-- 82&#45;&#45;81 -->
<g id="edge82" class="edge"><title>82&#45;&#45;81</title>
<path fill="none" stroke="black" d="M766.072,-158.271C767.554,-153.204 774.656,-128.928 776.409,-122.938"/>
</g>
<!-- 118 -->
<g id="node107" class="node"><title>118</title>
<ellipse fill="black" stroke="black" cx="622.8" cy="-199.8" rx="1.8" ry="1.8"/>
</g>
<!-- 106&#45;&#45;118 -->
<g id="edge105" class="edge"><title>106&#45;&#45;118</title>
<path fill="none" stroke="black" d="M633.528,-237.471C632.046,-232.404 624.944,-208.128 623.191,-202.138"/>
</g>
<!-- 108 -->
<g id="node108" class="node"><title>108</title>
<ellipse fill="black" stroke="black" cx="644.8" cy="-199.8" rx="1.8" ry="1.8"/>
</g>
<!-- 106&#45;&#45;108 -->
<g id="edge106" class="edge"><title>106&#45;&#45;108</title>
<path fill="none" stroke="black" d="M634.072,-237.471C635.554,-232.404 642.656,-208.128 644.409,-202.138"/>
</g>
<!-- 90 -->
<g id="node91" class="node"><title>90</title>
<ellipse fill="black" stroke="black" cx="710.8" cy="-199.8" rx="1.8" ry="1.8"/>
</g>
<!-- 100&#45;&#45;90 -->
<g id="edge99" class="edge"><title>100&#45;&#45;90</title>
<path fill="none" stroke="black" d="M710.8,-237.471C710.8,-232.404 710.8,-208.128 710.8,-202.138"/>
</g>
<!-- 94 -->
<g id="node96" class="node"><title>94</title>
<ellipse fill="black" stroke="black" cx="765.8" cy="-199.8" rx="1.8" ry="1.8"/>
</g>
<!-- 100&#45;&#45;94 -->
<g id="edge100" class="edge"><title>100&#45;&#45;94</title>
<path fill="none" stroke="black" d="M711.755,-237.747C718.373,-233.223 757.383,-206.555 764.639,-201.594"/>
</g>
<!-- 87 -->
<g id="node100" class="node"><title>87</title>
<ellipse fill="black" stroke="black" cx="534.8" cy="-81" rx="1.8" ry="1.8"/>
</g>
<!-- 98&#45;&#45;87 -->
<g id="edge97" class="edge"><title>98&#45;&#45;87</title>
<path fill="none" stroke="black" d="M513.344,-118.671C516.414,-113.423 531.541,-87.5696 534.351,-82.7681"/>
</g>
<!-- 97 -->
<g id="node101" class="node"><title>97</title>
<ellipse fill="black" stroke="black" cx="556.8" cy="-81" rx="1.8" ry="1.8"/>
</g>
<!-- 98&#45;&#45;97 -->
<g id="edge98" class="edge"><title>98&#45;&#45;97</title>
<path fill="none" stroke="black" d="M513.564,-118.947C518.859,-114.423 550.066,-87.7545 555.871,-82.794"/>
</g>
<!-- 79 -->
<g id="node92" class="node"><title>79</title>
<ellipse fill="black" stroke="black" cx="699.8" cy="-160.2" rx="1.8" ry="1.8"/>
</g>
<!-- 90&#45;&#45;79 -->
<g id="edge89" class="edge"><title>90&#45;&#45;79</title>
<path fill="none" stroke="black" d="M710.528,-197.871C709.046,-192.804 701.944,-168.528 700.191,-162.538"/>
</g>
<!-- 92 -->
<g id="node93" class="node"><title>92</title>
<ellipse fill="black" stroke="black" cx="721.8" cy="-160.2" rx="1.8" ry="1.8"/>
</g>
<!-- 90&#45;&#45;92 -->
<g id="edge90" class="edge"><title>90&#45;&#45;92</title>
<path fill="none" stroke="black" d="M711.072,-197.871C712.554,-192.804 719.656,-168.528 721.409,-162.538"/>
</g>
<!-- 89 -->
<g id="node94" class="node"><title>89</title>
<ellipse fill="black" stroke="black" cx="710.8" cy="-120.6" rx="1.8" ry="1.8"/>
</g>
<!-- 92&#45;&#45;89 -->
<g id="edge91" class="edge"><title>92&#45;&#45;89</title>
<path fill="none" stroke="black" d="M721.528,-158.271C720.046,-153.204 712.944,-128.928 711.191,-122.938"/>
</g>
<!-- 91 -->
<g id="node95" class="node"><title>91</title>
<ellipse fill="black" stroke="black" cx="732.8" cy="-120.6" rx="1.8" ry="1.8"/>
</g>
<!-- 92&#45;&#45;91 -->
<g id="edge92" class="edge"><title>92&#45;&#45;91</title>
<path fill="none" stroke="black" d="M722.072,-158.271C723.554,-153.204 730.656,-128.928 732.409,-122.938"/>
</g>
<!-- 94&#45;&#45;82 -->
<g id="edge93" class="edge"><title>94&#45;&#45;82</title>
<path fill="none" stroke="black" d="M765.8,-197.871C765.8,-192.804 765.8,-168.528 765.8,-162.538"/>
</g>
<!-- 96 -->
<g id="node97" class="node"><title>96</title>
<ellipse fill="black" stroke="black" cx="798.8" cy="-160.2" rx="1.8" ry="1.8"/>
</g>
<!-- 94&#45;&#45;96 -->
<g id="edge94" class="edge"><title>94&#45;&#45;96</title>
<path fill="none" stroke="black" d="M766.616,-197.871C771.221,-192.623 793.912,-166.77 798.126,-161.968"/>
</g>
<!-- 93 -->
<g id="node98" class="node"><title>93</title>
<ellipse fill="black" stroke="black" cx="798.8" cy="-120.6" rx="1.8" ry="1.8"/>
</g>
<!-- 96&#45;&#45;93 -->
<g id="edge95" class="edge"><title>96&#45;&#45;93</title>
<path fill="none" stroke="black" d="M798.8,-158.271C798.8,-153.204 798.8,-128.928 798.8,-122.938"/>
</g>
<!-- 95 -->
<g id="node99" class="node"><title>95</title>
<ellipse fill="black" stroke="black" cx="820.8" cy="-120.6" rx="1.8" ry="1.8"/>
</g>
<!-- 96&#45;&#45;95 -->
<g id="edge96" class="edge"><title>96&#45;&#45;95</title>
<path fill="none" stroke="black" d="M799.344,-158.271C802.414,-153.023 817.541,-127.17 820.351,-122.368"/>
</g>
<!-- 102 -->
<g id="node102" class="node"><title>102</title>
<ellipse fill="black" stroke="black" cx="622.8" cy="-120.6" rx="1.8" ry="1.8"/>
</g>
<!-- 103 -->
<g id="node103" class="node"><title>103</title>
<ellipse fill="black" stroke="black" cx="589.8" cy="-81" rx="1.8" ry="1.8"/>
</g>
<!-- 102&#45;&#45;103 -->
<g id="edge101" class="edge"><title>102&#45;&#45;103</title>
<path fill="none" stroke="black" d="M621.984,-118.671C617.379,-113.423 594.688,-87.5696 590.474,-82.7681"/>
</g>
<!-- 101 -->
<g id="node104" class="node"><title>101</title>
<ellipse fill="black" stroke="black" cx="611.8" cy="-81" rx="1.8" ry="1.8"/>
</g>
<!-- 102&#45;&#45;101 -->
<g id="edge102" class="edge"><title>102&#45;&#45;101</title>
<path fill="none" stroke="black" d="M622.528,-118.671C621.046,-113.604 613.944,-89.3281 612.191,-83.3382"/>
</g>
<!-- 104 -->
<g id="node105" class="node"><title>104</title>
<ellipse fill="black" stroke="black" cx="644.8" cy="-160.2" rx="1.8" ry="1.8"/>
</g>
<!-- 104&#45;&#45;102 -->
<g id="edge103" class="edge"><title>104&#45;&#45;102</title>
<path fill="none" stroke="black" d="M644.256,-158.271C641.186,-153.023 626.059,-127.17 623.249,-122.368"/>
</g>
<!-- 112 -->
<g id="node106" class="node"><title>112</title>
<ellipse fill="black" stroke="black" cx="644.8" cy="-120.6" rx="1.8" ry="1.8"/>
</g>
<!-- 104&#45;&#45;112 -->
<g id="edge104" class="edge"><title>104&#45;&#45;112</title>
<path fill="none" stroke="black" d="M644.8,-158.271C644.8,-153.204 644.8,-128.928 644.8,-122.938"/>
</g>
<!-- 105 -->
<g id="node113" class="node"><title>105</title>
<ellipse fill="black" stroke="black" cx="633.8" cy="-81" rx="1.8" ry="1.8"/>
</g>
<!-- 112&#45;&#45;105 -->
<g id="edge111" class="edge"><title>112&#45;&#45;105</title>
<path fill="none" stroke="black" d="M644.528,-118.671C643.046,-113.604 635.944,-89.3281 634.191,-83.3382"/>
</g>
<!-- 111 -->
<g id="node114" class="node"><title>111</title>
<ellipse fill="black" stroke="black" cx="655.8" cy="-81" rx="1.8" ry="1.8"/>
</g>
<!-- 112&#45;&#45;111 -->
<g id="edge112" class="edge"><title>112&#45;&#45;111</title>
<path fill="none" stroke="black" d="M645.072,-118.671C646.554,-113.604 653.656,-89.3281 655.409,-83.3382"/>
</g>
<!-- 116 -->
<g id="node116" class="node"><title>116</title>
<ellipse fill="black" stroke="black" cx="600.8" cy="-160.2" rx="1.8" ry="1.8"/>
</g>
<!-- 118&#45;&#45;116 -->
<g id="edge117" class="edge"><title>118&#45;&#45;116</title>
<path fill="none" stroke="black" d="M622.256,-197.871C619.186,-192.623 604.059,-166.77 601.249,-161.968"/>
</g>
<!-- 117 -->
<g id="node119" class="node"><title>117</title>
<ellipse fill="black" stroke="black" cx="622.8" cy="-160.2" rx="1.8" ry="1.8"/>
</g>
<!-- 118&#45;&#45;117 -->
<g id="edge118" class="edge"><title>118&#45;&#45;117</title>
<path fill="none" stroke="black" d="M622.8,-197.871C622.8,-192.804 622.8,-168.528 622.8,-162.538"/>
</g>
<!-- 108&#45;&#45;104 -->
<g id="edge107" class="edge"><title>108&#45;&#45;104</title>
<path fill="none" stroke="black" d="M644.8,-197.871C644.8,-192.804 644.8,-168.528 644.8,-162.538"/>
</g>
<!-- 114 -->
<g id="node109" class="node"><title>114</title>
<ellipse fill="black" stroke="black" cx="666.8" cy="-160.2" rx="1.8" ry="1.8"/>
</g>
<!-- 108&#45;&#45;114 -->
<g id="edge108" class="edge"><title>108&#45;&#45;114</title>
<path fill="none" stroke="black" d="M645.344,-197.871C648.414,-192.623 663.541,-166.77 666.351,-161.968"/>
</g>
<!-- 110 -->
<g id="node110" class="node"><title>110</title>
<ellipse fill="black" stroke="black" cx="666.8" cy="-120.6" rx="1.8" ry="1.8"/>
</g>
<!-- 114&#45;&#45;110 -->
<g id="edge113" class="edge"><title>114&#45;&#45;110</title>
<path fill="none" stroke="black" d="M666.8,-158.271C666.8,-153.204 666.8,-128.928 666.8,-122.938"/>
</g>
<!-- 99 -->
<g id="node115" class="node"><title>99</title>
<ellipse fill="black" stroke="black" cx="688.8" cy="-120.6" rx="1.8" ry="1.8"/>
</g>
<!-- 114&#45;&#45;99 -->
<g id="edge114" class="edge"><title>114&#45;&#45;99</title>
<path fill="none" stroke="black" d="M667.344,-158.271C670.414,-153.023 685.541,-127.17 688.351,-122.368"/>
</g>
<!-- 107 -->
<g id="node111" class="node"><title>107</title>
<ellipse fill="black" stroke="black" cx="677.8" cy="-81" rx="1.8" ry="1.8"/>
</g>
<!-- 110&#45;&#45;107 -->
<g id="edge109" class="edge"><title>110&#45;&#45;107</title>
<path fill="none" stroke="black" d="M667.072,-118.671C668.554,-113.604 675.656,-89.3281 677.409,-83.3382"/>
</g>
<!-- 109 -->
<g id="node112" class="node"><title>109</title>
<ellipse fill="black" stroke="black" cx="699.8" cy="-81" rx="1.8" ry="1.8"/>
</g>
<!-- 110&#45;&#45;109 -->
<g id="edge110" class="edge"><title>110&#45;&#45;109</title>
<path fill="none" stroke="black" d="M667.616,-118.671C672.221,-113.423 694.912,-87.5696 699.126,-82.7681"/>
</g>
<!-- 113 -->
<g id="node117" class="node"><title>113</title>
<ellipse fill="black" stroke="black" cx="578.8" cy="-120.6" rx="1.8" ry="1.8"/>
</g>
<!-- 116&#45;&#45;113 -->
<g id="edge115" class="edge"><title>116&#45;&#45;113</title>
<path fill="none" stroke="black" d="M600.256,-158.271C597.186,-153.023 582.059,-127.17 579.249,-122.368"/>
</g>
<!-- 115 -->
<g id="node118" class="node"><title>115</title>
<ellipse fill="black" stroke="black" cx="600.8" cy="-120.6" rx="1.8" ry="1.8"/>
</g>
<!-- 116&#45;&#45;115 -->
<g id="edge116" class="edge"><title>116&#45;&#45;115</title>
<path fill="none" stroke="black" d="M600.8,-158.271C600.8,-153.204 600.8,-128.928 600.8,-122.938"/>
</g>
<!-- 128 -->
<g id="node120" class="node"><title>128</title>
<polygon fill="none" stroke="black" points="679.8,-352.8 573.8,-352.8 573.8,-316.8 679.8,-316.8 679.8,-352.8"/>
<text text-anchor="middle" x="626.8" y="-331.1" font-family="Times New Roman,serif" font-size="14.00">inner area = 112</text>
</g>
</g>
</svg>
