<?xml version="1.0" encoding="UTF-8" standalone="no"?>
<!DOCTYPE svg PUBLIC "-//W3C//DTD SVG 1.1//EN"
 "http://www.w3.org/Graphics/SVG/1.1/DTD/svg11.dtd">
<!-- Generated by graphviz version 2.38.0 (20140413.2041)
 -->
<!-- Title: %3 Pages: 1 -->
<svg width="1002pt" height="321pt"
 viewBox="0.00 0.00 1001.60 321.20" xmlns="http://www.w3.org/2000/svg" xmlns:xlink="http://www.w3.org/1999/xlink">
<g id="graph0" class="graph" transform="scale(1 1) rotate(0) translate(4 317.2)">
<title>%3</title>
<polygon fill="white" stroke="none" points="-4,4 -4,-317.2 997.6,-317.2 997.6,4 -4,4"/>
<!-- 2 -->
<g id="node1" class="node"><title>2</title>
<ellipse fill="black" stroke="black" cx="375.8" cy="-81" rx="1.8" ry="1.8"/>
</g>
<!-- 3 -->
<g id="node2" class="node"><title>3</title>
<ellipse fill="black" stroke="black" cx="353.8" cy="-41.4" rx="1.8" ry="1.8"/>
</g>
<!-- 2&#45;&#45;3 -->
<g id="edge1" class="edge"><title>2&#45;&#45;3</title>
<path fill="none" stroke="black" d="M375.256,-79.0706C372.186,-73.8233 357.059,-47.9696 354.249,-43.1681"/>
</g>
<!-- 1 -->
<g id="node3" class="node"><title>1</title>
<ellipse fill="black" stroke="black" cx="375.8" cy="-41.4" rx="1.8" ry="1.8"/>
</g>
<!-- 2&#45;&#45;1 -->
<g id="edge2" class="edge"><title>2&#45;&#45;1</title>
<path fill="none" stroke="black" d="M375.8,-79.0706C375.8,-74.0042 375.8,-49.7281 375.8,-43.7382"/>
</g>
<!-- 4 -->
<g id="node4" class="node"><title>4</title>
<ellipse fill="black" stroke="black" cx="441.8" cy="-295.2" rx="1.8" ry="1.8"/>
</g>
<!-- 6 -->
<g id="node5" class="node"><title>6</title>
<ellipse fill="black" stroke="black" cx="320.8" cy="-239.4" rx="1.8" ry="1.8"/>
</g>
<!-- 4&#45;&#45;6 -->
<g id="edge3" class="edge"><title>4&#45;&#45;6</title>
<path fill="none" stroke="black" d="M440.441,-293.596C427.978,-288.055 333.73,-246.149 321.998,-240.932"/>
</g>
<!-- 56 -->
<g id="node6" class="node"><title>56</title>
<ellipse fill="black" stroke="black" cx="562.8" cy="-239.4" rx="1.8" ry="1.8"/>
</g>
<!-- 4&#45;&#45;56 -->
<g id="edge4" class="edge"><title>4&#45;&#45;56</title>
<path fill="none" stroke="black" d="M442.206,-293.104C443.372,-290.103 447.022,-281.681 452.8,-277.2 490.036,-248.321 551.106,-241.49 561.327,-240.529"/>
</g>
<!-- 10 -->
<g id="node7" class="node"><title>10</title>
<ellipse fill="black" stroke="black" cx="188.8" cy="-199.8" rx="1.8" ry="1.8"/>
</g>
<!-- 6&#45;&#45;10 -->
<g id="edge5" class="edge"><title>6&#45;&#45;10</title>
<path fill="none" stroke="black" d="M319.318,-237.978C305.722,-234.105 202.905,-204.818 190.106,-201.172"/>
</g>
<!-- 52 -->
<g id="node8" class="node"><title>52</title>
<ellipse fill="black" stroke="black" cx="320.8" cy="-199.8" rx="1.8" ry="1.8"/>
</g>
<!-- 6&#45;&#45;52 -->
<g id="edge6" class="edge"><title>6&#45;&#45;52</title>
<path fill="none" stroke="black" d="M320.8,-237.471C320.8,-232.404 320.8,-208.128 320.8,-202.138"/>
</g>
<!-- 68 -->
<g id="node58" class="node"><title>68</title>
<ellipse fill="black" stroke="black" cx="562.8" cy="-199.8" rx="1.8" ry="1.8"/>
</g>
<!-- 56&#45;&#45;68 -->
<g id="edge55" class="edge"><title>56&#45;&#45;68</title>
<path fill="none" stroke="black" d="M562.8,-237.471C562.8,-232.404 562.8,-208.128 562.8,-202.138"/>
</g>
<!-- 82 -->
<g id="node59" class="node"><title>82</title>
<ellipse fill="black" stroke="black" cx="793.8" cy="-199.8" rx="1.8" ry="1.8"/>
</g>
<!-- 56&#45;&#45;82 -->
<g id="edge56" class="edge"><title>56&#45;&#45;82</title>
<path fill="none" stroke="black" d="M564.275,-238.16C583.026,-235.108 774.544,-203.934 792.458,-201.018"/>
</g>
<!-- 18 -->
<g id="node12" class="node"><title>18</title>
<ellipse fill="black" stroke="black" cx="122.8" cy="-160.2" rx="1.8" ry="1.8"/>
</g>
<!-- 10&#45;&#45;18 -->
<g id="edge9" class="edge"><title>10&#45;&#45;18</title>
<path fill="none" stroke="black" d="M187.654,-198.147C179.575,-193.545 131.275,-166.028 123.778,-161.757"/>
</g>
<!-- 60 -->
<g id="node13" class="node"><title>60</title>
<ellipse fill="black" stroke="black" cx="188.8" cy="-160.2" rx="1.8" ry="1.8"/>
</g>
<!-- 10&#45;&#45;60 -->
<g id="edge10" class="edge"><title>10&#45;&#45;60</title>
<path fill="none" stroke="black" d="M188.8,-197.871C188.8,-192.804 188.8,-168.528 188.8,-162.538"/>
</g>
<!-- 14 -->
<g id="node17" class="node"><title>14</title>
<ellipse fill="black" stroke="black" cx="298.8" cy="-160.2" rx="1.8" ry="1.8"/>
</g>
<!-- 52&#45;&#45;14 -->
<g id="edge51" class="edge"><title>52&#45;&#45;14</title>
<path fill="none" stroke="black" d="M320.256,-197.871C317.186,-192.623 302.059,-166.77 299.249,-161.968"/>
</g>
<!-- 26 -->
<g id="node33" class="node"><title>26</title>
<ellipse fill="black" stroke="black" cx="342.8" cy="-160.2" rx="1.8" ry="1.8"/>
</g>
<!-- 52&#45;&#45;26 -->
<g id="edge52" class="edge"><title>52&#45;&#45;26</title>
<path fill="none" stroke="black" d="M321.344,-197.871C324.414,-192.623 339.541,-166.77 342.351,-161.968"/>
</g>
<!-- 8 -->
<g id="node9" class="node"><title>8</title>
<ellipse fill="black" stroke="black" cx="133.8" cy="-41.4" rx="1.8" ry="1.8"/>
</g>
<!-- 21 -->
<g id="node10" class="node"><title>21</title>
<ellipse fill="black" stroke="black" cx="111.8" cy="-1.8" rx="1.8" ry="1.8"/>
</g>
<!-- 8&#45;&#45;21 -->
<g id="edge7" class="edge"><title>8&#45;&#45;21</title>
<path fill="none" stroke="black" d="M133.256,-39.4706C130.186,-34.2233 115.059,-8.36957 112.249,-3.56811"/>
</g>
<!-- 19 -->
<g id="node11" class="node"><title>19</title>
<ellipse fill="black" stroke="black" cx="133.8" cy="-1.8" rx="1.8" ry="1.8"/>
</g>
<!-- 8&#45;&#45;19 -->
<g id="edge8" class="edge"><title>8&#45;&#45;19</title>
<path fill="none" stroke="black" d="M133.8,-39.4706C133.8,-34.4042 133.8,-10.1281 133.8,-4.1382"/>
</g>
<!-- 38 -->
<g id="node23" class="node"><title>38</title>
<ellipse fill="black" stroke="black" cx="56.8" cy="-120.6" rx="1.8" ry="1.8"/>
</g>
<!-- 18&#45;&#45;38 -->
<g id="edge17" class="edge"><title>18&#45;&#45;38</title>
<path fill="none" stroke="black" d="M121.654,-158.547C113.575,-153.945 65.2753,-126.428 57.7777,-122.157"/>
</g>
<!-- 22 -->
<g id="node24" class="node"><title>22</title>
<ellipse fill="black" stroke="black" cx="122.8" cy="-120.6" rx="1.8" ry="1.8"/>
</g>
<!-- 18&#45;&#45;22 -->
<g id="edge18" class="edge"><title>18&#45;&#45;22</title>
<path fill="none" stroke="black" d="M122.8,-158.271C122.8,-153.204 122.8,-128.928 122.8,-122.938"/>
</g>
<!-- 62 -->
<g id="node63" class="node"><title>62</title>
<ellipse fill="black" stroke="black" cx="177.8" cy="-120.6" rx="1.8" ry="1.8"/>
</g>
<!-- 60&#45;&#45;62 -->
<g id="edge59" class="edge"><title>60&#45;&#45;62</title>
<path fill="none" stroke="black" d="M188.528,-158.271C187.046,-153.204 179.944,-128.928 178.191,-122.938"/>
</g>
<!-- 76 -->
<g id="node64" class="node"><title>76</title>
<ellipse fill="black" stroke="black" cx="199.8" cy="-120.6" rx="1.8" ry="1.8"/>
</g>
<!-- 60&#45;&#45;76 -->
<g id="edge60" class="edge"><title>60&#45;&#45;76</title>
<path fill="none" stroke="black" d="M189.072,-158.271C190.554,-153.204 197.656,-128.928 199.409,-122.938"/>
</g>
<!-- 12 -->
<g id="node14" class="node"><title>12</title>
<ellipse fill="black" stroke="black" cx="287.8" cy="-81" rx="1.8" ry="1.8"/>
</g>
<!-- 31 -->
<g id="node15" class="node"><title>31</title>
<ellipse fill="black" stroke="black" cx="265.8" cy="-41.4" rx="1.8" ry="1.8"/>
</g>
<!-- 12&#45;&#45;31 -->
<g id="edge11" class="edge"><title>12&#45;&#45;31</title>
<path fill="none" stroke="black" d="M287.256,-79.0706C284.186,-73.8233 269.059,-47.9696 266.249,-43.1681"/>
</g>
<!-- 33 -->
<g id="node16" class="node"><title>33</title>
<ellipse fill="black" stroke="black" cx="287.8" cy="-41.4" rx="1.8" ry="1.8"/>
</g>
<!-- 12&#45;&#45;33 -->
<g id="edge12" class="edge"><title>12&#45;&#45;33</title>
<path fill="none" stroke="black" d="M287.8,-79.0706C287.8,-74.0042 287.8,-49.7281 287.8,-43.7382"/>
</g>
<!-- 36 -->
<g id="node18" class="node"><title>36</title>
<ellipse fill="black" stroke="black" cx="265.8" cy="-120.6" rx="1.8" ry="1.8"/>
</g>
<!-- 14&#45;&#45;36 -->
<g id="edge13" class="edge"><title>14&#45;&#45;36</title>
<path fill="none" stroke="black" d="M297.984,-158.271C293.379,-153.023 270.688,-127.17 266.474,-122.368"/>
</g>
<!-- 32 -->
<g id="node19" class="node"><title>32</title>
<ellipse fill="black" stroke="black" cx="298.8" cy="-120.6" rx="1.8" ry="1.8"/>
</g>
<!-- 14&#45;&#45;32 -->
<g id="edge14" class="edge"><title>14&#45;&#45;32</title>
<path fill="none" stroke="black" d="M298.8,-158.271C298.8,-153.204 298.8,-128.928 298.8,-122.938"/>
</g>
<!-- 16 -->
<g id="node20" class="node"><title>16</title>
<ellipse fill="black" stroke="black" cx="243.8" cy="-81" rx="1.8" ry="1.8"/>
</g>
<!-- 36&#45;&#45;16 -->
<g id="edge35" class="edge"><title>36&#45;&#45;16</title>
<path fill="none" stroke="black" d="M265.256,-118.671C262.186,-113.423 247.059,-87.5696 244.249,-82.7681"/>
</g>
<!-- 9 -->
<g id="node43" class="node"><title>9</title>
<ellipse fill="black" stroke="black" cx="265.8" cy="-81" rx="1.8" ry="1.8"/>
</g>
<!-- 36&#45;&#45;9 -->
<g id="edge36" class="edge"><title>36&#45;&#45;9</title>
<path fill="none" stroke="black" d="M265.8,-118.671C265.8,-113.604 265.8,-89.3281 265.8,-83.3382"/>
</g>
<!-- 32&#45;&#45;12 -->
<g id="edge32" class="edge"><title>32&#45;&#45;12</title>
<path fill="none" stroke="black" d="M298.528,-118.671C297.046,-113.604 289.944,-89.3281 288.191,-83.3382"/>
</g>
<!-- 34 -->
<g id="node40" class="node"><title>34</title>
<ellipse fill="black" stroke="black" cx="309.8" cy="-81" rx="1.8" ry="1.8"/>
</g>
<!-- 32&#45;&#45;34 -->
<g id="edge31" class="edge"><title>32&#45;&#45;34</title>
<path fill="none" stroke="black" d="M299.072,-118.671C300.554,-113.604 307.656,-89.3281 309.409,-83.3382"/>
</g>
<!-- 35 -->
<g id="node21" class="node"><title>35</title>
<ellipse fill="black" stroke="black" cx="221.8" cy="-41.4" rx="1.8" ry="1.8"/>
</g>
<!-- 16&#45;&#45;35 -->
<g id="edge15" class="edge"><title>16&#45;&#45;35</title>
<path fill="none" stroke="black" d="M243.256,-79.0706C240.186,-73.8233 225.059,-47.9696 222.249,-43.1681"/>
</g>
<!-- 11 -->
<g id="node22" class="node"><title>11</title>
<ellipse fill="black" stroke="black" cx="243.8" cy="-41.4" rx="1.8" ry="1.8"/>
</g>
<!-- 16&#45;&#45;11 -->
<g id="edge16" class="edge"><title>16&#45;&#45;11</title>
<path fill="none" stroke="black" d="M243.8,-79.0706C243.8,-74.0042 243.8,-49.7281 243.8,-43.7382"/>
</g>
<!-- 20 -->
<g id="node25" class="node"><title>20</title>
<ellipse fill="black" stroke="black" cx="23.8" cy="-81" rx="1.8" ry="1.8"/>
</g>
<!-- 38&#45;&#45;20 -->
<g id="edge37" class="edge"><title>38&#45;&#45;20</title>
<path fill="none" stroke="black" d="M55.9843,-118.671C51.379,-113.423 28.6882,-87.5696 24.4741,-82.7681"/>
</g>
<!-- 40 -->
<g id="node44" class="node"><title>40</title>
<ellipse fill="black" stroke="black" cx="56.8" cy="-81" rx="1.8" ry="1.8"/>
</g>
<!-- 38&#45;&#45;40 -->
<g id="edge38" class="edge"><title>38&#45;&#45;40</title>
<path fill="none" stroke="black" d="M56.8,-118.671C56.8,-113.604 56.8,-89.3281 56.8,-83.3382"/>
</g>
<!-- 46 -->
<g id="node28" class="node"><title>46</title>
<ellipse fill="black" stroke="black" cx="111.8" cy="-81" rx="1.8" ry="1.8"/>
</g>
<!-- 22&#45;&#45;46 -->
<g id="edge21" class="edge"><title>22&#45;&#45;46</title>
<path fill="none" stroke="black" d="M122.528,-118.671C121.046,-113.604 113.944,-89.3281 112.191,-83.3382"/>
</g>
<!-- 44 -->
<g id="node29" class="node"><title>44</title>
<ellipse fill="black" stroke="black" cx="133.8" cy="-81" rx="1.8" ry="1.8"/>
</g>
<!-- 22&#45;&#45;44 -->
<g id="edge22" class="edge"><title>22&#45;&#45;44</title>
<path fill="none" stroke="black" d="M123.072,-118.671C124.554,-113.604 131.656,-89.3281 133.409,-83.3382"/>
</g>
<!-- 13 -->
<g id="node26" class="node"><title>13</title>
<ellipse fill="black" stroke="black" cx="1.8" cy="-41.4" rx="1.8" ry="1.8"/>
</g>
<!-- 20&#45;&#45;13 -->
<g id="edge19" class="edge"><title>20&#45;&#45;13</title>
<path fill="none" stroke="black" d="M23.2562,-79.0706C20.186,-73.8233 5.05879,-47.9696 2.24943,-43.1681"/>
</g>
<!-- 37 -->
<g id="node27" class="node"><title>37</title>
<ellipse fill="black" stroke="black" cx="23.8" cy="-41.4" rx="1.8" ry="1.8"/>
</g>
<!-- 20&#45;&#45;37 -->
<g id="edge20" class="edge"><title>20&#45;&#45;37</title>
<path fill="none" stroke="black" d="M23.8,-79.0706C23.8,-74.0042 23.8,-49.7281 23.8,-43.7382"/>
</g>
<!-- 17 -->
<g id="node50" class="node"><title>17</title>
<ellipse fill="black" stroke="black" cx="89.8" cy="-41.4" rx="1.8" ry="1.8"/>
</g>
<!-- 46&#45;&#45;17 -->
<g id="edge45" class="edge"><title>46&#45;&#45;17</title>
<path fill="none" stroke="black" d="M111.256,-79.0706C108.186,-73.8233 93.0588,-47.9696 90.2494,-43.1681"/>
</g>
<!-- 41 -->
<g id="node51" class="node"><title>41</title>
<ellipse fill="black" stroke="black" cx="111.8" cy="-41.4" rx="1.8" ry="1.8"/>
</g>
<!-- 46&#45;&#45;41 -->
<g id="edge46" class="edge"><title>46&#45;&#45;41</title>
<path fill="none" stroke="black" d="M111.8,-79.0706C111.8,-74.0042 111.8,-49.7281 111.8,-43.7382"/>
</g>
<!-- 44&#45;&#45;8 -->
<g id="edge43" class="edge"><title>44&#45;&#45;8</title>
<path fill="none" stroke="black" d="M133.8,-79.0706C133.8,-74.0042 133.8,-49.7281 133.8,-43.7382"/>
</g>
<!-- 42 -->
<g id="node47" class="node"><title>42</title>
<ellipse fill="black" stroke="black" cx="155.8" cy="-41.4" rx="1.8" ry="1.8"/>
</g>
<!-- 44&#45;&#45;42 -->
<g id="edge44" class="edge"><title>44&#45;&#45;42</title>
<path fill="none" stroke="black" d="M134.344,-79.0706C137.414,-73.8233 152.541,-47.9696 155.351,-43.1681"/>
</g>
<!-- 24 -->
<g id="node30" class="node"><title>24</title>
<ellipse fill="black" stroke="black" cx="342.8" cy="-120.6" rx="1.8" ry="1.8"/>
</g>
<!-- 0 -->
<g id="node31" class="node"><title>0</title>
<ellipse fill="black" stroke="black" cx="331.8" cy="-81" rx="1.8" ry="1.8"/>
</g>
<!-- 24&#45;&#45;0 -->
<g id="edge23" class="edge"><title>24&#45;&#45;0</title>
<path fill="none" stroke="black" d="M342.528,-118.671C341.046,-113.604 333.944,-89.3281 332.191,-83.3382"/>
</g>
<!-- 23 -->
<g id="node32" class="node"><title>23</title>
<ellipse fill="black" stroke="black" cx="353.8" cy="-81" rx="1.8" ry="1.8"/>
</g>
<!-- 24&#45;&#45;23 -->
<g id="edge24" class="edge"><title>24&#45;&#45;23</title>
<path fill="none" stroke="black" d="M343.072,-118.671C344.554,-113.604 351.656,-89.3281 353.409,-83.3382"/>
</g>
<!-- 26&#45;&#45;24 -->
<g id="edge26" class="edge"><title>26&#45;&#45;24</title>
<path fill="none" stroke="black" d="M342.8,-158.271C342.8,-153.204 342.8,-128.928 342.8,-122.938"/>
</g>
<!-- 48 -->
<g id="node34" class="node"><title>48</title>
<ellipse fill="black" stroke="black" cx="375.8" cy="-120.6" rx="1.8" ry="1.8"/>
</g>
<!-- 26&#45;&#45;48 -->
<g id="edge25" class="edge"><title>26&#45;&#45;48</title>
<path fill="none" stroke="black" d="M343.616,-158.271C348.221,-153.023 370.912,-127.17 375.126,-122.368"/>
</g>
<!-- 48&#45;&#45;2 -->
<g id="edge47" class="edge"><title>48&#45;&#45;2</title>
<path fill="none" stroke="black" d="M375.8,-118.671C375.8,-113.604 375.8,-89.3281 375.8,-83.3382"/>
</g>
<!-- 30 -->
<g id="node38" class="node"><title>30</title>
<ellipse fill="black" stroke="black" cx="397.8" cy="-81" rx="1.8" ry="1.8"/>
</g>
<!-- 48&#45;&#45;30 -->
<g id="edge48" class="edge"><title>48&#45;&#45;30</title>
<path fill="none" stroke="black" d="M376.344,-118.671C379.414,-113.423 394.541,-87.5696 397.351,-82.7681"/>
</g>
<!-- 28 -->
<g id="node35" class="node"><title>28</title>
<ellipse fill="black" stroke="black" cx="397.8" cy="-41.4" rx="1.8" ry="1.8"/>
</g>
<!-- 25 -->
<g id="node36" class="node"><title>25</title>
<ellipse fill="black" stroke="black" cx="386.8" cy="-1.8" rx="1.8" ry="1.8"/>
</g>
<!-- 28&#45;&#45;25 -->
<g id="edge27" class="edge"><title>28&#45;&#45;25</title>
<path fill="none" stroke="black" d="M397.528,-39.4706C396.046,-34.4042 388.944,-10.1281 387.191,-4.1382"/>
</g>
<!-- 27 -->
<g id="node37" class="node"><title>27</title>
<ellipse fill="black" stroke="black" cx="408.8" cy="-1.8" rx="1.8" ry="1.8"/>
</g>
<!-- 28&#45;&#45;27 -->
<g id="edge28" class="edge"><title>28&#45;&#45;27</title>
<path fill="none" stroke="black" d="M398.072,-39.4706C399.554,-34.4042 406.656,-10.1281 408.409,-4.1382"/>
</g>
<!-- 30&#45;&#45;28 -->
<g id="edge29" class="edge"><title>30&#45;&#45;28</title>
<path fill="none" stroke="black" d="M397.8,-79.0706C397.8,-74.0042 397.8,-49.7281 397.8,-43.7382"/>
</g>
<!-- 29 -->
<g id="node39" class="node"><title>29</title>
<ellipse fill="black" stroke="black" cx="419.8" cy="-41.4" rx="1.8" ry="1.8"/>
</g>
<!-- 30&#45;&#45;29 -->
<g id="edge30" class="edge"><title>30&#45;&#45;29</title>
<path fill="none" stroke="black" d="M398.344,-79.0706C401.414,-73.8233 416.541,-47.9696 419.351,-43.1681"/>
</g>
<!-- 5 -->
<g id="node41" class="node"><title>5</title>
<ellipse fill="black" stroke="black" cx="309.8" cy="-41.4" rx="1.8" ry="1.8"/>
</g>
<!-- 34&#45;&#45;5 -->
<g id="edge33" class="edge"><title>34&#45;&#45;5</title>
<path fill="none" stroke="black" d="M309.8,-79.0706C309.8,-74.0042 309.8,-49.7281 309.8,-43.7382"/>
</g>
<!-- 7 -->
<g id="node42" class="node"><title>7</title>
<ellipse fill="black" stroke="black" cx="331.8" cy="-41.4" rx="1.8" ry="1.8"/>
</g>
<!-- 34&#45;&#45;7 -->
<g id="edge34" class="edge"><title>34&#45;&#45;7</title>
<path fill="none" stroke="black" d="M310.344,-79.0706C313.414,-73.8233 328.541,-47.9696 331.351,-43.1681"/>
</g>
<!-- 15 -->
<g id="node45" class="node"><title>15</title>
<ellipse fill="black" stroke="black" cx="45.8" cy="-41.4" rx="1.8" ry="1.8"/>
</g>
<!-- 40&#45;&#45;15 -->
<g id="edge39" class="edge"><title>40&#45;&#45;15</title>
<path fill="none" stroke="black" d="M56.5281,-79.0706C55.0459,-74.0042 47.9439,-49.7281 46.1915,-43.7382"/>
</g>
<!-- 39 -->
<g id="node46" class="node"><title>39</title>
<ellipse fill="black" stroke="black" cx="67.8" cy="-41.4" rx="1.8" ry="1.8"/>
</g>
<!-- 40&#45;&#45;39 -->
<g id="edge40" class="edge"><title>40&#45;&#45;39</title>
<path fill="none" stroke="black" d="M57.0719,-79.0706C58.5541,-74.0042 65.6561,-49.7281 67.4085,-43.7382"/>
</g>
<!-- 43 -->
<g id="node48" class="node"><title>43</title>
<ellipse fill="black" stroke="black" cx="155.8" cy="-1.8" rx="1.8" ry="1.8"/>
</g>
<!-- 42&#45;&#45;43 -->
<g id="edge41" class="edge"><title>42&#45;&#45;43</title>
<path fill="none" stroke="black" d="M155.8,-39.4706C155.8,-34.4042 155.8,-10.1281 155.8,-4.1382"/>
</g>
<!-- 45 -->
<g id="node49" class="node"><title>45</title>
<ellipse fill="black" stroke="black" cx="177.8" cy="-1.8" rx="1.8" ry="1.8"/>
</g>
<!-- 42&#45;&#45;45 -->
<g id="edge42" class="edge"><title>42&#45;&#45;45</title>
<path fill="none" stroke="black" d="M156.344,-39.4706C159.414,-34.2233 174.541,-8.36957 177.351,-3.56811"/>
</g>
<!-- 50 -->
<g id="node52" class="node"><title>50</title>
<ellipse fill="black" stroke="black" cx="199.8" cy="-81" rx="1.8" ry="1.8"/>
</g>
<!-- 59 -->
<g id="node53" class="node"><title>59</title>
<ellipse fill="black" stroke="black" cx="177.8" cy="-41.4" rx="1.8" ry="1.8"/>
</g>
<!-- 50&#45;&#45;59 -->
<g id="edge49" class="edge"><title>50&#45;&#45;59</title>
<path fill="none" stroke="black" d="M199.256,-79.0706C196.186,-73.8233 181.059,-47.9696 178.249,-43.1681"/>
</g>
<!-- 61 -->
<g id="node54" class="node"><title>61</title>
<ellipse fill="black" stroke="black" cx="199.8" cy="-41.4" rx="1.8" ry="1.8"/>
</g>
<!-- 50&#45;&#45;61 -->
<g id="edge50" class="edge"><title>50&#45;&#45;61</title>
<path fill="none" stroke="black" d="M199.8,-79.0706C199.8,-74.0042 199.8,-49.7281 199.8,-43.7382"/>
</g>
<!-- 54 -->
<g id="node55" class="node"><title>54</title>
<ellipse fill="black" stroke="black" cx="595.8" cy="-81" rx="1.8" ry="1.8"/>
</g>
<!-- 47 -->
<g id="node56" class="node"><title>47</title>
<ellipse fill="black" stroke="black" cx="573.8" cy="-41.4" rx="1.8" ry="1.8"/>
</g>
<!-- 54&#45;&#45;47 -->
<g id="edge53" class="edge"><title>54&#45;&#45;47</title>
<path fill="none" stroke="black" d="M595.256,-79.0706C592.186,-73.8233 577.059,-47.9696 574.249,-43.1681"/>
</g>
<!-- 49 -->
<g id="node57" class="node"><title>49</title>
<ellipse fill="black" stroke="black" cx="595.8" cy="-41.4" rx="1.8" ry="1.8"/>
</g>
<!-- 54&#45;&#45;49 -->
<g id="edge54" class="edge"><title>54&#45;&#45;49</title>
<path fill="none" stroke="black" d="M595.8,-79.0706C595.8,-74.0042 595.8,-49.7281 595.8,-43.7382"/>
</g>
<!-- 72 -->
<g id="node71" class="node"><title>72</title>
<ellipse fill="black" stroke="black" cx="518.8" cy="-160.2" rx="1.8" ry="1.8"/>
</g>
<!-- 68&#45;&#45;72 -->
<g id="edge67" class="edge"><title>68&#45;&#45;72</title>
<path fill="none" stroke="black" d="M562.036,-198.147C556.741,-193.623 525.534,-166.955 519.729,-161.994"/>
</g>
<!-- 78 -->
<g id="node72" class="node"><title>78</title>
<ellipse fill="black" stroke="black" cx="606.8" cy="-160.2" rx="1.8" ry="1.8"/>
</g>
<!-- 68&#45;&#45;78 -->
<g id="edge68" class="edge"><title>68&#45;&#45;78</title>
<path fill="none" stroke="black" d="M563.564,-198.147C568.859,-193.623 600.066,-166.955 605.871,-161.994"/>
</g>
<!-- 114 -->
<g id="node86" class="node"><title>114</title>
<ellipse fill="black" stroke="black" cx="793.8" cy="-160.2" rx="1.8" ry="1.8"/>
</g>
<!-- 82&#45;&#45;114 -->
<g id="edge81" class="edge"><title>82&#45;&#45;114</title>
<path fill="none" stroke="black" d="M793.8,-197.871C793.8,-192.804 793.8,-168.528 793.8,-162.538"/>
</g>
<!-- 100 -->
<g id="node87" class="node"><title>100</title>
<ellipse fill="black" stroke="black" cx="870.8" cy="-160.2" rx="1.8" ry="1.8"/>
</g>
<!-- 82&#45;&#45;100 -->
<g id="edge82" class="edge"><title>82&#45;&#45;100</title>
<path fill="none" stroke="black" d="M794.888,-198.268C803.516,-194.055 860.75,-166.107 869.64,-161.766"/>
</g>
<!-- 58 -->
<g id="node60" class="node"><title>58</title>
<ellipse fill="black" stroke="black" cx="617.8" cy="-81" rx="1.8" ry="1.8"/>
</g>
<!-- 51 -->
<g id="node61" class="node"><title>51</title>
<ellipse fill="black" stroke="black" cx="617.8" cy="-41.4" rx="1.8" ry="1.8"/>
</g>
<!-- 58&#45;&#45;51 -->
<g id="edge57" class="edge"><title>58&#45;&#45;51</title>
<path fill="none" stroke="black" d="M617.8,-79.0706C617.8,-74.0042 617.8,-49.7281 617.8,-43.7382"/>
</g>
<!-- 53 -->
<g id="node62" class="node"><title>53</title>
<ellipse fill="black" stroke="black" cx="639.8" cy="-41.4" rx="1.8" ry="1.8"/>
</g>
<!-- 58&#45;&#45;53 -->
<g id="edge58" class="edge"><title>58&#45;&#45;53</title>
<path fill="none" stroke="black" d="M618.344,-79.0706C621.414,-73.8233 636.541,-47.9696 639.351,-43.1681"/>
</g>
<!-- 55 -->
<g id="node65" class="node"><title>55</title>
<ellipse fill="black" stroke="black" cx="155.8" cy="-81" rx="1.8" ry="1.8"/>
</g>
<!-- 62&#45;&#45;55 -->
<g id="edge61" class="edge"><title>62&#45;&#45;55</title>
<path fill="none" stroke="black" d="M177.256,-118.671C174.186,-113.423 159.059,-87.5696 156.249,-82.7681"/>
</g>
<!-- 57 -->
<g id="node66" class="node"><title>57</title>
<ellipse fill="black" stroke="black" cx="177.8" cy="-81" rx="1.8" ry="1.8"/>
</g>
<!-- 62&#45;&#45;57 -->
<g id="edge62" class="edge"><title>62&#45;&#45;57</title>
<path fill="none" stroke="black" d="M177.8,-118.671C177.8,-113.604 177.8,-89.3281 177.8,-83.3382"/>
</g>
<!-- 76&#45;&#45;50 -->
<g id="edge75" class="edge"><title>76&#45;&#45;50</title>
<path fill="none" stroke="black" d="M199.8,-118.671C199.8,-113.604 199.8,-89.3281 199.8,-83.3382"/>
</g>
<!-- 75 -->
<g id="node81" class="node"><title>75</title>
<ellipse fill="black" stroke="black" cx="221.8" cy="-81" rx="1.8" ry="1.8"/>
</g>
<!-- 76&#45;&#45;75 -->
<g id="edge76" class="edge"><title>76&#45;&#45;75</title>
<path fill="none" stroke="black" d="M200.344,-118.671C203.414,-113.423 218.541,-87.5696 221.351,-82.7681"/>
</g>
<!-- 64 -->
<g id="node67" class="node"><title>64</title>
<ellipse fill="black" stroke="black" cx="606.8" cy="-120.6" rx="1.8" ry="1.8"/>
</g>
<!-- 64&#45;&#45;54 -->
<g id="edge63" class="edge"><title>64&#45;&#45;54</title>
<path fill="none" stroke="black" d="M606.528,-118.671C605.046,-113.604 597.944,-89.3281 596.191,-83.3382"/>
</g>
<!-- 64&#45;&#45;58 -->
<g id="edge64" class="edge"><title>64&#45;&#45;58</title>
<path fill="none" stroke="black" d="M607.072,-118.671C608.554,-113.604 615.656,-89.3281 617.409,-83.3382"/>
</g>
<!-- 66 -->
<g id="node68" class="node"><title>66</title>
<ellipse fill="black" stroke="black" cx="507.8" cy="-81" rx="1.8" ry="1.8"/>
</g>
<!-- 71 -->
<g id="node69" class="node"><title>71</title>
<ellipse fill="black" stroke="black" cx="485.8" cy="-41.4" rx="1.8" ry="1.8"/>
</g>
<!-- 66&#45;&#45;71 -->
<g id="edge65" class="edge"><title>66&#45;&#45;71</title>
<path fill="none" stroke="black" d="M507.256,-79.0706C504.186,-73.8233 489.059,-47.9696 486.249,-43.1681"/>
</g>
<!-- 73 -->
<g id="node70" class="node"><title>73</title>
<ellipse fill="black" stroke="black" cx="507.8" cy="-41.4" rx="1.8" ry="1.8"/>
</g>
<!-- 66&#45;&#45;73 -->
<g id="edge66" class="edge"><title>66&#45;&#45;73</title>
<path fill="none" stroke="black" d="M507.8,-79.0706C507.8,-74.0042 507.8,-49.7281 507.8,-43.7382"/>
</g>
<!-- 98 -->
<g id="node76" class="node"><title>98</title>
<ellipse fill="black" stroke="black" cx="485.8" cy="-120.6" rx="1.8" ry="1.8"/>
</g>
<!-- 72&#45;&#45;98 -->
<g id="edge71" class="edge"><title>72&#45;&#45;98</title>
<path fill="none" stroke="black" d="M517.984,-158.271C513.379,-153.023 490.688,-127.17 486.474,-122.368"/>
</g>
<!-- 86 -->
<g id="node77" class="node"><title>86</title>
<ellipse fill="black" stroke="black" cx="518.8" cy="-120.6" rx="1.8" ry="1.8"/>
</g>
<!-- 72&#45;&#45;86 -->
<g id="edge72" class="edge"><title>72&#45;&#45;86</title>
<path fill="none" stroke="black" d="M518.8,-158.271C518.8,-153.204 518.8,-128.928 518.8,-122.938"/>
</g>
<!-- 78&#45;&#45;64 -->
<g id="edge78" class="edge"><title>78&#45;&#45;64</title>
<path fill="none" stroke="black" d="M606.8,-158.271C606.8,-153.204 606.8,-128.928 606.8,-122.938"/>
</g>
<!-- 90 -->
<g id="node82" class="node"><title>90</title>
<ellipse fill="black" stroke="black" cx="672.8" cy="-120.6" rx="1.8" ry="1.8"/>
</g>
<!-- 78&#45;&#45;90 -->
<g id="edge77" class="edge"><title>78&#45;&#45;90</title>
<path fill="none" stroke="black" d="M607.946,-158.547C616.025,-153.945 664.325,-126.428 671.822,-122.157"/>
</g>
<!-- 70 -->
<g id="node73" class="node"><title>70</title>
<ellipse fill="black" stroke="black" cx="672.8" cy="-81" rx="1.8" ry="1.8"/>
</g>
<!-- 63 -->
<g id="node74" class="node"><title>63</title>
<ellipse fill="black" stroke="black" cx="661.8" cy="-41.4" rx="1.8" ry="1.8"/>
</g>
<!-- 70&#45;&#45;63 -->
<g id="edge69" class="edge"><title>70&#45;&#45;63</title>
<path fill="none" stroke="black" d="M672.528,-79.0706C671.046,-74.0042 663.944,-49.7281 662.191,-43.7382"/>
</g>
<!-- 65 -->
<g id="node75" class="node"><title>65</title>
<ellipse fill="black" stroke="black" cx="683.8" cy="-41.4" rx="1.8" ry="1.8"/>
</g>
<!-- 70&#45;&#45;65 -->
<g id="edge70" class="edge"><title>70&#45;&#45;65</title>
<path fill="none" stroke="black" d="M673.072,-79.0706C674.554,-74.0042 681.656,-49.7281 683.409,-43.7382"/>
</g>
<!-- 88 -->
<g id="node91" class="node"><title>88</title>
<ellipse fill="black" stroke="black" cx="463.8" cy="-81" rx="1.8" ry="1.8"/>
</g>
<!-- 98&#45;&#45;88 -->
<g id="edge97" class="edge"><title>98&#45;&#45;88</title>
<path fill="none" stroke="black" d="M485.256,-118.671C482.186,-113.423 467.059,-87.5696 464.249,-82.7681"/>
</g>
<!-- 97 -->
<g id="node101" class="node"><title>97</title>
<ellipse fill="black" stroke="black" cx="485.8" cy="-81" rx="1.8" ry="1.8"/>
</g>
<!-- 98&#45;&#45;97 -->
<g id="edge98" class="edge"><title>98&#45;&#45;97</title>
<path fill="none" stroke="black" d="M485.8,-118.671C485.8,-113.604 485.8,-89.3281 485.8,-83.3382"/>
</g>
<!-- 86&#45;&#45;66 -->
<g id="edge85" class="edge"><title>86&#45;&#45;66</title>
<path fill="none" stroke="black" d="M518.528,-118.671C517.046,-113.604 509.944,-89.3281 508.191,-83.3382"/>
</g>
<!-- 74 -->
<g id="node78" class="node"><title>74</title>
<ellipse fill="black" stroke="black" cx="529.8" cy="-81" rx="1.8" ry="1.8"/>
</g>
<!-- 86&#45;&#45;74 -->
<g id="edge86" class="edge"><title>86&#45;&#45;74</title>
<path fill="none" stroke="black" d="M519.072,-118.671C520.554,-113.604 527.656,-89.3281 529.409,-83.3382"/>
</g>
<!-- 67 -->
<g id="node79" class="node"><title>67</title>
<ellipse fill="black" stroke="black" cx="529.8" cy="-41.4" rx="1.8" ry="1.8"/>
</g>
<!-- 74&#45;&#45;67 -->
<g id="edge73" class="edge"><title>74&#45;&#45;67</title>
<path fill="none" stroke="black" d="M529.8,-79.0706C529.8,-74.0042 529.8,-49.7281 529.8,-43.7382"/>
</g>
<!-- 69 -->
<g id="node80" class="node"><title>69</title>
<ellipse fill="black" stroke="black" cx="551.8" cy="-41.4" rx="1.8" ry="1.8"/>
</g>
<!-- 74&#45;&#45;69 -->
<g id="edge74" class="edge"><title>74&#45;&#45;69</title>
<path fill="none" stroke="black" d="M530.344,-79.0706C533.414,-73.8233 548.541,-47.9696 551.351,-43.1681"/>
</g>
<!-- 90&#45;&#45;70 -->
<g id="edge90" class="edge"><title>90&#45;&#45;70</title>
<path fill="none" stroke="black" d="M672.8,-118.671C672.8,-113.604 672.8,-89.3281 672.8,-83.3382"/>
</g>
<!-- 84 -->
<g id="node88" class="node"><title>84</title>
<ellipse fill="black" stroke="black" cx="705.8" cy="-81" rx="1.8" ry="1.8"/>
</g>
<!-- 90&#45;&#45;84 -->
<g id="edge89" class="edge"><title>90&#45;&#45;84</title>
<path fill="none" stroke="black" d="M673.616,-118.671C678.221,-113.423 700.912,-87.5696 705.126,-82.7681"/>
</g>
<!-- 80 -->
<g id="node83" class="node"><title>80</title>
<ellipse fill="black" stroke="black" cx="859.8" cy="-81" rx="1.8" ry="1.8"/>
</g>
<!-- 81 -->
<g id="node84" class="node"><title>81</title>
<ellipse fill="black" stroke="black" cx="837.8" cy="-41.4" rx="1.8" ry="1.8"/>
</g>
<!-- 80&#45;&#45;81 -->
<g id="edge79" class="edge"><title>80&#45;&#45;81</title>
<path fill="none" stroke="black" d="M859.256,-79.0706C856.186,-73.8233 841.059,-47.9696 838.249,-43.1681"/>
</g>
<!-- 83 -->
<g id="node85" class="node"><title>83</title>
<ellipse fill="black" stroke="black" cx="859.8" cy="-41.4" rx="1.8" ry="1.8"/>
</g>
<!-- 80&#45;&#45;83 -->
<g id="edge80" class="edge"><title>80&#45;&#45;83</title>
<path fill="none" stroke="black" d="M859.8,-79.0706C859.8,-74.0042 859.8,-49.7281 859.8,-43.7382"/>
</g>
<!-- 112 -->
<g id="node113" class="node"><title>112</title>
<ellipse fill="black" stroke="black" cx="782.8" cy="-120.6" rx="1.8" ry="1.8"/>
</g>
<!-- 114&#45;&#45;112 -->
<g id="edge113" class="edge"><title>114&#45;&#45;112</title>
<path fill="none" stroke="black" d="M793.528,-158.271C792.046,-153.204 784.944,-128.928 783.191,-122.938"/>
</g>
<!-- 118 -->
<g id="node115" class="node"><title>118</title>
<ellipse fill="black" stroke="black" cx="804.8" cy="-120.6" rx="1.8" ry="1.8"/>
</g>
<!-- 114&#45;&#45;118 -->
<g id="edge114" class="edge"><title>114&#45;&#45;118</title>
<path fill="none" stroke="black" d="M794.072,-158.271C795.554,-153.204 802.656,-128.928 804.409,-122.938"/>
</g>
<!-- 94 -->
<g id="node97" class="node"><title>94</title>
<ellipse fill="black" stroke="black" cx="870.8" cy="-120.6" rx="1.8" ry="1.8"/>
</g>
<!-- 100&#45;&#45;94 -->
<g id="edge100" class="edge"><title>100&#45;&#45;94</title>
<path fill="none" stroke="black" d="M870.8,-158.271C870.8,-153.204 870.8,-128.928 870.8,-122.938"/>
</g>
<!-- 104 -->
<g id="node102" class="node"><title>104</title>
<ellipse fill="black" stroke="black" cx="936.8" cy="-120.6" rx="1.8" ry="1.8"/>
</g>
<!-- 100&#45;&#45;104 -->
<g id="edge99" class="edge"><title>100&#45;&#45;104</title>
<path fill="none" stroke="black" d="M871.946,-158.547C880.025,-153.945 928.325,-126.428 935.822,-122.157"/>
</g>
<!-- 77 -->
<g id="node89" class="node"><title>77</title>
<ellipse fill="black" stroke="black" cx="705.8" cy="-41.4" rx="1.8" ry="1.8"/>
</g>
<!-- 84&#45;&#45;77 -->
<g id="edge83" class="edge"><title>84&#45;&#45;77</title>
<path fill="none" stroke="black" d="M705.8,-79.0706C705.8,-74.0042 705.8,-49.7281 705.8,-43.7382"/>
</g>
<!-- 79 -->
<g id="node90" class="node"><title>79</title>
<ellipse fill="black" stroke="black" cx="727.8" cy="-41.4" rx="1.8" ry="1.8"/>
</g>
<!-- 84&#45;&#45;79 -->
<g id="edge84" class="edge"><title>84&#45;&#45;79</title>
<path fill="none" stroke="black" d="M706.344,-79.0706C709.414,-73.8233 724.541,-47.9696 727.351,-43.1681"/>
</g>
<!-- 85 -->
<g id="node92" class="node"><title>85</title>
<ellipse fill="black" stroke="black" cx="441.8" cy="-41.4" rx="1.8" ry="1.8"/>
</g>
<!-- 88&#45;&#45;85 -->
<g id="edge87" class="edge"><title>88&#45;&#45;85</title>
<path fill="none" stroke="black" d="M463.256,-79.0706C460.186,-73.8233 445.059,-47.9696 442.249,-43.1681"/>
</g>
<!-- 87 -->
<g id="node93" class="node"><title>87</title>
<ellipse fill="black" stroke="black" cx="463.8" cy="-41.4" rx="1.8" ry="1.8"/>
</g>
<!-- 88&#45;&#45;87 -->
<g id="edge88" class="edge"><title>88&#45;&#45;87</title>
<path fill="none" stroke="black" d="M463.8,-79.0706C463.8,-74.0042 463.8,-49.7281 463.8,-43.7382"/>
</g>
<!-- 92 -->
<g id="node94" class="node"><title>92</title>
<ellipse fill="black" stroke="black" cx="925.8" cy="-41.4" rx="1.8" ry="1.8"/>
</g>
<!-- 89 -->
<g id="node95" class="node"><title>89</title>
<ellipse fill="black" stroke="black" cx="903.8" cy="-1.8" rx="1.8" ry="1.8"/>
</g>
<!-- 92&#45;&#45;89 -->
<g id="edge91" class="edge"><title>92&#45;&#45;89</title>
<path fill="none" stroke="black" d="M925.256,-39.4706C922.186,-34.2233 907.059,-8.36957 904.249,-3.56811"/>
</g>
<!-- 91 -->
<g id="node96" class="node"><title>91</title>
<ellipse fill="black" stroke="black" cx="925.8" cy="-1.8" rx="1.8" ry="1.8"/>
</g>
<!-- 92&#45;&#45;91 -->
<g id="edge92" class="edge"><title>92&#45;&#45;91</title>
<path fill="none" stroke="black" d="M925.8,-39.4706C925.8,-34.4042 925.8,-10.1281 925.8,-4.1382"/>
</g>
<!-- 94&#45;&#45;80 -->
<g id="edge93" class="edge"><title>94&#45;&#45;80</title>
<path fill="none" stroke="black" d="M870.528,-118.671C869.046,-113.604 861.944,-89.3281 860.191,-83.3382"/>
</g>
<!-- 96 -->
<g id="node98" class="node"><title>96</title>
<ellipse fill="black" stroke="black" cx="881.8" cy="-81" rx="1.8" ry="1.8"/>
</g>
<!-- 94&#45;&#45;96 -->
<g id="edge94" class="edge"><title>94&#45;&#45;96</title>
<path fill="none" stroke="black" d="M871.072,-118.671C872.554,-113.604 879.656,-89.3281 881.409,-83.3382"/>
</g>
<!-- 93 -->
<g id="node99" class="node"><title>93</title>
<ellipse fill="black" stroke="black" cx="881.8" cy="-41.4" rx="1.8" ry="1.8"/>
</g>
<!-- 96&#45;&#45;93 -->
<g id="edge95" class="edge"><title>96&#45;&#45;93</title>
<path fill="none" stroke="black" d="M881.8,-79.0706C881.8,-74.0042 881.8,-49.7281 881.8,-43.7382"/>
</g>
<!-- 95 -->
<g id="node100" class="node"><title>95</title>
<ellipse fill="black" stroke="black" cx="903.8" cy="-41.4" rx="1.8" ry="1.8"/>
</g>
<!-- 96&#45;&#45;95 -->
<g id="edge96" class="edge"><title>96&#45;&#45;95</title>
<path fill="none" stroke="black" d="M882.344,-79.0706C885.414,-73.8233 900.541,-47.9696 903.351,-43.1681"/>
</g>
<!-- 108 -->
<g id="node106" class="node"><title>108</title>
<ellipse fill="black" stroke="black" cx="936.8" cy="-81" rx="1.8" ry="1.8"/>
</g>
<!-- 104&#45;&#45;108 -->
<g id="edge103" class="edge"><title>104&#45;&#45;108</title>
<path fill="none" stroke="black" d="M936.8,-118.671C936.8,-113.604 936.8,-89.3281 936.8,-83.3382"/>
</g>
<!-- 110 -->
<g id="node107" class="node"><title>110</title>
<ellipse fill="black" stroke="black" cx="969.8" cy="-81" rx="1.8" ry="1.8"/>
</g>
<!-- 104&#45;&#45;110 -->
<g id="edge104" class="edge"><title>104&#45;&#45;110</title>
<path fill="none" stroke="black" d="M937.616,-118.671C942.221,-113.423 964.912,-87.5696 969.126,-82.7681"/>
</g>
<!-- 102 -->
<g id="node103" class="node"><title>102</title>
<ellipse fill="black" stroke="black" cx="760.8" cy="-81" rx="1.8" ry="1.8"/>
</g>
<!-- 103 -->
<g id="node104" class="node"><title>103</title>
<ellipse fill="black" stroke="black" cx="749.8" cy="-41.4" rx="1.8" ry="1.8"/>
</g>
<!-- 102&#45;&#45;103 -->
<g id="edge101" class="edge"><title>102&#45;&#45;103</title>
<path fill="none" stroke="black" d="M760.528,-79.0706C759.046,-74.0042 751.944,-49.7281 750.191,-43.7382"/>
</g>
<!-- 105 -->
<g id="node105" class="node"><title>105</title>
<ellipse fill="black" stroke="black" cx="771.8" cy="-41.4" rx="1.8" ry="1.8"/>
</g>
<!-- 102&#45;&#45;105 -->
<g id="edge102" class="edge"><title>102&#45;&#45;105</title>
<path fill="none" stroke="black" d="M761.072,-79.0706C762.554,-74.0042 769.656,-49.7281 771.409,-43.7382"/>
</g>
<!-- 108&#45;&#45;92 -->
<g id="edge108" class="edge"><title>108&#45;&#45;92</title>
<path fill="none" stroke="black" d="M936.528,-79.0706C935.046,-74.0042 927.944,-49.7281 926.191,-43.7382"/>
</g>
<!-- 106 -->
<g id="node108" class="node"><title>106</title>
<ellipse fill="black" stroke="black" cx="947.8" cy="-41.4" rx="1.8" ry="1.8"/>
</g>
<!-- 108&#45;&#45;106 -->
<g id="edge107" class="edge"><title>108&#45;&#45;106</title>
<path fill="none" stroke="black" d="M937.072,-79.0706C938.554,-74.0042 945.656,-49.7281 947.409,-43.7382"/>
</g>
<!-- 107 -->
<g id="node111" class="node"><title>107</title>
<ellipse fill="black" stroke="black" cx="969.8" cy="-41.4" rx="1.8" ry="1.8"/>
</g>
<!-- 110&#45;&#45;107 -->
<g id="edge109" class="edge"><title>110&#45;&#45;107</title>
<path fill="none" stroke="black" d="M969.8,-79.0706C969.8,-74.0042 969.8,-49.7281 969.8,-43.7382"/>
</g>
<!-- 109 -->
<g id="node112" class="node"><title>109</title>
<ellipse fill="black" stroke="black" cx="991.8" cy="-41.4" rx="1.8" ry="1.8"/>
</g>
<!-- 110&#45;&#45;109 -->
<g id="edge110" class="edge"><title>110&#45;&#45;109</title>
<path fill="none" stroke="black" d="M970.344,-79.0706C973.414,-73.8233 988.541,-47.9696 991.351,-43.1681"/>
</g>
<!-- 99 -->
<g id="node109" class="node"><title>99</title>
<ellipse fill="black" stroke="black" cx="947.8" cy="-1.8" rx="1.8" ry="1.8"/>
</g>
<!-- 106&#45;&#45;99 -->
<g id="edge105" class="edge"><title>106&#45;&#45;99</title>
<path fill="none" stroke="black" d="M947.8,-39.4706C947.8,-34.4042 947.8,-10.1281 947.8,-4.1382"/>
</g>
<!-- 101 -->
<g id="node110" class="node"><title>101</title>
<ellipse fill="black" stroke="black" cx="969.8" cy="-1.8" rx="1.8" ry="1.8"/>
</g>
<!-- 106&#45;&#45;101 -->
<g id="edge106" class="edge"><title>106&#45;&#45;101</title>
<path fill="none" stroke="black" d="M948.344,-39.4706C951.414,-34.2233 966.541,-8.36957 969.351,-3.56811"/>
</g>
<!-- 112&#45;&#45;102 -->
<g id="edge111" class="edge"><title>112&#45;&#45;102</title>
<path fill="none" stroke="black" d="M782.256,-118.671C779.186,-113.423 764.059,-87.5696 761.249,-82.7681"/>
</g>
<!-- 111 -->
<g id="node114" class="node"><title>111</title>
<ellipse fill="black" stroke="black" cx="782.8" cy="-81" rx="1.8" ry="1.8"/>
</g>
<!-- 112&#45;&#45;111 -->
<g id="edge112" class="edge"><title>112&#45;&#45;111</title>
<path fill="none" stroke="black" d="M782.8,-118.671C782.8,-113.604 782.8,-89.3281 782.8,-83.3382"/>
</g>
<!-- 116 -->
<g id="node116" class="node"><title>116</title>
<ellipse fill="black" stroke="black" cx="804.8" cy="-81" rx="1.8" ry="1.8"/>
</g>
<!-- 118&#45;&#45;116 -->
<g id="edge117" class="edge"><title>118&#45;&#45;116</title>
<path fill="none" stroke="black" d="M804.8,-118.671C804.8,-113.604 804.8,-89.3281 804.8,-83.3382"/>
</g>
<!-- 117 -->
<g id="node119" class="node"><title>117</title>
<ellipse fill="black" stroke="black" cx="826.8" cy="-81" rx="1.8" ry="1.8"/>
</g>
<!-- 118&#45;&#45;117 -->
<g id="edge118" class="edge"><title>118&#45;&#45;117</title>
<path fill="none" stroke="black" d="M805.344,-118.671C808.414,-113.423 823.541,-87.5696 826.351,-82.7681"/>
</g>
<!-- 113 -->
<g id="node117" class="node"><title>113</title>
<ellipse fill="black" stroke="black" cx="793.8" cy="-41.4" rx="1.8" ry="1.8"/>
</g>
<!-- 116&#45;&#45;113 -->
<g id="edge115" class="edge"><title>116&#45;&#45;113</title>
<path fill="none" stroke="black" d="M804.528,-79.0706C803.046,-74.0042 795.944,-49.7281 794.191,-43.7382"/>
</g>
<!-- 115 -->
<g id="node118" class="node"><title>115</title>
<ellipse fill="black" stroke="black" cx="815.8" cy="-41.4" rx="1.8" ry="1.8"/>
</g>
<!-- 116&#45;&#45;115 -->
<g id="edge116" class="edge"><title>116&#45;&#45;115</title>
<path fill="none" stroke="black" d="M805.072,-79.0706C806.554,-74.0042 813.656,-49.7281 815.409,-43.7382"/>
</g>
<!-- 128 -->
<g id="node120" class="node"><title>128</title>
<polygon fill="none" stroke="black" points="567.8,-313.2 461.8,-313.2 461.8,-277.2 567.8,-277.2 567.8,-313.2"/>
<text text-anchor="middle" x="514.8" y="-291.5" font-family="Times New Roman,serif" font-size="14.00">inner area = 113</text>
</g>
</g>
</svg>
